<svg id="Layer_1" data-name="Layer 1" xmlns="http://www.w3.org/2000/svg" xmlns:xlink="http://www.w3.org/1999/xlink" viewBox="0 0 1210.82 841.42"><defs><style>.cls-1,.cls-6{fill:#fff;}.cls-2{fill:url(#linear-gradient);}.cls-3{opacity:0.7;}.cls-10,.cls-11,.cls-4,.cls-7,.cls-8,.cls-9{fill:none;}.cls-4{stroke:#030347;stroke-linejoin:round;stroke-width:5px;}.cls-5{fill:#030347;}.cls-6{font-size:35px;font-family:SegoeUI-Bold, Segoe UI;font-weight:700;}.cls-10,.cls-11,.cls-7,.cls-8,.cls-9{stroke-miterlimit:10;}.cls-7{stroke:url(#linear-gradient-2);}.cls-8{stroke:url(#linear-gradient-3);}.cls-9{stroke:url(#linear-gradient-4);}.cls-10{stroke:url(#linear-gradient-5);}.cls-11{stroke:url(#linear-gradient-6);}</style><linearGradient id="linear-gradient" x1="309.68" y1="523.36" x2="899.68" y2="523.36" gradientUnits="userSpaceOnUse"><stop offset="0" stop-color="#9f2e95"/><stop offset="0.33" stop-color="#8b2cc7"/><stop offset="0.66" stop-color="#5951f1"/><stop offset="1" stop-color="#1daef4"/></linearGradient><linearGradient id="linear-gradient-2" x1="172.37" y1="250" x2="416.64" y2="250" xlink:href="#linear-gradient"/><linearGradient id="linear-gradient-3" x1="66.53" y1="381.02" x2="310.8" y2="381.02" xlink:href="#linear-gradient"/><linearGradient id="linear-gradient-4" x1="53.12" y1="6427.19" x2="297.39" y2="6427.19" gradientTransform="matrix(1, 0, 0, -1, 0, 7074.32)" xlink:href="#linear-gradient"/><linearGradient id="linear-gradient-5" x1="-2812.01" y1="6362.15" x2="-2487.69" y2="6362.15" gradientTransform="translate(-1612.37 7074.32) rotate(180)" xlink:href="#linear-gradient"/><linearGradient id="linear-gradient-6" x1="-2819.17" y1="196.51" x2="-2614.92" y2="196.51" gradientTransform="matrix(-1, 0, 0, 1, -2061.1, 0)" xlink:href="#linear-gradient"/></defs><path class="cls-1" d="M43.42,31.16h-10V59.75H25.53V31.16H15.59V24.74H43.42Z"/><path class="cls-1" d="M54.8,60.36q-6.25,0-9.83-3.5T41.4,47.35q0-6.19,3.71-9.7t10-3.51q6.22,0,9.77,3.51a12.43,12.43,0,0,1,3.54,9.26q0,6.23-3.65,9.84T54.8,60.36ZM55,40.05a5.13,5.13,0,0,0-4.24,1.88,8.28,8.28,0,0,0-1.52,5.32q0,7.2,5.81,7.21,5.55,0,5.54-7.4Q60.58,40.06,55,40.05Z"/><path class="cls-1" d="M98.5,59.75H89.25l-8-12.4h-.09v12.4H73.45v-37h7.72V46.3h.09l7.45-11.55h9.15l-9,11.75Z"/><path class="cls-1" d="M123.16,49.45H106.85q.39,5.44,6.86,5.44a13.4,13.4,0,0,0,7.25-2v5.57a19,19,0,0,1-9,1.85q-6.06,0-9.4-3.35t-3.34-9.37q0-6.22,3.61-9.86a12.06,12.06,0,0,1,8.89-3.64c3.64,0,6.46,1.09,8.46,3.25s3,5.1,3,8.81ZM116,44.72c0-3.59-1.44-5.38-4.34-5.38a4.16,4.16,0,0,0-3.21,1.54,7,7,0,0,0-1.65,3.84Z"/><path class="cls-1" d="M151.89,59.75H144.2V45.86q0-5.8-4.15-5.81a4.1,4.1,0,0,0-3.29,1.54,5.84,5.84,0,0,0-1.3,3.91V59.75h-7.71v-25h7.71v4h.1a8.85,8.85,0,0,1,8-4.57q8.31,0,8.3,10.31Z"/><path class="cls-1" d="M203.33,59.75h-8.59L192.25,52H179.8l-2.47,7.78h-8.54l12.74-35h9.35ZM190.44,45.91l-3.76-11.77A15.45,15.45,0,0,1,186.1,31h-.2a13.07,13.07,0,0,1-.61,3.06l-3.81,11.86Z"/><path class="cls-1" d="M214.66,59.75H207v-37h7.71Z"/><path class="cls-1" d="M228.87,59.75h-7.71v-37h7.71Z"/><path class="cls-1" d="M247.28,60.36q-6.25,0-9.83-3.5t-3.57-9.51q0-6.19,3.71-9.7t10-3.51q6.23,0,9.77,3.51a12.43,12.43,0,0,1,3.54,9.26q0,6.23-3.65,9.84T247.28,60.36Zm.19-20.31a5.14,5.14,0,0,0-4.24,1.88,8.28,8.28,0,0,0-1.52,5.32q0,7.2,5.81,7.21,5.55,0,5.55-7.4Q253.07,40.06,247.47,40.05Z"/><path class="cls-1" d="M284.88,58.85q-2.61,1.51-7.55,1.51A12.72,12.72,0,0,1,268,56.87a12,12,0,0,1-3.57-9q0-6.36,3.82-10t10.22-3.68q4.42,0,6.4,1.17v6.55a8.76,8.76,0,0,0-5.4-1.81A7.12,7.12,0,0,0,274.22,42a7.27,7.27,0,0,0-1.94,5.36,7.15,7.15,0,0,0,1.85,5.21,6.8,6.8,0,0,0,5.11,1.9,10.23,10.23,0,0,0,5.64-1.81Z"/><path class="cls-1" d="M310.73,59.75h-7.3V56.16h-.1a8.12,8.12,0,0,1-7.44,4.2,7.77,7.77,0,0,1-5.73-2.06,7.39,7.39,0,0,1-2.09-5.5q0-7.27,8.62-8.4l6.79-.91q0-4.1-4.44-4.1a15.22,15.22,0,0,0-8.5,2.66V36.24A19,19,0,0,1,295,34.78a23.36,23.36,0,0,1,5.09-.64q10.69,0,10.69,10.67ZM303.48,49.6V47.91l-4.54.59c-2.51.32-3.76,1.46-3.76,3.39a2.83,2.83,0,0,0,.91,2.16,3.55,3.55,0,0,0,2.48.84,4.57,4.57,0,0,0,3.54-1.5A5.41,5.41,0,0,0,303.48,49.6Z"/><path class="cls-1" d="M332,59.46a11.45,11.45,0,0,1-5.15.9q-8.16,0-8.16-8.47V40.44h-4.05V34.75h4.05V29.36l7.69-2.2v7.59H332v5.69h-5.62V50.55c0,2.6,1,3.91,3.1,3.91a5.28,5.28,0,0,0,2.52-.71Z"/><path class="cls-1" d="M340.2,30.8a4.53,4.53,0,0,1-3.2-1.16,3.72,3.72,0,0,1-1.24-2.84A3.62,3.62,0,0,1,337,24a5.22,5.22,0,0,1,6.41,0,3.64,3.64,0,0,1,1.23,2.84,3.73,3.73,0,0,1-1.23,2.88A4.61,4.61,0,0,1,340.2,30.8Zm3.81,29h-7.72v-25H344Z"/><path class="cls-1" d="M362.42,60.36q-6.26,0-9.83-3.5T349,47.35q0-6.19,3.71-9.7t10-3.51q6.23,0,9.76,3.51a12.43,12.43,0,0,1,3.54,9.26q0,6.23-3.65,9.84T362.42,60.36Zm.19-20.31a5.16,5.16,0,0,0-4.25,1.88,8.28,8.28,0,0,0-1.51,5.32q0,7.2,5.81,7.21,5.54,0,5.54-7.4Q368.2,40.06,362.61,40.05Z"/><path class="cls-1" d="M405.21,59.75h-7.69V45.86q0-5.8-4.15-5.81a4.1,4.1,0,0,0-3.29,1.54,5.84,5.84,0,0,0-1.3,3.91V59.75h-7.71v-25h7.71v4h.1a8.85,8.85,0,0,1,8-4.57q8.31,0,8.3,10.31Z"/><circle class="cls-2" cx="604.68" cy="523.36" r="295"/><g class="cls-3"><path class="cls-1" d="M645.57,148h-7.72v6.83H645V157h-7.14v8.75h-2.32V145.93h10Z"/><path class="cls-1" d="M656.33,166a6.54,6.54,0,0,1-5-2,7.31,7.31,0,0,1-1.87-5.24,7.65,7.65,0,0,1,1.94-5.56,7,7,0,0,1,5.26-2,6.34,6.34,0,0,1,4.93,1.95,7.7,7.7,0,0,1,1.77,5.39,7.6,7.6,0,0,1-1.91,5.41A6.7,6.7,0,0,1,656.33,166Zm.16-12.88a4.28,4.28,0,0,0-3.44,1.49,6,6,0,0,0-1.27,4.08,5.72,5.72,0,0,0,1.28,4,4.34,4.34,0,0,0,3.43,1.45,4.15,4.15,0,0,0,3.37-1.42,6.16,6.16,0,0,0,1.18-4,6.22,6.22,0,0,0-1.18-4.08A4.1,4.1,0,0,0,656.49,153.15Z"/><path class="cls-1" d="M679.8,165.7h-2.27v-2.23h0a4.64,4.64,0,0,1-4.36,2.56q-5,0-5-6v-8.44h2.24v8.08q0,4.47,3.42,4.47a3.48,3.48,0,0,0,2.73-1.22,4.69,4.69,0,0,0,1.06-3.19v-8.14h2.27Z"/><path class="cls-1" d="M697.49,165.7h-2.26v-8c0-3-1.1-4.5-3.28-4.5a3.57,3.57,0,0,0-2.81,1.28,4.72,4.72,0,0,0-1.11,3.22v8h-2.26V151.58H688v2.35h.06a5.08,5.08,0,0,1,4.63-2.68,4.32,4.32,0,0,1,3.54,1.5,6.62,6.62,0,0,1,1.23,4.32Z"/><path class="cls-1" d="M715.21,165.7H713v-2.4h-.06A5.2,5.2,0,0,1,708,166a5.28,5.28,0,0,1-4.25-1.89A7.81,7.81,0,0,1,702.2,159a8.45,8.45,0,0,1,1.76-5.61,5.81,5.81,0,0,1,4.7-2.11,4.51,4.51,0,0,1,4.23,2.29H713V144.8h2.26ZM713,159.32v-2.09a4,4,0,0,0-1.13-2.89,3.79,3.79,0,0,0-2.87-1.19,3.9,3.9,0,0,0-3.25,1.52,6.65,6.65,0,0,0-1.19,4.19,6,6,0,0,0,1.14,3.86,3.73,3.73,0,0,0,3.05,1.41,3.86,3.86,0,0,0,3.07-1.37A5.06,5.06,0,0,0,713,159.32Z"/><path class="cls-1" d="M732.54,159.21h-10a5.26,5.26,0,0,0,1.27,3.64,4.37,4.37,0,0,0,3.33,1.28,7,7,0,0,0,4.39-1.57v2.12a8.25,8.25,0,0,1-4.93,1.35,6,6,0,0,1-4.7-1.92,7.87,7.87,0,0,1-1.71-5.41,7.73,7.73,0,0,1,1.87-5.37,6,6,0,0,1,4.64-2.08A5.32,5.32,0,0,1,731,153a7.5,7.5,0,0,1,1.51,5Zm-2.31-1.92a4.62,4.62,0,0,0-1-3,3.23,3.23,0,0,0-2.58-1.09A3.68,3.68,0,0,0,724,154.3a5.25,5.25,0,0,0-1.38,3Z"/><path class="cls-1" d="M744.74,153.87a2.81,2.81,0,0,0-1.71-.45,2.88,2.88,0,0,0-2.42,1.36,6.29,6.29,0,0,0-1,3.72v7.2h-2.27V151.58h2.27v2.91h.05a4.84,4.84,0,0,1,1.48-2.32,3.34,3.34,0,0,1,2.22-.84,3.69,3.69,0,0,1,1.35.2Z"/><path class="cls-1" d="M747.75,165.19v-2.43a6.67,6.67,0,0,0,4.06,1.37c2,0,3-.66,3-2a1.76,1.76,0,0,0-.25-1,2.51,2.51,0,0,0-.69-.69,5.42,5.42,0,0,0-1-.55l-1.26-.5a16.49,16.49,0,0,1-1.65-.75,4.79,4.79,0,0,1-1.19-.86,3.12,3.12,0,0,1-.71-1.08,3.83,3.83,0,0,1-.25-1.42,3.42,3.42,0,0,1,.46-1.76,4.1,4.1,0,0,1,1.21-1.28,6.06,6.06,0,0,1,1.73-.78,7.91,7.91,0,0,1,2-.26,8,8,0,0,1,3.28.64v2.28a6.39,6.39,0,0,0-3.58-1,4.06,4.06,0,0,0-1.15.15,2.5,2.5,0,0,0-.87.41,1.77,1.77,0,0,0-.57.62,1.7,1.7,0,0,0-.2.81,2,2,0,0,0,.2.92,1.93,1.93,0,0,0,.59.66,4.29,4.29,0,0,0,.93.53l1.26.51a16.83,16.83,0,0,1,1.68.74,5.51,5.51,0,0,1,1.27.85,3.18,3.18,0,0,1,.8,1.1,3.47,3.47,0,0,1,.29,1.47,3.54,3.54,0,0,1-.46,1.82,3.89,3.89,0,0,1-1.24,1.28,5.51,5.51,0,0,1-1.78.76,8.53,8.53,0,0,1-2.11.25A8,8,0,0,1,747.75,165.19Z"/></g><g class="cls-3"><path class="cls-1" d="M68.88,699.25H66.12l-3.3-5.54a11.56,11.56,0,0,0-.89-1.32,4.92,4.92,0,0,0-.87-.89,2.89,2.89,0,0,0-1-.5,3.78,3.78,0,0,0-1.16-.16H57v8.41H54.71V679.48h5.9a8.63,8.63,0,0,1,2.39.32,5.37,5.37,0,0,1,1.9,1,4.68,4.68,0,0,1,1.27,1.64,6.07,6.07,0,0,1,.14,4.21,5.1,5.1,0,0,1-.88,1.54,5.35,5.35,0,0,1-1.38,1.15,7.14,7.14,0,0,1-1.81.73v.06a4.64,4.64,0,0,1,.86.5,5.42,5.42,0,0,1,.69.67,8.07,8.07,0,0,1,.66.88c.21.32.46.7.72,1.13ZM57,681.57v7.17h3.14a4.94,4.94,0,0,0,1.61-.26,3.92,3.92,0,0,0,1.27-.75,3.42,3.42,0,0,0,.84-1.2,4.06,4.06,0,0,0,.3-1.59,3.11,3.11,0,0,0-1-2.48,4.44,4.44,0,0,0-3-.89Z"/><path class="cls-1" d="M84.05,692.75h-10a5.29,5.29,0,0,0,1.27,3.64,4.36,4.36,0,0,0,3.34,1.29,6.92,6.92,0,0,0,4.38-1.58v2.13a8.19,8.19,0,0,1-4.92,1.35,6,6,0,0,1-4.7-1.93,7.86,7.86,0,0,1-1.71-5.41,7.72,7.72,0,0,1,1.87-5.37,6,6,0,0,1,4.64-2.07,5.33,5.33,0,0,1,4.29,1.79,7.5,7.5,0,0,1,1.51,5Zm-2.31-1.91a4.62,4.62,0,0,0-.95-3.05,3.2,3.2,0,0,0-2.58-1.09,3.64,3.64,0,0,0-2.72,1.15,5.25,5.25,0,0,0-1.38,3Z"/><path class="cls-1" d="M106.67,685.13l-4.24,14.12h-2.34l-2.91-10.11a6.74,6.74,0,0,1-.22-1.31h0a6.69,6.69,0,0,1-.29,1.28l-3.16,10.14H91.2l-4.27-14.12H89.3l2.92,10.61a6.23,6.23,0,0,1,.19,1.27h.11a6,6,0,0,1,.25-1.29L96,685.13h2.07L101,695.77a6.44,6.44,0,0,1,.21,1.27h.11a5.91,5.91,0,0,1,.24-1.27l2.86-10.64Z"/><path class="cls-1" d="M120.8,699.25h-2.26V697h-.05a4.74,4.74,0,0,1-4.34,2.54,4.64,4.64,0,0,1-3.31-1.12,3.87,3.87,0,0,1-1.19-3q0-4,4.66-4.61l4.23-.59q0-3.6-2.91-3.6a6.93,6.93,0,0,0-4.6,1.74v-2.32a8.78,8.78,0,0,1,4.8-1.32c3.32,0,5,1.75,5,5.26Zm-2.26-7.14-3.4.46a5.57,5.57,0,0,0-2.37.78,2.24,2.24,0,0,0-.8,2,2.16,2.16,0,0,0,.73,1.69,2.86,2.86,0,0,0,2,.66,3.66,3.66,0,0,0,2.78-1.18,4.22,4.22,0,0,0,1.09-3Z"/><path class="cls-1" d="M133.84,687.42a2.81,2.81,0,0,0-1.71-.46,2.89,2.89,0,0,0-2.42,1.37,6.29,6.29,0,0,0-1,3.72v7.2h-2.26V685.13h2.26V688h0a4.91,4.91,0,0,1,1.48-2.32,3.34,3.34,0,0,1,2.22-.84,3.91,3.91,0,0,1,1.35.19Z"/><path class="cls-1" d="M149.75,699.25h-2.26v-2.4h-.05a5.7,5.7,0,0,1-9.11.83,7.77,7.77,0,0,1-1.59-5.16,8.47,8.47,0,0,1,1.76-5.61,5.82,5.82,0,0,1,4.7-2.11,4.54,4.54,0,0,1,4.24,2.29h.05v-8.74h2.26Zm-2.26-6.39v-2.08a4,4,0,0,0-1.13-2.89,3.79,3.79,0,0,0-2.87-1.19,3.9,3.9,0,0,0-3.25,1.52,6.65,6.65,0,0,0-1.19,4.19,6,6,0,0,0,1.14,3.85,3.73,3.73,0,0,0,3.05,1.42,3.86,3.86,0,0,0,3.07-1.37A5.07,5.07,0,0,0,147.49,692.86Z"/><path class="cls-1" d="M167.51,691.77v7.48h-2.32V679.48h5.43a7.18,7.18,0,0,1,4.92,1.54,5.52,5.52,0,0,1,1.74,4.36,6,6,0,0,1-1.94,4.6,7.36,7.36,0,0,1-5.23,1.79Zm0-10.2v8.11h2.42a5.43,5.43,0,0,0,3.66-1.1,3.87,3.87,0,0,0,1.26-3.09q0-3.91-4.63-3.92Z"/><path class="cls-1" d="M188,699.58a6.55,6.55,0,0,1-5-2,7.36,7.36,0,0,1-1.86-5.25,7.6,7.6,0,0,1,1.94-5.55,7,7,0,0,1,5.25-2,6.34,6.34,0,0,1,4.93,1.94,7.73,7.73,0,0,1,1.77,5.39,7.57,7.57,0,0,1-1.91,5.42A6.7,6.7,0,0,1,188,699.58Zm.17-12.88a4.34,4.34,0,0,0-3.45,1.48,6.07,6.07,0,0,0-1.27,4.09,5.8,5.8,0,0,0,1.28,4,4.39,4.39,0,0,0,3.44,1.45,4.16,4.16,0,0,0,3.37-1.42,6.21,6.21,0,0,0,1.18-4,6.28,6.28,0,0,0-1.18-4.08A4.11,4.11,0,0,0,188.18,686.7Z"/><path class="cls-1" d="M206,699.58a6.55,6.55,0,0,1-5-2,7.32,7.32,0,0,1-1.87-5.25,7.6,7.6,0,0,1,2-5.55,7,7,0,0,1,5.25-2,6.36,6.36,0,0,1,4.93,1.94,7.73,7.73,0,0,1,1.77,5.39,7.61,7.61,0,0,1-1.91,5.42A6.7,6.7,0,0,1,206,699.58Zm.16-12.88a4.31,4.31,0,0,0-3.44,1.48,6.07,6.07,0,0,0-1.27,4.09,5.75,5.75,0,0,0,1.28,4,4.37,4.37,0,0,0,3.43,1.45,4.15,4.15,0,0,0,3.37-1.42,6.16,6.16,0,0,0,1.18-4,6.22,6.22,0,0,0-1.18-4.08A4.1,4.1,0,0,0,206.13,686.7Z"/><path class="cls-1" d="M220.28,699.25H218v-20.9h2.26Z"/><path class="cls-1" d="M253.05,699.56a4.23,4.23,0,0,1-1.39-.21,3.77,3.77,0,0,1-1.11-.61,6.69,6.69,0,0,1-1-1c-.32-.38-.65-.81-1-1.29a9.64,9.64,0,0,1-1.28,1.15,9.36,9.36,0,0,1-1.6,1,10,10,0,0,1-1.93.68,9.66,9.66,0,0,1-2.28.25,9.44,9.44,0,0,1-2.73-.37,6.17,6.17,0,0,1-2.12-1.09,4.93,4.93,0,0,1-1.37-1.79,5.72,5.72,0,0,1-.49-2.44,5.55,5.55,0,0,1,1.2-3.6,8.6,8.6,0,0,1,3.39-2.45,7.48,7.48,0,0,1-.83-.71,5.31,5.31,0,0,1-.74-.93,5,5,0,0,1-.52-1.14,4.63,4.63,0,0,1-.2-1.37,4.52,4.52,0,0,1,.39-1.93,4.15,4.15,0,0,1,1.09-1.42,4.7,4.7,0,0,1,1.62-.88,6.64,6.64,0,0,1,2-.29,6.07,6.07,0,0,1,2,.29,4.37,4.37,0,0,1,1.53.85,3.92,3.92,0,0,1,1,1.32,4.43,4.43,0,0,1-.58,4.48,7.42,7.42,0,0,1-2.84,1.87,7.89,7.89,0,0,1,1.73.91,9.53,9.53,0,0,1,1.42,1.19,15.08,15.08,0,0,1,1.23,1.42c.37.51.74,1,1.11,1.58a11.35,11.35,0,0,0,1.68-3.44,13.42,13.42,0,0,0,.57-3.92,7.74,7.74,0,0,0-.06-1c0-.31-.1-.61-.18-.92H253a5.8,5.8,0,0,1,.13.86c0,.28,0,.6.05,1a12.14,12.14,0,0,1-.27,2.52,16.06,16.06,0,0,1-.7,2.46,17.28,17.28,0,0,1-1,2.27,19.51,19.51,0,0,1-1.23,2c.32.44.62.82.88,1.15a5.73,5.73,0,0,0,.81.82,3,3,0,0,0,.84.49,2.78,2.78,0,0,0,1,.16,3.59,3.59,0,0,0,.84-.11,8.87,8.87,0,0,0,.88-.28v2.1a5.91,5.91,0,0,1-1,.29A6.62,6.62,0,0,1,253.05,699.56Zm-11.57-1.95a7.8,7.8,0,0,0,1.93-.23,7.53,7.53,0,0,0,1.63-.61,7.14,7.14,0,0,0,1.35-.88,11.1,11.1,0,0,0,1.1-1.06c-.56-.87-1.07-1.61-1.55-2.24a12.71,12.71,0,0,0-1.43-1.6,8.58,8.58,0,0,0-1.55-1.16,12.86,12.86,0,0,0-1.89-.9,12.51,12.51,0,0,0-1.6.77,5.21,5.21,0,0,0-1.26,1,4.36,4.36,0,0,0-.84,1.33,4.84,4.84,0,0,0-.3,1.78,3.79,3.79,0,0,0,.35,1.66,3.43,3.43,0,0,0,.94,1.19,4.32,4.32,0,0,0,1.4.72A6,6,0,0,0,241.48,697.61Zm3.45-14.08a2.47,2.47,0,0,0-.26-1.17,2.45,2.45,0,0,0-1.52-1.26,3.19,3.19,0,0,0-1-.15,3.14,3.14,0,0,0-2.16.73,2.59,2.59,0,0,0-.82,2,3.32,3.32,0,0,0,.17,1.06,3.54,3.54,0,0,0,.49.92,3.46,3.46,0,0,0,.72.76,5.51,5.51,0,0,0,.88.57,7.29,7.29,0,0,0,2.59-1.42A2.66,2.66,0,0,0,244.93,683.53Z"/><path class="cls-1" d="M54.71,731.51V711.74h5.62A6.13,6.13,0,0,1,64.4,713a4.06,4.06,0,0,1,1.5,3.27A4.75,4.75,0,0,1,62.49,721V721a5,5,0,0,1,3.19,1.51,4.63,4.63,0,0,1,1.2,3.31,5.14,5.14,0,0,1-1.82,4.11,6.75,6.75,0,0,1-4.59,1.57ZM57,713.84v6.38H59.4a4.53,4.53,0,0,0,3-.91,3.22,3.22,0,0,0,1.09-2.59c0-1.92-1.27-2.88-3.79-2.88Zm0,8.46v7.12h3.14a4.67,4.67,0,0,0,3.16-1,3.29,3.29,0,0,0,1.13-2.64q0-3.51-4.77-3.51Z"/><path class="cls-1" d="M77.9,731.85a6.53,6.53,0,0,1-5-2A7.32,7.32,0,0,1,71,724.62,7.68,7.68,0,0,1,73,719.06a7,7,0,0,1,5.26-2A6.34,6.34,0,0,1,83.16,719a7.71,7.71,0,0,1,1.77,5.39,7.58,7.58,0,0,1-1.9,5.41A6.7,6.7,0,0,1,77.9,731.85ZM78.07,719a4.31,4.31,0,0,0-3.45,1.48,6.12,6.12,0,0,0-1.27,4.09,5.71,5.71,0,0,0,1.29,4,4.34,4.34,0,0,0,3.43,1.45,4.13,4.13,0,0,0,3.37-1.42,6.12,6.12,0,0,0,1.18-4,6.26,6.26,0,0,0-1.18-4.08A4.14,4.14,0,0,0,78.07,719Z"/><path class="cls-1" d="M101.68,731.51H99.41v-8q0-4.49-3.28-4.49a3.54,3.54,0,0,0-2.8,1.27,4.74,4.74,0,0,0-1.11,3.22v8H90V717.4h2.26v2.34h0a5.1,5.1,0,0,1,4.64-2.67,4.31,4.31,0,0,1,3.54,1.49,6.67,6.67,0,0,1,1.23,4.33Z"/><path class="cls-1" d="M118.76,731.51H116.5v-2.23h0a4.65,4.65,0,0,1-4.36,2.57q-5,0-5-6V717.4h2.24v8.08q0,4.46,3.42,4.46a3.43,3.43,0,0,0,2.72-1.22,4.61,4.61,0,0,0,1.07-3.19V717.4h2.26Z"/><path class="cls-1" d="M123.88,731v-2.42a6.69,6.69,0,0,0,4.07,1.36c2,0,3-.66,3-2a1.72,1.72,0,0,0-.26-1,2.69,2.69,0,0,0-.69-.7,5.41,5.41,0,0,0-1-.54l-1.26-.5a16.23,16.23,0,0,1-1.65-.76,4.9,4.9,0,0,1-1.18-.85,3.2,3.2,0,0,1-.72-1.08,3.88,3.88,0,0,1-.24-1.42,3.3,3.3,0,0,1,.46-1.76,3.89,3.89,0,0,1,1.21-1.28,5.36,5.36,0,0,1,1.73-.78,7.49,7.49,0,0,1,2-.26,8.17,8.17,0,0,1,3.28.63V720a6.42,6.42,0,0,0-3.59-1,4.45,4.45,0,0,0-1.14.14,3.11,3.11,0,0,0-.88.41,1.86,1.86,0,0,0-.56.63,1.56,1.56,0,0,0-.2.8,1.82,1.82,0,0,0,.78,1.59,4.36,4.36,0,0,0,.94.52l1.25.51c.63.24,1.19.49,1.69.74a5.47,5.47,0,0,1,1.26.86,3.3,3.3,0,0,1,.81,1.09,3.55,3.55,0,0,1,.28,1.48,3.47,3.47,0,0,1-.46,1.82,4.06,4.06,0,0,1-1.23,1.28,5.84,5.84,0,0,1-1.78.76,9,9,0,0,1-2.11.25A8,8,0,0,1,123.88,731Z"/></g><g class="cls-3"><path class="cls-1" d="M182.93,190.74A8.67,8.67,0,0,1,176.2,188a10.27,10.27,0,0,1-2.53-7.21,10.88,10.88,0,0,1,2.58-7.61,9,9,0,0,1,7-2.84,8.48,8.48,0,0,1,6.59,2.76,10.29,10.29,0,0,1,2.5,7.21,10.94,10.94,0,0,1-2.56,7.65A8.86,8.86,0,0,1,182.93,190.74Zm.17-18.34a6.37,6.37,0,0,0-5.06,2.25,10,10,0,0,0,0,11.78,6.17,6.17,0,0,0,4.94,2.23,6.48,6.48,0,0,0,5.13-2.13,8.66,8.66,0,0,0,1.88-5.94,9.09,9.09,0,0,0-1.82-6.05A6.27,6.27,0,0,0,183.1,172.4Z"/><path class="cls-1" d="M199.68,188.37h-.06v8.53h-2.26V176.29h2.26v2.48h.06a5.35,5.35,0,0,1,4.88-2.81,5.15,5.15,0,0,1,4.26,1.9,7.83,7.83,0,0,1,1.53,5.08,8.74,8.74,0,0,1-1.73,5.67,5.72,5.72,0,0,1-4.71,2.13A4.72,4.72,0,0,1,199.68,188.37Zm-.06-5.7v2a4.21,4.21,0,0,0,1.14,3,4.05,4.05,0,0,0,6.11-.36,7.23,7.23,0,0,0,1.16-4.37,5.66,5.66,0,0,0-1.09-3.69,3.6,3.6,0,0,0-2.95-1.34,4,4,0,0,0-3.17,1.37A5.06,5.06,0,0,0,199.62,182.67Z"/><path class="cls-1" d="M226.72,183.92h-10a5.26,5.26,0,0,0,1.27,3.63,4.35,4.35,0,0,0,3.33,1.29,7,7,0,0,0,4.39-1.58v2.13a8.19,8.19,0,0,1-4.92,1.35,6,6,0,0,1-4.7-1.92,7.9,7.9,0,0,1-1.71-5.42,7.72,7.72,0,0,1,1.86-5.36,6,6,0,0,1,4.64-2.08,5.32,5.32,0,0,1,4.29,1.79,7.5,7.5,0,0,1,1.52,5ZM224.4,182a4.61,4.61,0,0,0-.94-3.05,3.25,3.25,0,0,0-2.59-1.09,3.62,3.62,0,0,0-2.71,1.15,5.12,5.12,0,0,0-1.38,3Z"/><path class="cls-1" d="M238.91,178.58a2.81,2.81,0,0,0-1.71-.45,2.89,2.89,0,0,0-2.42,1.36,6.29,6.29,0,0,0-1,3.72v7.2h-2.26V176.29h2.26v2.91h.05a5,5,0,0,1,1.48-2.32,3.34,3.34,0,0,1,2.22-.84,3.62,3.62,0,0,1,1.35.2Z"/><path class="cls-1" d="M252.88,190.41h-2.26V188.2h-.05a4.76,4.76,0,0,1-4.35,2.54,4.63,4.63,0,0,1-3.3-1.12,3.87,3.87,0,0,1-1.19-3c0-2.64,1.55-4.17,4.66-4.61l4.23-.59q0-3.6-2.91-3.6a6.93,6.93,0,0,0-4.6,1.74v-2.32A8.72,8.72,0,0,1,247.9,176q5,0,5,5.27Zm-2.26-7.14-3.41.47a5.54,5.54,0,0,0-2.37.77,2.28,2.28,0,0,0-.8,2,2.15,2.15,0,0,0,.74,1.69,2.84,2.84,0,0,0,2,.66,3.63,3.63,0,0,0,2.77-1.18,4.23,4.23,0,0,0,1.1-3Z"/><path class="cls-1" d="M265.1,190.27a4.41,4.41,0,0,1-2.11.44q-3.71,0-3.71-4.13v-8.36h-2.42v-1.93h2.42v-3.45l2.26-.73v4.18h3.56v1.93h-3.56v8a3.22,3.22,0,0,0,.49,2,1.9,1.9,0,0,0,1.6.61,2.37,2.37,0,0,0,1.47-.47Z"/><path class="cls-1" d="M270.69,172.71a1.4,1.4,0,0,1-1-.42,1.36,1.36,0,0,1-.43-1,1.45,1.45,0,0,1,1.46-1.48,1.46,1.46,0,0,1,1.05.42,1.46,1.46,0,0,1,0,2.09A1.47,1.47,0,0,1,270.69,172.71Zm1.1,17.7h-2.26V176.29h2.26Z"/><path class="cls-1" d="M283.68,190.74a6.57,6.57,0,0,1-5-2,7.36,7.36,0,0,1-1.86-5.25,7.6,7.6,0,0,1,1.94-5.55,7,7,0,0,1,5.25-2,6.34,6.34,0,0,1,4.93,1.94,7.74,7.74,0,0,1,1.77,5.4,7.56,7.56,0,0,1-1.91,5.41A6.7,6.7,0,0,1,283.68,190.74Zm.17-12.88a4.34,4.34,0,0,0-3.45,1.48,6.09,6.09,0,0,0-1.27,4.09,5.78,5.78,0,0,0,1.28,4,4.39,4.39,0,0,0,3.44,1.45,4.16,4.16,0,0,0,3.37-1.42,6.21,6.21,0,0,0,1.18-4,6.28,6.28,0,0,0-1.18-4.08A4.11,4.11,0,0,0,283.85,177.86Z"/><path class="cls-1" d="M307.45,190.41h-2.26v-8q0-4.5-3.28-4.5a3.55,3.55,0,0,0-2.8,1.28,4.72,4.72,0,0,0-1.11,3.22v8h-2.26V176.29H298v2.35h.05a5.09,5.09,0,0,1,4.63-2.68,4.32,4.32,0,0,1,3.55,1.5,6.62,6.62,0,0,1,1.22,4.32Z"/><path class="cls-1" d="M339.9,190.73a4.16,4.16,0,0,1-1.38-.22,4,4,0,0,1-1.11-.6,7.41,7.41,0,0,1-1-1c-.31-.38-.65-.81-1-1.28a10.22,10.22,0,0,1-1.27,1.14,9.45,9.45,0,0,1-1.61,1,10,10,0,0,1-1.93.68,9.56,9.56,0,0,1-2.27.26,9.43,9.43,0,0,1-2.73-.38,6,6,0,0,1-2.12-1.09,5.07,5.07,0,0,1-1.38-1.79,5.87,5.87,0,0,1-.49-2.44,5.56,5.56,0,0,1,1.2-3.6,8.6,8.6,0,0,1,3.39-2.45,7.41,7.41,0,0,1-.82-.71,5.14,5.14,0,0,1-.74-.92,4.81,4.81,0,0,1-.52-1.15,4.28,4.28,0,0,1-.2-1.37,4.52,4.52,0,0,1,.39-1.93,4.1,4.1,0,0,1,1.08-1.42,4.66,4.66,0,0,1,1.63-.88,6.9,6.9,0,0,1,2-.29,6.42,6.42,0,0,1,2,.29,4.73,4.73,0,0,1,1.53.85,3.86,3.86,0,0,1,1,1.33,4,4,0,0,1,.36,1.72,4.07,4.07,0,0,1-1,2.75,7.38,7.38,0,0,1-2.83,1.87,8.26,8.26,0,0,1,1.72.91,10.33,10.33,0,0,1,1.43,1.2,12.84,12.84,0,0,1,1.22,1.42c.38.5.75,1,1.12,1.57a11.78,11.78,0,0,0,1.68-3.43,13.43,13.43,0,0,0,.56-3.93,7.74,7.74,0,0,0-.06-1c0-.31-.1-.61-.17-.92h2.19a4,4,0,0,1,.13.87c0,.27,0,.59.05,1a12.76,12.76,0,0,1-.26,2.52A17,17,0,0,1,338,184a18.45,18.45,0,0,1-1.23,2c.32.44.61.83.88,1.15a5.21,5.21,0,0,0,.8.82,3.05,3.05,0,0,0,.84.49,2.78,2.78,0,0,0,1,.16,3.46,3.46,0,0,0,.84-.11,8.11,8.11,0,0,0,.88-.28v2.1a5.68,5.68,0,0,1-1,.29A6.56,6.56,0,0,1,339.9,190.73Zm-11.56-2a7.8,7.8,0,0,0,1.93-.23,7.25,7.25,0,0,0,1.62-.61,7.05,7.05,0,0,0,1.36-.88,11,11,0,0,0,1.1-1.05c-.56-.88-1.08-1.62-1.55-2.24a12.88,12.88,0,0,0-1.44-1.61,8.52,8.52,0,0,0-1.54-1.16,12.49,12.49,0,0,0-1.9-.89,13.17,13.17,0,0,0-1.6.76,5.63,5.63,0,0,0-1.26,1,4.45,4.45,0,0,0-.83,1.33,4.84,4.84,0,0,0-.3,1.78,3.79,3.79,0,0,0,.34,1.66,3.46,3.46,0,0,0,1,1.19,4,4,0,0,0,1.39.72A6,6,0,0,0,328.34,188.77Zm3.44-14.08a2.47,2.47,0,0,0-.25-1.17,2.57,2.57,0,0,0-.65-.8,2.6,2.6,0,0,0-.87-.46,3.25,3.25,0,0,0-1-.15,3.11,3.11,0,0,0-2.15.73,2.59,2.59,0,0,0-.82,2,3.06,3.06,0,0,0,.17,1.06,3.51,3.51,0,0,0,.48.92,3.76,3.76,0,0,0,.73.76,5.1,5.1,0,0,0,.88.57,7.45,7.45,0,0,0,2.59-1.41A2.69,2.69,0,0,0,331.78,174.69Z"/><path class="cls-1" d="M175,222.68V202.91h5.46q10.44,0,10.45,9.63A9.71,9.71,0,0,1,188,219.9a10.76,10.76,0,0,1-7.77,2.78ZM177.28,205v15.58h2.95a8.36,8.36,0,0,0,6.05-2.08,7.79,7.79,0,0,0,2.17-5.9q0-7.6-8.08-7.6Z"/><path class="cls-1" d="M207.22,216.18h-10a5.29,5.29,0,0,0,1.27,3.64,4.35,4.35,0,0,0,3.33,1.28,6.93,6.93,0,0,0,4.39-1.57v2.13a8.19,8.19,0,0,1-4.92,1.35,5.94,5.94,0,0,1-4.7-1.93,7.86,7.86,0,0,1-1.71-5.41,7.76,7.76,0,0,1,1.86-5.37,6,6,0,0,1,4.64-2.07A5.32,5.32,0,0,1,205.7,210a7.48,7.48,0,0,1,1.52,5Zm-2.32-1.91a4.61,4.61,0,0,0-.94-3.05,3.21,3.21,0,0,0-2.59-1.09,3.65,3.65,0,0,0-2.71,1.14,5.15,5.15,0,0,0-1.38,3Z"/><path class="cls-1" d="M223.15,208.56l-5.63,14.12H215.3L210,208.56h2.48L216,218.82a10,10,0,0,1,.5,2h0a9.35,9.35,0,0,1,.44-1.92l3.75-10.31Z"/><path class="cls-1" d="M238.33,216.18h-10a5.29,5.29,0,0,0,1.27,3.64A4.36,4.36,0,0,0,233,221.1a6.91,6.91,0,0,0,4.38-1.57v2.13a8.19,8.19,0,0,1-4.92,1.35,6,6,0,0,1-4.7-1.93,7.86,7.86,0,0,1-1.71-5.41,7.72,7.72,0,0,1,1.87-5.37,6,6,0,0,1,4.64-2.07,5.31,5.31,0,0,1,4.28,1.79,7.48,7.48,0,0,1,1.52,5ZM236,214.27a4.56,4.56,0,0,0-.94-3.05,3.2,3.2,0,0,0-2.58-1.09,3.65,3.65,0,0,0-2.72,1.14,5.28,5.28,0,0,0-1.38,3Z"/><path class="cls-1" d="M245.42,222.68h-2.26v-20.9h2.26Z"/><path class="cls-1" d="M257.31,223a6.57,6.57,0,0,1-5-2,7.36,7.36,0,0,1-1.86-5.25,7.6,7.6,0,0,1,1.94-5.55,7,7,0,0,1,5.25-2,6.34,6.34,0,0,1,4.93,1.94,7.71,7.71,0,0,1,1.77,5.39,7.54,7.54,0,0,1-1.91,5.41A6.67,6.67,0,0,1,257.31,223Zm.17-12.88a4.31,4.31,0,0,0-3.45,1.48,6.07,6.07,0,0,0-1.27,4.09,5.8,5.8,0,0,0,1.28,4,4.38,4.38,0,0,0,3.44,1.44,4.13,4.13,0,0,0,3.37-1.42,6.18,6.18,0,0,0,1.18-4,6.32,6.32,0,0,0-1.18-4.08A4.14,4.14,0,0,0,257.48,210.13Z"/><path class="cls-1" d="M271.68,220.64h-.05v8.53h-2.26V208.56h2.26V211h.05a5.35,5.35,0,0,1,4.88-2.81,5.18,5.18,0,0,1,4.26,1.89,7.87,7.87,0,0,1,1.53,5.08,8.75,8.75,0,0,1-1.72,5.68,5.74,5.74,0,0,1-4.72,2.13A4.73,4.73,0,0,1,271.68,220.64Zm-.05-5.7v2a4.21,4.21,0,0,0,1.13,3,4.06,4.06,0,0,0,6.11-.35,7.18,7.18,0,0,0,1.17-4.37,5.71,5.71,0,0,0-1.09-3.69,3.62,3.62,0,0,0-2.95-1.34,4,4,0,0,0-3.17,1.37A5,5,0,0,0,271.63,214.94Z"/><path class="cls-1" d="M307.42,222.68h-2.26v-8.11a6.15,6.15,0,0,0-.72-3.39,2.76,2.76,0,0,0-2.44-1.05,3,3,0,0,0-2.46,1.32,5.12,5.12,0,0,0-1,3.18v8.05h-2.26v-8.39q0-4.15-3.21-4.16a3,3,0,0,0-2.46,1.25,5.17,5.17,0,0,0-1,3.25v8.05h-2.26V208.56h2.26v2.23h.05a4.79,4.79,0,0,1,4.39-2.56,4.14,4.14,0,0,1,2.52.8,4,4,0,0,1,1.47,2.12,5,5,0,0,1,4.69-2.92c3.11,0,4.66,1.91,4.66,5.75Z"/><path class="cls-1" d="M324.45,216.18h-10a5.23,5.23,0,0,0,1.26,3.64,4.36,4.36,0,0,0,3.34,1.28,6.91,6.91,0,0,0,4.38-1.57v2.13a8.19,8.19,0,0,1-4.92,1.35,6,6,0,0,1-4.7-1.93,7.86,7.86,0,0,1-1.71-5.41A7.72,7.72,0,0,1,314,210.3a6,6,0,0,1,4.64-2.07,5.32,5.32,0,0,1,4.29,1.79,7.48,7.48,0,0,1,1.51,5Zm-2.31-1.91a4.62,4.62,0,0,0-.95-3.05,3.2,3.2,0,0,0-2.58-1.09,3.67,3.67,0,0,0-2.72,1.14,5.28,5.28,0,0,0-1.38,3Z"/><path class="cls-1" d="M341,222.68h-2.26v-8.05q0-4.5-3.28-4.5a3.57,3.57,0,0,0-2.81,1.28,4.72,4.72,0,0,0-1.11,3.22v8.05h-2.26V208.56h2.26v2.34h.06a5.1,5.1,0,0,1,4.63-2.67,4.35,4.35,0,0,1,3.55,1.49,6.73,6.73,0,0,1,1.22,4.33Z"/><path class="cls-1" d="M353.22,222.54a4.38,4.38,0,0,1-2.11.44q-3.71,0-3.71-4.14v-8.35H345v-1.93h2.42v-3.45l2.27-.73v4.18h3.55v1.93h-3.55v7.95a3.31,3.31,0,0,0,.48,2,1.93,1.93,0,0,0,1.6.61,2.37,2.37,0,0,0,1.47-.47Z"/></g><polyline class="cls-4" points="384.81 326.69 604.68 523.36 604.68 228.36"/><polyline class="cls-4" points="388.73 724.34 604.68 523.36 496.82 248.71"/><line class="cls-4" x1="604.68" y1="523.36" x2="311.43" y2="491.12"/><circle class="cls-5" cx="604.68" cy="523.36" r="190"/><text class="cls-6" transform="translate(771.13 672.34)">60%</text><path class="cls-1" d="M460.89,315.31c-1.09,2-2.07,3.82-2.94,5.55s-1.63,3.43-2.29,5.11A48.85,48.85,0,0,0,454,331.1a50,50,0,0,0-1.15,5.61h-5.64a45,45,0,0,1,1.27-5.5,50.35,50.35,0,0,1,1.82-5.14c.69-1.65,1.45-3.27,2.29-4.84s1.72-3.11,2.66-4.62H443.83V312.2h17.06Z"/><path class="cls-1" d="M469.67,324.63a5.57,5.57,0,0,1-4.21-1.66,6.17,6.17,0,0,1-1.6-4.46,6.76,6.76,0,0,1,1.7-4.85,6,6,0,0,1,4.54-1.8,5.54,5.54,0,0,1,4.25,1.63,6.38,6.38,0,0,1,1.53,4.56,6.69,6.69,0,0,1-1.69,4.8A5.94,5.94,0,0,1,469.67,324.63Zm17.9-12.43-16,24.51h-4.17l15.92-24.51ZM470,314.87c-1.66,0-2.5,1.16-2.5,3.47s.8,3.28,2.38,3.28,2.43-1.14,2.43-3.42S471.54,314.87,470,314.87Zm14.94,22.18a5.58,5.58,0,0,1-4.22-1.66,6.16,6.16,0,0,1-1.59-4.46,6.75,6.75,0,0,1,1.7-4.85,6,6,0,0,1,4.53-1.79,5.59,5.59,0,0,1,4.26,1.6,6.38,6.38,0,0,1,1.52,4.55,6.77,6.77,0,0,1-1.69,4.82A5.89,5.89,0,0,1,484.94,337.05Zm.27-9.75c-1.65,0-2.48,1.15-2.48,3.46s.8,3.29,2.41,3.29,2.43-1.14,2.43-3.42a4.07,4.07,0,0,0-.65-2.46A2,2,0,0,0,485.21,327.3Z"/><path class="cls-1" d="M361.72,412.46v25.05h-5.38v-19a6.7,6.7,0,0,1-1,.74,11.06,11.06,0,0,1-1.29.64c-.46.18-.93.34-1.42.48a11,11,0,0,1-1.46.28v-4.55a22,22,0,0,0,4-1.57,23.54,23.54,0,0,0,3.37-2.1Z"/><path class="cls-1" d="M377.56,437.94q-8.74,0-8.75-12.29,0-6.37,2.37-9.72a7.9,7.9,0,0,1,6.86-3.34q8.55,0,8.55,12.5,0,6.21-2.34,9.53A7.68,7.68,0,0,1,377.56,437.94Zm.24-21.23q-3.49,0-3.5,8.8,0,8.3,3.43,8.29c2.24,0,3.35-2.85,3.35-8.54S380,416.71,377.8,416.71Z"/><path class="cls-1" d="M395.11,425.43a5.57,5.57,0,0,1-4.21-1.66,6.17,6.17,0,0,1-1.6-4.46,6.76,6.76,0,0,1,1.7-4.85,6,6,0,0,1,4.54-1.8,5.54,5.54,0,0,1,4.25,1.63,6.38,6.38,0,0,1,1.53,4.56,6.69,6.69,0,0,1-1.69,4.8A5.94,5.94,0,0,1,395.11,425.43ZM413,413l-16,24.51h-4.17L408.8,413Zm-17.57,2.67c-1.66,0-2.5,1.16-2.5,3.47s.8,3.28,2.38,3.28,2.43-1.14,2.43-3.42S397,415.67,395.44,415.67Zm14.94,22.18a5.58,5.58,0,0,1-4.22-1.66,6.16,6.16,0,0,1-1.59-4.46,6.75,6.75,0,0,1,1.7-4.85,5.92,5.92,0,0,1,4.53-1.79,5.59,5.59,0,0,1,4.26,1.6,6.38,6.38,0,0,1,1.52,4.55,6.77,6.77,0,0,1-1.69,4.82A5.91,5.91,0,0,1,410.38,437.85Zm.27-9.76c-1.65,0-2.48,1.16-2.48,3.47s.8,3.28,2.41,3.28,2.43-1.13,2.43-3.41a4.07,4.07,0,0,0-.65-2.46A2.06,2.06,0,0,0,410.65,428.09Z"/><path class="cls-1" d="M354.72,585v25h-5.39v-19a6.29,6.29,0,0,1-1.05.75,11,11,0,0,1-1.29.63,11.28,11.28,0,0,1-1.42.48,10.89,10.89,0,0,1-1.45.28v-4.55a22.22,22.22,0,0,0,4-1.57,22.48,22.48,0,0,0,3.37-2.1Z"/><path class="cls-1" d="M362,603.44a6.5,6.5,0,0,1,.3-2,6,6,0,0,1,.9-1.76,6.69,6.69,0,0,1,1.5-1.45,7.85,7.85,0,0,1,2.11-1,7.55,7.55,0,0,1-2.89-2.37,5.43,5.43,0,0,1-1-3.2,5.84,5.84,0,0,1,.59-2.6,6.32,6.32,0,0,1,1.64-2.07,7.7,7.7,0,0,1,2.48-1.36,10,10,0,0,1,3.15-.48,10.14,10.14,0,0,1,3.2.48,8,8,0,0,1,2.5,1.35,6.1,6.1,0,0,1,1.64,2,5.79,5.79,0,0,1,.58,2.56,5.09,5.09,0,0,1-1.1,3.17,8.17,8.17,0,0,1-3,2.35,7.94,7.94,0,0,1,2.1,1,7.06,7.06,0,0,1,1.52,1.46,5.85,5.85,0,0,1,.92,1.79,6.75,6.75,0,0,1-.32,4.87,6.57,6.57,0,0,1-1.78,2.22,8.41,8.41,0,0,1-2.76,1.44,11.23,11.23,0,0,1-3.53.52,11.41,11.41,0,0,1-3.49-.51,8.33,8.33,0,0,1-2.75-1.42,6.63,6.63,0,0,1-1.8-2.22A6.15,6.15,0,0,1,362,603.44Zm5.12-.47a4.2,4.2,0,0,0,.25,1.51,3.13,3.13,0,0,0,.74,1.13,3.34,3.34,0,0,0,1.13.71,4.29,4.29,0,0,0,1.48.24,3.89,3.89,0,0,0,1.44-.25,3.35,3.35,0,0,0,1.14-.72,3.19,3.19,0,0,0,.75-1.13,3.73,3.73,0,0,0,.28-1.49,4,4,0,0,0-.26-1.4,3.37,3.37,0,0,0-.73-1.15,3.84,3.84,0,0,0-1.14-.78,3.69,3.69,0,0,0-1.48-.29,3.75,3.75,0,0,0-1.43.27,3.1,3.1,0,0,0-1.15.75,3.47,3.47,0,0,0-.75,1.15A3.86,3.86,0,0,0,367.11,603Zm.75-10.85a3.3,3.3,0,0,0,.85,2.22,2.65,2.65,0,0,0,.93.65,2.78,2.78,0,0,0,1.14.24,2.71,2.71,0,0,0,1.14-.24,2.81,2.81,0,0,0,.94-.66,3.63,3.63,0,0,0,.63-1,3.27,3.27,0,0,0,.23-1.22,3.41,3.41,0,0,0-.22-1.24,3,3,0,0,0-.63-1,2.85,2.85,0,0,0-.94-.66,3,3,0,0,0-1.15-.23,2.91,2.91,0,0,0-1.19.24,2.84,2.84,0,0,0-.92.67,2.92,2.92,0,0,0-.6,1A3.51,3.51,0,0,0,367.86,592.12Z"/><path class="cls-1" d="M388.11,598a5.56,5.56,0,0,1-4.21-1.66,6.13,6.13,0,0,1-1.6-4.46A6.74,6.74,0,0,1,384,587a5.93,5.93,0,0,1,4.54-1.8,5.55,5.55,0,0,1,4.24,1.63,6.38,6.38,0,0,1,1.53,4.56,6.65,6.65,0,0,1-1.69,4.8A5.92,5.92,0,0,1,388.11,598ZM406,585.53,390,610h-4.17l15.93-24.5Zm-17.57,2.66c-1.66,0-2.49,1.16-2.49,3.47s.79,3.28,2.37,3.28,2.43-1.14,2.43-3.41S390,588.19,388.43,588.19Zm14.94,22.19a5.6,5.6,0,0,1-4.21-1.66,6.14,6.14,0,0,1-1.6-4.46,6.8,6.8,0,0,1,1.7-4.86,6,6,0,0,1,4.54-1.79,5.53,5.53,0,0,1,4.25,1.61,6.31,6.31,0,0,1,1.52,4.54,6.71,6.71,0,0,1-1.69,4.82A5.9,5.9,0,0,1,403.37,610.38Zm.27-9.76c-1.65,0-2.48,1.15-2.48,3.47s.81,3.28,2.41,3.28S406,606.23,406,604a4.07,4.07,0,0,0-.65-2.46A2,2,0,0,0,403.64,600.62Z"/><path class="cls-1" d="M536.66,295.9v-4.62a10,10,0,0,0,5.35,1.54,5,5,0,0,0,3.34-1,3.41,3.41,0,0,0,1.2-2.76c0-2.42-1.71-3.64-5.14-3.64a39.05,39.05,0,0,0-4.38.29L538,272h13v4.41h-8.86l-.34,4.91c.88-.07,1.64-.11,2.28-.11a8.34,8.34,0,0,1,5.91,2,6.94,6.94,0,0,1,2.14,5.33,7.88,7.88,0,0,1-2.55,6.06A9.82,9.82,0,0,1,542.6,297,14.85,14.85,0,0,1,536.66,295.9Z"/><path class="cls-1" d="M561.71,284.45a5.6,5.6,0,0,1-4.21-1.66,6.14,6.14,0,0,1-1.6-4.46,6.8,6.8,0,0,1,1.7-4.86,6,6,0,0,1,4.54-1.79,5.57,5.57,0,0,1,4.25,1.62,6.47,6.47,0,0,1,1.52,4.57,6.68,6.68,0,0,1-1.69,4.8A6,6,0,0,1,561.71,284.45ZM579.6,272l-16,24.51h-4.17L575.4,272ZM562,274.69c-1.67,0-2.5,1.15-2.5,3.47s.79,3.28,2.38,3.28,2.42-1.14,2.42-3.42S563.57,274.69,562,274.69ZM577,296.87a5.56,5.56,0,0,1-4.21-1.66,6.13,6.13,0,0,1-1.6-4.46,6.78,6.78,0,0,1,1.7-4.85,6,6,0,0,1,4.54-1.79,5.56,5.56,0,0,1,4.25,1.6,6.34,6.34,0,0,1,1.53,4.55,6.75,6.75,0,0,1-1.7,4.82A5.91,5.91,0,0,1,577,296.87Zm.28-9.76c-1.66,0-2.48,1.16-2.48,3.47s.8,3.28,2.41,3.28,2.42-1.14,2.42-3.41A4.05,4.05,0,0,0,579,288,2,2,0,0,0,577.25,287.11Z"/><polyline class="cls-7" points="172.37 236 388.15 236 416.29 264.14"/><g class="cls-3"><path class="cls-1" d="M71.44,314v7.47H69.12V301.66h5.43a7.2,7.2,0,0,1,4.92,1.55,5.51,5.51,0,0,1,1.74,4.35,6,6,0,0,1-1.94,4.61A7.41,7.41,0,0,1,74,314Zm0-10.2v8.1h2.42a5.42,5.42,0,0,0,3.66-1.09,3.88,3.88,0,0,0,1.26-3.1q0-3.92-4.63-3.91Z"/><path class="cls-1" d="M96.15,321.43H93.89v-2.2h-.06a4.72,4.72,0,0,1-4.34,2.53,4.64,4.64,0,0,1-3.3-1.11,3.88,3.88,0,0,1-1.2-3c0-2.64,1.56-4.17,4.66-4.6l4.24-.6c0-2.39-1-3.59-2.91-3.59a7,7,0,0,0-4.61,1.73v-2.31a8.79,8.79,0,0,1,4.8-1.33q5,0,5,5.27Zm-2.26-7.14-3.41.47a5.57,5.57,0,0,0-2.37.78,2.23,2.23,0,0,0-.8,2,2.17,2.17,0,0,0,.74,1.69,2.86,2.86,0,0,0,2,.65,3.62,3.62,0,0,0,2.78-1.18,4.2,4.2,0,0,0,1.1-3Z"/><path class="cls-1" d="M109.18,309.6a2.81,2.81,0,0,0-1.71-.45,2.88,2.88,0,0,0-2.42,1.36,6.3,6.3,0,0,0-1,3.73v7.19h-2.26V307.31h2.26v2.91h0a5,5,0,0,1,1.48-2.32,3.33,3.33,0,0,1,2.22-.83,3.65,3.65,0,0,1,1.35.19Z"/><path class="cls-1" d="M119.59,321.29a4.25,4.25,0,0,1-2.1.45c-2.48,0-3.71-1.38-3.71-4.14v-8.36h-2.43v-1.93h2.43v-3.44l2.26-.73v4.17h3.55v1.93H116v8a3.33,3.33,0,0,0,.48,2,1.93,1.93,0,0,0,1.6.6,2.31,2.31,0,0,0,1.47-.47Z"/><path class="cls-1" d="M135.74,321.43h-2.26v-8.05c0-3-1.09-4.49-3.28-4.49a3.54,3.54,0,0,0-2.8,1.27,4.69,4.69,0,0,0-1.11,3.22v8.05H124V307.31h2.27v2.35h0A5.11,5.11,0,0,1,131,307a4.32,4.32,0,0,1,3.55,1.5,6.72,6.72,0,0,1,1.22,4.32Z"/><path class="cls-1" d="M152.76,314.94h-10a5.3,5.3,0,0,0,1.27,3.64,4.39,4.39,0,0,0,3.34,1.28,6.91,6.91,0,0,0,4.38-1.57v2.12a8.19,8.19,0,0,1-4.92,1.35,6,6,0,0,1-4.7-1.92,7.87,7.87,0,0,1-1.71-5.41,7.69,7.69,0,0,1,1.87-5.37A6,6,0,0,1,147,307a5.29,5.29,0,0,1,4.28,1.8,7.46,7.46,0,0,1,1.52,5ZM150.44,313a4.58,4.58,0,0,0-.94-3,3.21,3.21,0,0,0-2.59-1.09A3.65,3.65,0,0,0,144.2,310a5.12,5.12,0,0,0-1.38,3Z"/><path class="cls-1" d="M165,309.6a2.77,2.77,0,0,0-1.71-.45,2.89,2.89,0,0,0-2.42,1.36,6.38,6.38,0,0,0-1,3.73v7.19h-2.26V307.31h2.26v2.91h.06a5,5,0,0,1,1.47-2.32,3.33,3.33,0,0,1,2.22-.83,3.65,3.65,0,0,1,1.35.19Z"/><path class="cls-1" d="M168,320.92V318.5a6.69,6.69,0,0,0,4.07,1.36c2,0,3-.66,3-2a1.72,1.72,0,0,0-.26-1,2.42,2.42,0,0,0-.69-.7,5.41,5.41,0,0,0-1-.54l-1.26-.51a15.13,15.13,0,0,1-1.64-.75,5,5,0,0,1-1.19-.85,3.14,3.14,0,0,1-.72-1.09,3.8,3.8,0,0,1-.24-1.42,3.29,3.29,0,0,1,.46-1.75,4,4,0,0,1,1.21-1.29,5.56,5.56,0,0,1,1.73-.77,7.5,7.5,0,0,1,2-.27,8.17,8.17,0,0,1,3.28.64v2.29a6.42,6.42,0,0,0-3.59-1A4,4,0,0,0,172,309a2.86,2.86,0,0,0-.88.41,1.83,1.83,0,0,0-.56.62,1.62,1.62,0,0,0-.2.81,1.88,1.88,0,0,0,.2.93,2.23,2.23,0,0,0,.58.66,4.84,4.84,0,0,0,.94.52q.56.24,1.26.51c.62.24,1.18.49,1.68.74a6.11,6.11,0,0,1,1.27.85,3.57,3.57,0,0,1,.8,1.1,3.9,3.9,0,0,1-.18,3.29,3.89,3.89,0,0,1-1.23,1.29,5.59,5.59,0,0,1-1.78.75,8.53,8.53,0,0,1-2.11.25A8,8,0,0,1,168,320.92Z"/><path class="cls-1" d="M193.93,321.43h-2.26V313.3c0-2.94-1.1-4.41-3.28-4.41a3.58,3.58,0,0,0-2.79,1.27,4.77,4.77,0,0,0-1.13,3.28v8h-2.26v-20.9h2.26v9.13h.06a5.13,5.13,0,0,1,4.63-2.68q4.77,0,4.77,5.75Z"/><path class="cls-1" d="M200.76,303.73a1.47,1.47,0,0,1-1-.41,1.42,1.42,0,0,1-.42-1.05,1.48,1.48,0,0,1,2.51-1.06,1.43,1.43,0,0,1,.44,1.06,1.39,1.39,0,0,1-.44,1A1.43,1.43,0,0,1,200.76,303.73Zm1.1,17.7H199.6V307.31h2.26Z"/><path class="cls-1" d="M210.17,319.39h-.06v8.54h-2.26V307.31h2.26v2.49h.06a5.33,5.33,0,0,1,4.88-2.82,5.18,5.18,0,0,1,4.26,1.9,7.85,7.85,0,0,1,1.53,5.08,8.74,8.74,0,0,1-1.73,5.67,5.74,5.74,0,0,1-4.71,2.13A4.72,4.72,0,0,1,210.17,319.39Zm-.06-5.69v2a4.18,4.18,0,0,0,1.14,3,4.06,4.06,0,0,0,6.11-.35,7.27,7.27,0,0,0,1.16-4.37,5.7,5.7,0,0,0-1.09-3.7,3.61,3.61,0,0,0-3-1.33,4,4,0,0,0-3.17,1.37A5,5,0,0,0,210.11,313.7Z"/><path class="cls-1" d="M252.64,321.75a4.19,4.19,0,0,1-1.39-.21,4.29,4.29,0,0,1-1.11-.61,5.89,5.89,0,0,1-1-1c-.32-.38-.65-.8-1-1.28a10.26,10.26,0,0,1-1.28,1.14,9.12,9.12,0,0,1-1.6,1,9.66,9.66,0,0,1-4.21.94,9.44,9.44,0,0,1-2.73-.37,6.09,6.09,0,0,1-2.12-1.1,4.9,4.9,0,0,1-1.37-1.78,5.76,5.76,0,0,1-.49-2.45,5.58,5.58,0,0,1,1.2-3.6A8.7,8.7,0,0,1,239,310a7.48,7.48,0,0,1-.83-.71,5.62,5.62,0,0,1-.74-.92,5.24,5.24,0,0,1-.52-1.15,4.9,4.9,0,0,1,.19-3.3,4.25,4.25,0,0,1,1.09-1.42,4.76,4.76,0,0,1,1.62-.87,6.64,6.64,0,0,1,2-.3,6.11,6.11,0,0,1,2,.3,4.37,4.37,0,0,1,1.53.85,3.73,3.73,0,0,1,1,1.32,4.42,4.42,0,0,1-.58,4.47,7.31,7.31,0,0,1-2.84,1.87,8.34,8.34,0,0,1,1.73.91,10.24,10.24,0,0,1,1.42,1.2,12.69,12.69,0,0,1,1.22,1.42c.38.51.75,1,1.12,1.57a11.78,11.78,0,0,0,1.68-3.43,13.44,13.44,0,0,0,.57-3.93,7.74,7.74,0,0,0-.06-1c0-.3-.1-.61-.18-.91h2.2a5.61,5.61,0,0,1,.13.86c0,.27,0,.59.05,1a12,12,0,0,1-.27,2.52,17,17,0,0,1-.7,2.47,16.58,16.58,0,0,1-1,2.26,17.5,17.5,0,0,1-1.23,2c.32.44.61.83.88,1.15a6.42,6.42,0,0,0,.81.83,3,3,0,0,0,2.66.53,8.88,8.88,0,0,0,.89-.27v2.09a5.16,5.16,0,0,1-1,.29A5.69,5.69,0,0,1,252.64,321.75Zm-11.57-2a7.35,7.35,0,0,0,1.93-.23,8.07,8.07,0,0,0,1.63-.6,7.88,7.88,0,0,0,1.35-.89,10,10,0,0,0,1.1-1.05c-.56-.87-1.08-1.62-1.55-2.24a12.84,12.84,0,0,0-1.43-1.61,8.88,8.88,0,0,0-1.55-1.15,12.35,12.35,0,0,0-1.89-.9,11.3,11.3,0,0,0-1.6.77,5.21,5.21,0,0,0-1.26,1,4.07,4.07,0,0,0-.84,1.33,4.81,4.81,0,0,0-.3,1.78,3.77,3.77,0,0,0,.34,1.65,3.28,3.28,0,0,0,.95,1.19,4.13,4.13,0,0,0,1.4.72A6,6,0,0,0,241.07,319.79Zm3.45-14.07a2.43,2.43,0,0,0-.91-2,2.6,2.6,0,0,0-.87-.46,3.52,3.52,0,0,0-1-.14,3.09,3.09,0,0,0-2.16.73,2.58,2.58,0,0,0-.82,2,3.43,3.43,0,0,0,.17,1.07,3.9,3.9,0,0,0,1.21,1.68,4.84,4.84,0,0,0,.88.56,7.14,7.14,0,0,0,2.59-1.41A2.69,2.69,0,0,0,244.52,305.72Z"/><path class="cls-1" d="M82.57,352.87A11.6,11.6,0,0,1,77.12,354a8.77,8.77,0,0,1-6.76-2.72,10,10,0,0,1-2.54-7.12,10.49,10.49,0,0,1,2.86-7.67,9.66,9.66,0,0,1,7.23-2.92,11.63,11.63,0,0,1,4.66.81v2.47a9.41,9.41,0,0,0-4.68-1.19A7.18,7.18,0,0,0,72.37,338a8.58,8.58,0,0,0-2.12,6.08,8.12,8.12,0,0,0,2,5.75A6.74,6.74,0,0,0,77.42,352a9.74,9.74,0,0,0,5.15-1.32Z"/><path class="cls-1" d="M93.61,354a6.55,6.55,0,0,1-5-2,7.35,7.35,0,0,1-1.87-5.24,7.61,7.61,0,0,1,2-5.56,7,7,0,0,1,5.25-2,6.33,6.33,0,0,1,4.93,1.95,7.7,7.7,0,0,1,1.77,5.39A7.6,7.6,0,0,1,98.73,352,6.7,6.7,0,0,1,93.61,354Zm.16-12.88a4.28,4.28,0,0,0-3.44,1.49,6,6,0,0,0-1.27,4.08,5.77,5.77,0,0,0,1.28,4,4.35,4.35,0,0,0,3.43,1.45,4.17,4.17,0,0,0,3.38-1.42,6.21,6.21,0,0,0,1.17-4,6.28,6.28,0,0,0-1.17-4.08A4.12,4.12,0,0,0,93.77,341.15Z"/><path class="cls-1" d="M107.92,353.7h-2.26V332.8h2.26Z"/><path class="cls-1" d="M116.17,353.7h-2.26V332.8h2.26Z"/><path class="cls-1" d="M132.27,353.7H130v-2.21H130a4.73,4.73,0,0,1-4.34,2.54,4.6,4.6,0,0,1-3.3-1.12,3.84,3.84,0,0,1-1.19-3c0-2.64,1.55-4.17,4.66-4.61l4.23-.59q0-3.6-2.91-3.6a7,7,0,0,0-4.61,1.74v-2.32a8.78,8.78,0,0,1,4.8-1.32q5,0,5,5.27ZM130,346.56l-3.41.47a5.3,5.3,0,0,0-2.37.78,2.24,2.24,0,0,0-.8,2,2.15,2.15,0,0,0,.74,1.69,2.83,2.83,0,0,0,2,.66,3.66,3.66,0,0,0,2.78-1.18,4.23,4.23,0,0,0,1.1-3Z"/><path class="cls-1" d="M140.26,351.66h-.06v2h-2.26V332.8h2.26v9.26h.06a5.34,5.34,0,0,1,4.88-2.81,5.16,5.16,0,0,1,4.25,1.9,7.83,7.83,0,0,1,1.54,5.08,8.74,8.74,0,0,1-1.73,5.67,5.74,5.74,0,0,1-4.71,2.13A4.63,4.63,0,0,1,140.26,351.66ZM140.2,346v2a4.21,4.21,0,0,0,1.14,3,4.06,4.06,0,0,0,6.11-.35,7.27,7.27,0,0,0,1.16-4.37,5.67,5.67,0,0,0-1.09-3.7,3.6,3.6,0,0,0-3-1.34,4,4,0,0,0-3.17,1.38A5,5,0,0,0,140.2,346Z"/><path class="cls-1" d="M161.85,354a6.55,6.55,0,0,1-5-2,7.35,7.35,0,0,1-1.86-5.24,7.61,7.61,0,0,1,1.94-5.56,7,7,0,0,1,5.25-2,6.32,6.32,0,0,1,4.93,1.95,7.7,7.7,0,0,1,1.77,5.39A7.6,7.6,0,0,1,167,352,6.7,6.7,0,0,1,161.85,354Zm.17-12.88a4.29,4.29,0,0,0-3.45,1.49,6,6,0,0,0-1.27,4.08,5.77,5.77,0,0,0,1.28,4,4.36,4.36,0,0,0,3.44,1.45,4.16,4.16,0,0,0,3.37-1.42,6.21,6.21,0,0,0,1.18-4,6.28,6.28,0,0,0-1.18-4.08A4.11,4.11,0,0,0,162,341.15Z"/><path class="cls-1" d="M181.27,341.87a2.81,2.81,0,0,0-1.71-.45,2.88,2.88,0,0,0-2.42,1.36,6.29,6.29,0,0,0-1,3.72v7.2H173.9V339.58h2.27v2.91h.05a4.84,4.84,0,0,1,1.48-2.32,3.34,3.34,0,0,1,2.22-.84,3.69,3.69,0,0,1,1.35.2Z"/><path class="cls-1" d="M195.24,353.7H193v-2.21h-.06a4.73,4.73,0,0,1-4.34,2.54,4.6,4.6,0,0,1-3.3-1.12,3.84,3.84,0,0,1-1.2-3c0-2.64,1.56-4.17,4.66-4.61l4.24-.59q0-3.6-2.91-3.6a7,7,0,0,0-4.61,1.74v-2.32a8.78,8.78,0,0,1,4.8-1.32q5,0,5,5.27ZM193,346.56l-3.41.47a5.3,5.3,0,0,0-2.37.78,2.24,2.24,0,0,0-.8,2,2.15,2.15,0,0,0,.74,1.69,2.83,2.83,0,0,0,2,.66,3.64,3.64,0,0,0,2.78-1.18,4.23,4.23,0,0,0,1.1-3Z"/><path class="cls-1" d="M207.46,353.56a4.3,4.3,0,0,1-2.11.44q-3.71,0-3.71-4.13v-8.36h-2.43v-1.93h2.43v-3.44l2.26-.74v4.18h3.56v1.93H203.9v8a3.29,3.29,0,0,0,.48,2,1.93,1.93,0,0,0,1.6.61,2.4,2.4,0,0,0,1.48-.47Z"/><path class="cls-1" d="M213.05,336a1.43,1.43,0,0,1-1-.42,1.39,1.39,0,0,1-.42-1,1.44,1.44,0,0,1,1.46-1.48,1.46,1.46,0,0,1,1,.42,1.41,1.41,0,0,1,.44,1.06,1.39,1.39,0,0,1-.44,1A1.43,1.43,0,0,1,213.05,336Zm1.1,17.7h-2.26V339.58h2.26Z"/><path class="cls-1" d="M226,354a6.55,6.55,0,0,1-5-2,7.35,7.35,0,0,1-1.87-5.24,7.61,7.61,0,0,1,2-5.56,7,7,0,0,1,5.25-2,6.32,6.32,0,0,1,4.93,1.95,7.7,7.7,0,0,1,1.77,5.39,7.6,7.6,0,0,1-1.91,5.41A6.7,6.7,0,0,1,226,354Zm.16-12.88a4.28,4.28,0,0,0-3.44,1.49,6,6,0,0,0-1.27,4.08,5.77,5.77,0,0,0,1.28,4,4.35,4.35,0,0,0,3.43,1.45,4.13,4.13,0,0,0,3.37-1.42,6.16,6.16,0,0,0,1.18-4,6.22,6.22,0,0,0-1.18-4.08A4.09,4.09,0,0,0,226.2,341.15Z"/><path class="cls-1" d="M249.81,353.7h-2.26v-8.05q0-4.5-3.28-4.5a3.57,3.57,0,0,0-2.81,1.28,4.77,4.77,0,0,0-1.11,3.22v8.05h-2.26V339.58h2.26v2.35h.06a5.09,5.09,0,0,1,4.63-2.68,4.29,4.29,0,0,1,3.54,1.5,6.62,6.62,0,0,1,1.23,4.32Z"/></g><polyline class="cls-8" points="66.53 367.03 282.31 367.03 310.44 395.16"/><polyline class="cls-9" points="53.12 661.13 268.9 661.13 297.04 632.99"/><g class="cls-3"><path class="cls-1" d="M1071.58,746.61h-5.71v17.68h-2.32V746.61h-5.69v-2.09h13.72Z"/><path class="cls-1" d="M1081.69,764.62a6.55,6.55,0,0,1-5-2,7.36,7.36,0,0,1-1.87-5.25,7.6,7.6,0,0,1,2-5.55,7,7,0,0,1,5.25-2,6.36,6.36,0,0,1,4.93,1.94,7.73,7.73,0,0,1,1.77,5.39,7.61,7.61,0,0,1-1.91,5.42A6.7,6.7,0,0,1,1081.69,764.62Zm.17-12.88a4.31,4.31,0,0,0-3.45,1.48,6.07,6.07,0,0,0-1.27,4.09,5.8,5.8,0,0,0,1.28,4,4.39,4.39,0,0,0,3.44,1.45,4.16,4.16,0,0,0,3.37-1.42,6.21,6.21,0,0,0,1.17-4,6.28,6.28,0,0,0-1.17-4.08A4.11,4.11,0,0,0,1081.86,751.74Z"/><path class="cls-1" d="M1105.46,764.29h-3.17l-6.23-6.79H1096v6.79h-2.26v-20.9H1096v13.25h.06l5.93-6.47h3L1098.4,757Z"/><path class="cls-1" d="M1120.54,757.8h-10a5.26,5.26,0,0,0,1.27,3.63,4.35,4.35,0,0,0,3.33,1.29,7,7,0,0,0,4.39-1.58v2.13a8.19,8.19,0,0,1-4.92,1.35,6,6,0,0,1-4.71-1.92,7.9,7.9,0,0,1-1.71-5.42,7.77,7.77,0,0,1,1.87-5.37,6,6,0,0,1,4.64-2.07,5.32,5.32,0,0,1,4.29,1.79,7.5,7.5,0,0,1,1.52,5Zm-2.32-1.92a4.61,4.61,0,0,0-.94-3,3.27,3.27,0,0,0-2.59-1.09,3.64,3.64,0,0,0-2.72,1.15,5.18,5.18,0,0,0-1.37,3Z"/><path class="cls-1" d="M1137.08,764.29h-2.26v-8q0-4.5-3.28-4.5a3.55,3.55,0,0,0-2.8,1.28,4.72,4.72,0,0,0-1.11,3.22v8h-2.27V750.17h2.27v2.34h0a5.1,5.1,0,0,1,4.63-2.67,4.32,4.32,0,0,1,3.55,1.5,6.68,6.68,0,0,1,1.22,4.32Z"/><path class="cls-1" d="M1151.05,763.78v-2.43a6.67,6.67,0,0,0,4.06,1.37c2,0,3-.67,3-2a1.74,1.74,0,0,0-.25-1,2.51,2.51,0,0,0-.69-.69,5.42,5.42,0,0,0-1-.55l-1.26-.5a16.49,16.49,0,0,1-1.65-.75,5,5,0,0,1-1.19-.86,3.22,3.22,0,0,1-.71-1.08,3.83,3.83,0,0,1-.25-1.42,3.42,3.42,0,0,1,.46-1.76,4,4,0,0,1,1.21-1.28,6.06,6.06,0,0,1,1.73-.78,7.91,7.91,0,0,1,2-.26,8.13,8.13,0,0,1,3.28.63v2.29a6.39,6.39,0,0,0-3.58-1,4.06,4.06,0,0,0-1.15.15,2.69,2.69,0,0,0-.87.4,1.88,1.88,0,0,0-.57.63,1.68,1.68,0,0,0-.2.81,2,2,0,0,0,.2.92,1.93,1.93,0,0,0,.59.66,4.29,4.29,0,0,0,.93.53l1.26.51c.62.24,1.18.48,1.68.73a5.88,5.88,0,0,1,1.27.86,3.34,3.34,0,0,1,.81,1.1,3.64,3.64,0,0,1,.28,1.47,3.56,3.56,0,0,1-.46,1.82,3.89,3.89,0,0,1-1.24,1.28,5.41,5.41,0,0,1-1.78.76,8.53,8.53,0,0,1-2.11.25A8,8,0,0,1,1151.05,763.78Z"/><path class="cls-1" d="M1175.4,764.29h-2.26v-2.21h-.06a4.73,4.73,0,0,1-4.34,2.54,4.6,4.6,0,0,1-3.3-1.12,3.84,3.84,0,0,1-1.19-3c0-2.64,1.55-4.17,4.66-4.61l4.23-.59q0-3.6-2.91-3.6a7,7,0,0,0-4.61,1.74v-2.32a8.78,8.78,0,0,1,4.8-1.32q5,0,5,5.27Zm-2.26-7.14-3.41.47a5.54,5.54,0,0,0-2.37.77,2.28,2.28,0,0,0-.8,2,2.15,2.15,0,0,0,.74,1.69,2.83,2.83,0,0,0,2,.66,3.64,3.64,0,0,0,2.78-1.18,4.23,4.23,0,0,0,1.1-3Z"/><path class="cls-1" d="M1183.33,764.29h-2.26v-20.9h2.26Z"/><path class="cls-1" d="M1200.67,757.8h-10a5.26,5.26,0,0,0,1.27,3.63,4.35,4.35,0,0,0,3.33,1.29,6.94,6.94,0,0,0,4.39-1.58v2.13a8.19,8.19,0,0,1-4.92,1.35,6,6,0,0,1-4.7-1.92,7.9,7.9,0,0,1-1.71-5.42,7.76,7.76,0,0,1,1.86-5.37,6,6,0,0,1,4.64-2.07,5.32,5.32,0,0,1,4.29,1.79,7.5,7.5,0,0,1,1.52,5Zm-2.32-1.92a4.61,4.61,0,0,0-.94-3,3.25,3.25,0,0,0-2.59-1.09,3.61,3.61,0,0,0-2.71,1.15,5.12,5.12,0,0,0-1.38,3Z"/></g><polyline class="cls-10" points="1199.64 726.17 903.81 726.17 875.67 698.03"/><polyline class="cls-11" points="758.07 182.51 582.31 182.51 554.18 210.65"/></svg>