<svg id="Layer_1" data-name="Layer 1" xmlns="http://www.w3.org/2000/svg" xmlns:xlink="http://www.w3.org/1999/xlink" viewBox="0 0 75.56 94.81"><defs><style>.cls-1{fill:url(#New_Gradient_Swatch_1);}</style><linearGradient id="New_Gradient_Swatch_1" x1="6.89" y1="47.29" x2="68.22" y2="47.29" gradientUnits="userSpaceOnUse"><stop offset="0" stop-color="#9f2e95"/><stop offset="0.33" stop-color="#8b2cc7"/><stop offset="0.66" stop-color="#5951f1"/><stop offset="1" stop-color="#1daef4"/></linearGradient></defs><path class="cls-1" d="M67.13,84.89H10a1,1,0,0,1-1-1V10.73a1,1,0,0,1,1-1H43.61a1,1,0,0,1,1,1V31.38a1,1,0,0,0,1,1.05H65.09a1,1,0,0,1,1,1V85.93a1,1,0,0,0,1.05,1h0a1,1,0,0,0,1-1V31.19a2.94,2.94,0,0,0-.84-2.06L47.14,8.44a2.74,2.74,0,0,0-2-.84H7.93a1,1,0,0,0-1,1V85.93a1,1,0,0,0,1,1h59.2a1,1,0,0,0,1-1h0A1,1,0,0,0,67.13,84.89ZM47,11.23l18.4,18.83a.16.16,0,0,1-.12.28H47.79a1,1,0,0,1-1-1v-18A.13.13,0,0,1,47,11.23ZM18.53,49.09H52a1,1,0,0,1,1.05,1h0a1,1,0,0,1-1.05,1H18.53a1,1,0,0,1-1-1h0A1,1,0,0,1,18.53,49.09Zm0,13.57H37.37a1,1,0,0,1,1.05,1.05h0a1,1,0,0,1-1.05,1H18.53a1,1,0,0,1-1-1h0A1,1,0,0,1,18.53,62.66Z"/></svg>