<?xml version="1.0" encoding="utf-8"?>
<!-- Generator: Adobe Illustrator 25.2.0, SVG Export Plug-In . SVG Version: 6.00 Build 0)  -->
<svg version="1.1" id="Layer_1" xmlns="http://www.w3.org/2000/svg" xmlns:xlink="http://www.w3.org/1999/xlink" x="0px" y="0px"
	 viewBox="0 0 671.5 367.5" style="enable-background:new 0 0 671.5 367.5;" xml:space="preserve">
<style type="text/css">
	.st0{fill:#030347;}
	.st1{fill:url(#SVGID_1_);}
	.st2{clip-path:url(#SVGID_3_);}
	.st3{fill:url(#SVGID_4_);}
	.st4{fill:#FFFFFF;}
	.st5{opacity:0.7;}
	.st6{fill:url(#SVGID_5_);}
	.st7{fill:url(#SVGID_6_);}
	.st8{fill:url(#SVGID_7_);}
	.st9{fill:url(#SVGID_8_);}
	.st10{fill:url(#SVGID_9_);}
	.st11{fill:none;}
	.st12{fill:url(#SVGID_10_);}
	.st13{clip-path:url(#SVGID_12_);fill:url(#SVGID_13_);}
	.st14{fill:url(#SVGID_14_);}
	.st15{fill:url(#SVGID_15_);}
	.st16{fill:url(#SVGID_16_);}
	.st17{fill:url(#SVGID_17_);}
	.st18{fill:url(#SVGID_18_);}
</style>
<g>
	<g id="Layer_1_1_">
		<path class="st0" d="M16.3,16.5H651c2.9,0,5.3,5.5,5.3,12.3v312.3c0,6.8-2.4,12.3-5.3,12.3H16.3c-2.9,0-5.3-5.5-5.3-12.3V28.8
			C11,22,13.4,16.5,16.3,16.5z"/>
		
			<linearGradient id="SVGID_1_" gradientUnits="userSpaceOnUse" x1="29.0327" y1="3031.1401" x2="638.4327" y2="3031.1401" gradientTransform="matrix(1 0 0 1 0 -2939.8218)">
			<stop  offset="0" style="stop-color:#9F2E95"/>
			<stop  offset="0.33" style="stop-color:#8B2CC7"/>
			<stop  offset="0.66" style="stop-color:#5951F1"/>
			<stop  offset="1" style="stop-color:#1DAEF4"/>
		</linearGradient>
		<rect x="29" y="91.1" class="st1" width="609.4" height="0.5"/>
		<g>
			<g>
				<g>
					<defs>
						<path id="SVGID_2_" d="M28.8,65c-0.5,0.1-1-0.3-1.1-0.8c-0.1-0.5,0.3-1,0.8-1.1c0.1,0,0.2,0,0.3,0h1.6c-0.4-2-0.4-4-0.1-6
							h-1.5c-0.5,0.1-1-0.3-1.1-0.8s0.3-1,0.8-1.1c0.1,0,0.2,0,0.3,0h1.8c2.5-10.2,12.8-16.4,23-13.9s16.4,12.8,13.9,23
							s-12.8,16.5-23,14c-6.6-1.6-11.9-6.7-13.8-13.2L28.8,65L28.8,65z M41.2,46.3c0.3-0.2,0.6-0.1,0.8,0.2s0.1,0.6-0.2,0.8
							s-0.6,0.1-0.8-0.2C40.9,46.8,40.9,46.4,41.2,46.3L41.2,46.3z M33.4,59.8c0-0.3,0.3-0.6,0.6-0.6s0.6,0.3,0.6,0.6
							s-0.3,0.6-0.6,0.6l0,0C33.7,60.4,33.4,60.1,33.4,59.8L33.4,59.8z M41.2,73.4c-0.3-0.2-0.4-0.5-0.2-0.8s0.5-0.4,0.8-0.2
							c0.3,0.2,0.4,0.5,0.2,0.8l0,0C41.8,73.4,41.5,73.5,41.2,73.4L41.2,73.4z M56.9,73.4c-0.3,0.2-0.6,0.1-0.8-0.2
							c-0.2-0.3-0.1-0.6,0.2-0.8s0.6-0.1,0.8,0.2l0,0C57.2,72.8,57.1,73.2,56.9,73.4C56.9,73.3,56.9,73.3,56.9,73.4z M64.7,59.8
							c0,0.3-0.3,0.6-0.6,0.6c-0.3,0-0.6-0.3-0.6-0.6s0.3-0.6,0.6-0.6l0,0C64.4,59.2,64.7,59.5,64.7,59.8z M56.9,46.3
							c0.3,0.2,0.4,0.5,0.2,0.8s-0.5,0.4-0.8,0.2s-0.4-0.5-0.2-0.8C56.2,46.2,56.6,46.1,56.9,46.3L56.9,46.3z M49.9,52.6
							c1.6,0.2,3.1,0.9,4.2,2.1c0.2,0.2,0.5,0.5,0.7,0.8l3.9-2.2c0.4-0.3,0.9-0.2,1.2,0.2c0.3,0.4,0.2,0.9-0.2,1.2h-0.1L55.7,57
							c0.8,1.8,0.8,3.9,0,5.7l3.9,2.2c0.4,0.2,0.6,0.8,0.3,1.2c-0.2,0.4-0.8,0.6-1.2,0.3l-3.9-2.2c-0.2,0.3-0.4,0.5-0.7,0.8
							c-1.1,1.1-2.6,1.9-4.2,2.1v4.5c0,0.5-0.5,0.8-0.9,0.8s-0.8-0.4-0.8-0.8v-4.5c-1.6-0.2-3.1-0.9-4.2-2.1
							c-0.2-0.2-0.5-0.5-0.7-0.8l-3.9,2.2c-0.4,0.3-0.9,0.1-1.2-0.3c-0.3-0.4-0.1-0.9,0.3-1.2l0,0l3.9-2.2c-0.8-1.8-0.8-3.9,0-5.7
							l-3.9-2.2c-0.4-0.2-0.6-0.8-0.3-1.2c0.2-0.4,0.8-0.6,1.2-0.3l0,0l3.9,2.2c0.2-0.3,0.4-0.5,0.7-0.8c1.1-1.1,2.6-1.9,4.2-2.1
							v-4.4c0-0.5,0.3-0.9,0.8-0.9s0.9,0.3,0.9,0.8v0.1L49.9,52.6L49.9,52.6z M51.6,57c-0.3,0-0.6,0.3-0.6,0.6l0,0
							c0,0.2,0.1,0.3,0.2,0.4l-1.3,2c-0.2-0.1-0.5,0-0.6,0.1l-0.8-0.5v-0.1c0-0.3-0.3-0.6-0.6-0.6l0,0c-0.3,0-0.6,0.3-0.6,0.6
							c0,0.2,0.1,0.3,0.2,0.4l-0.7,1.4h-0.1c-0.4,0-0.6,0.3-0.6,0.6c0,0.4,0.3,0.6,0.6,0.6s0.6-0.3,0.6-0.6l0,0
							c0-0.2-0.1-0.3-0.2-0.5l0.7-1.4h0.1c0.2,0,0.3-0.1,0.4-0.2l0.8,0.5c0,0.1,0,0.1,0,0.2c0,0.3,0.3,0.6,0.6,0.6s0.6-0.3,0.6-0.6
							c0-0.1,0-0.3-0.1-0.4l1.3-2c0.3,0.1,0.7-0.1,0.8-0.4c0.1-0.3-0.1-0.7-0.4-0.8C51.7,57,51.7,57,51.6,57 M52.9,55.9
							c-2.1-2.1-5.6-2.1-7.7,0c-2.1,2.1-2.1,5.6,0,7.7s5.6,2.1,7.7,0c1-1,1.6-2.4,1.6-3.9C54.5,58.3,54,56.9,52.9,55.9z M32.2,63.1
							h1.6c0.5-0.1,1,0.3,1.1,0.8s-0.3,1-0.8,1.1c-0.1,0-0.2,0-0.3,0h-1.1c2.9,9,12.5,14,21.5,11.1s14-12.5,11.1-21.5
							s-12.5-14-21.5-11.1c-5.5,1.8-9.8,6.2-11.3,11.8h1.3c0.5,0.1,0.9,0.6,0.8,1.1c-0.1,0.4-0.4,0.7-0.8,0.8h-1.7
							c-0.1,0.9-0.2,1.8-0.2,2.6C31.9,60.9,32,62,32.2,63.1L32.2,63.1z"/>
					</defs>
					<clipPath id="SVGID_3_">
						<use xlink:href="#SVGID_2_"  style="overflow:visible;"/>
					</clipPath>
					<g class="st2">
						
							<linearGradient id="SVGID_4_" gradientUnits="userSpaceOnUse" x1="68.1099" y1="2980.1965" x2="27.9175" y2="3019.1204" gradientTransform="matrix(1 0 0 1 0 -2939.8218)">
							<stop  offset="0" style="stop-color:#9F2E95"/>
							<stop  offset="0.33" style="stop-color:#8B2CC7"/>
							<stop  offset="0.66" style="stop-color:#5951F1"/>
							<stop  offset="1" style="stop-color:#1DAEF4"/>
						</linearGradient>
						<rect x="27.6" y="40.5" class="st3" width="40.8" height="38.7"/>
					</g>
				</g>
			</g>
			<path class="st4" d="M91.1,56h-3.8v10.9h-3V56h-3.8v-2.4h10.6L91.1,56z"/>
			<path class="st4" d="M95.4,67.1c-1.4,0.1-2.7-0.4-3.7-1.3c-1.8-2.1-1.8-5.2,0.1-7.3c1-0.9,2.4-1.4,3.8-1.3
				c1.4-0.1,2.7,0.4,3.7,1.3c0.9,0.9,1.4,2.2,1.3,3.5c0.1,1.4-0.4,2.7-1.4,3.7C98.2,66.6,96.8,67.1,95.4,67.1z M95.5,59.3
				c-0.6,0-1.2,0.2-1.6,0.7c-0.4,0.6-0.6,1.3-0.6,2c0,1.8,0.7,2.7,2.2,2.7c1.4,0,2.1-0.9,2.1-2.8C97.6,60.2,96.9,59.3,95.5,59.3z"/>
			<path class="st4" d="M112.1,66.8h-3.5l-3-4.7l0,0v4.7h-2.9v-14h2.9v9l0,0l2.9-4.4h3.5l-3.4,4.5L112.1,66.8z"/>
			<path class="st4" d="M121.4,62.9h-6.2c0.1,1.4,1,2.1,2.6,2.1c1,0,1.9-0.2,2.8-0.7v2.1c-1.1,0.5-2.2,0.8-3.4,0.7
				c-1.5,0-2.7-0.4-3.6-1.3c-0.9-1-1.4-2.2-1.3-3.6c-0.1-1.4,0.4-2.7,1.4-3.7c0.9-0.9,2.1-1.4,3.4-1.4c1.2-0.1,2.4,0.4,3.2,1.2
				c0.8,0.9,1.2,2.1,1.1,3.3V62.9z M118.7,61.1c0-1.4-0.6-2-1.7-2c-0.5,0-0.9,0.2-1.2,0.6c-0.4,0.4-0.6,0.9-0.6,1.5L118.7,61.1
				L118.7,61.1z"/>
			<path class="st4" d="M132.4,66.8h-2.9v-5.3c0-1.5-0.5-2.2-1.6-2.2c-0.5,0-0.9,0.2-1.3,0.6c-0.3,0.4-0.5,0.9-0.5,1.5v5.4h-2.9
				v-9.5h2.9v1.5l0,0c0.6-1.1,1.8-1.8,3.1-1.7c2.1,0,3.2,1.3,3.2,3.9V66.8z"/>
			<path class="st4" d="M141.4,55.8c-0.4,0-0.9-0.1-1.2-0.4c-0.3-0.3-0.5-0.7-0.5-1.1c0-0.4,0.2-0.8,0.5-1.1c0.7-0.6,1.7-0.6,2.4,0
				c0.3,0.3,0.5,0.7,0.5,1.1c0,0.4-0.2,0.8-0.5,1.1C142.3,55.7,141.9,55.8,141.4,55.8z M142.9,66.8H140v-9.5h2.9V66.8z"/>
			<path class="st4" d="M154.5,66.8h-2.9v-5.3c0-1.5-0.5-2.2-1.6-2.2c-0.5,0-0.9,0.2-1.3,0.6c-0.3,0.4-0.5,0.9-0.5,1.5v5.4h-2.9
				v-9.5h2.9v1.5l0,0c0.6-1.1,1.8-1.8,3.1-1.7c2.1,0,3.2,1.3,3.2,3.9V66.8z"/>
			<path class="st4" d="M163,55c-0.3-0.1-0.7-0.2-1.1-0.2c-1,0-1.4,0.5-1.4,1.5v1h2.2v2.2h-2.2v7.3h-2.9v-7.3H156v-2.2h1.6v-1.1
				c0-1,0.4-1.9,1.1-2.6c0.8-0.7,1.8-1,2.9-1c0.5,0,1,0.1,1.5,0.2L163,55z"/>
			<path class="st4" d="M168.7,67.1c-1.4,0.1-2.7-0.4-3.8-1.3c-1.8-2.1-1.8-5.2,0-7.3c1-0.9,2.4-1.4,3.8-1.3
				c1.4-0.1,2.7,0.4,3.7,1.3c0.9,0.9,1.4,2.2,1.3,3.5c0.1,1.4-0.4,2.7-1.4,3.7C171.4,66.6,170,67.1,168.7,67.1z M168.7,59.3
				c-0.6,0-1.2,0.2-1.6,0.7c-0.4,0.6-0.6,1.3-0.6,2c0,1.8,0.7,2.7,2.2,2.7c1.4,0,2.1-0.9,2.1-2.8C170.8,60.2,170.1,59.3,168.7,59.3
				L168.7,59.3z"/>
		</g>
		<g>
			<g class="st5">
				<path class="st4" d="M68.2,173.5V164h2.7c0.7,0,1.4,0.2,2,0.6c0.5,0.4,0.7,1,0.7,1.6c0,0.5-0.1,1-0.4,1.4s-0.7,0.7-1.2,0.8l0,0
					c0.6,0,1.1,0.3,1.5,0.7s0.6,1,0.6,1.6c0,0.8-0.3,1.5-0.9,2s-1.4,0.8-2.2,0.8L68.2,173.5z M69.3,165v3.1h1.1c0.5,0,1-0.1,1.4-0.4
					c0.4-0.3,0.6-0.8,0.5-1.2c0-0.9-0.6-1.4-1.8-1.4L69.3,165z M69.3,169.1v3.4h1.5c0.5,0,1.1-0.1,1.5-0.5c0.4-0.3,0.6-0.8,0.5-1.3
					c0-1.1-0.8-1.7-2.3-1.7L69.3,169.1z"/>
				<path class="st4" d="M81.7,173.5h-5V164h4.8v1h-3.8v3.2h3.4v1h-3.4v3.3h4V173.5z"/>
				<path class="st4" d="M85.3,169.9v3.6h-1.1V164h2.6c0.9-0.1,1.7,0.2,2.4,0.7c0.6,0.5,0.9,1.3,0.8,2.1c0,0.8-0.3,1.7-0.9,2.2
					c-0.7,0.6-1.6,0.9-2.5,0.9H85.3z M85.3,165v3.9h1.2c0.6,0,1.3-0.1,1.8-0.5c0.4-0.4,0.6-0.9,0.6-1.5c0-1.3-0.7-1.9-2.2-1.9H85.3z
					"/>
				<path class="st4" d="M95.8,170.2h-3.6v-0.9h3.6V170.2z"/>
				<path class="st4" d="M102.5,166.5c0-0.3,0-0.5-0.1-0.8c-0.1-0.2-0.2-0.4-0.4-0.5c-0.2-0.1-0.4-0.3-0.6-0.3
					c-0.2-0.1-0.4-0.1-0.7-0.1c-0.2,0-0.4,0-0.6,0.1s-0.4,0.1-0.6,0.2c-0.2,0.1-0.4,0.2-0.6,0.4c-0.2,0.1-0.4,0.3-0.5,0.5v-1.2
					c0.3-0.3,0.6-0.5,1-0.7s0.9-0.3,1.4-0.2c0.4,0,0.7,0.1,1.1,0.2c0.3,0.1,0.6,0.3,0.9,0.5c0.2,0.2,0.4,0.5,0.6,0.8
					c0.1,0.3,0.2,0.7,0.2,1.1c0,0.3,0,0.7-0.1,1s-0.2,0.6-0.4,0.9c-0.2,0.3-0.4,0.5-0.7,0.8c-0.3,0.3-0.6,0.5-0.9,0.8
					c-0.5,0.3-0.8,0.6-1.1,0.8c-0.2,0.2-0.5,0.4-0.7,0.6c-0.2,0.2-0.3,0.4-0.4,0.6c-0.1,0.2-0.1,0.4-0.1,0.7h4.8v1h-5.9v-0.5
					c0-0.4,0-0.7,0.1-1.1c0.1-0.3,0.2-0.6,0.4-0.9c0.2-0.3,0.5-0.6,0.8-0.8c0.3-0.3,0.7-0.6,1.2-0.9c0.3-0.2,0.6-0.5,0.9-0.7
					c0.2-0.2,0.4-0.4,0.6-0.7c0.1-0.2,0.2-0.4,0.3-0.7C102.5,167,102.5,166.7,102.5,166.5z"/>
				<path class="st4" d="M112.1,168.7c0,0.7-0.1,1.4-0.2,2.1c-0.1,0.6-0.3,1.1-0.6,1.6c-0.2,0.4-0.6,0.7-1,1
					c-0.4,0.2-0.9,0.3-1.4,0.3c-0.4,0-0.9-0.1-1.3-0.3s-0.7-0.5-0.9-0.9c-0.3-0.5-0.5-1-0.6-1.5c-0.1-0.7-0.2-1.4-0.2-2
					c0-0.7,0.1-1.5,0.2-2.2c0.1-0.6,0.3-1.1,0.6-1.6c0.2-0.4,0.6-0.7,1-1c0.4-0.2,0.9-0.3,1.4-0.3
					C111.1,163.8,112.1,165.5,112.1,168.7z M111,168.8c0-2.7-0.6-4.1-1.9-4.1c-1.4,0-2,1.4-2,4.1c0,2.6,0.7,3.9,2,3.9
					C110.4,172.7,111,171.4,111,168.8z"/>
			</g>
			<path class="st4" d="M58.4,142.7h-3.3v9.3h-2.6v-9.3h-3.2v-2.1h9.1V142.7z"/>
			<path class="st4" d="M62.1,152.2c-1.2,0.1-2.3-0.3-3.2-1.1c-1.6-1.8-1.6-4.5,0-6.3c0.9-0.8,2.1-1.2,3.3-1.1
				c1.2-0.1,2.3,0.3,3.2,1.1c0.8,0.8,1.2,1.9,1.2,3c0.1,1.2-0.4,2.3-1.2,3.2C64.5,151.8,63.3,152.2,62.1,152.2z M62.2,145.6
				c-0.5,0-1,0.2-1.4,0.6c-0.4,0.5-0.5,1.1-0.5,1.7c0,1.6,0.6,2.4,1.9,2.4s1.9-0.8,1.8-2.4C64,146.3,63.4,145.6,62.2,145.6
				L62.2,145.6z"/>
			<path class="st4" d="M76.4,152h-3l-2.6-4l0,0v4h-2.5v-12.1h2.4v7.7l0,0l2.4-3.8h3l-2.9,3.8L76.4,152z"/>
			<path class="st4" d="M84.4,148.6h-5.3c0.1,1.2,0.8,1.8,2.2,1.8c0.8,0,1.7-0.2,2.4-0.6v1.8c-0.9,0.4-1.9,0.6-2.9,0.6
				c-2.1,0.2-3.9-1.3-4.2-3.4c0-0.3,0-0.5,0-0.8c-0.1-1.2,0.4-2.4,1.2-3.2c0.8-0.8,1.8-1.2,2.9-1.2c1-0.1,2,0.3,2.8,1.1
				c0.7,0.8,1,1.8,1,2.9L84.4,148.6z M82.1,147.1c0-1.2-0.5-1.8-1.4-1.8c-0.4,0-0.8,0.2-1.1,0.5c-0.3,0.4-0.5,0.8-0.5,1.3H82.1z"/>
			<path class="st4" d="M93.8,152h-2.5v-4.5c0-1.3-0.5-1.9-1.4-1.9c-0.4,0-0.8,0.2-1.1,0.5c-0.3,0.4-0.4,0.8-0.4,1.3v4.7h-2.5v-8.2
				h2.5v1.3l0,0c0.5-0.9,1.5-1.5,2.6-1.5c1.8,0,2.7,1.1,2.7,3.4L93.8,152z"/>
			<path class="st4" d="M103.1,152h-2.6v-11.4h2.6V152z"/>
			<path class="st4" d="M113.4,152h-2.5v-4.5c0-1.3-0.4-1.9-1.4-1.9c-0.4,0-0.8,0.2-1.1,0.5c-0.3,0.4-0.4,0.8-0.4,1.3v4.7h-2.5v-8.2
				h2.5v1.3l0,0c0.5-0.9,1.5-1.5,2.6-1.5c1.8,0,2.7,1.1,2.7,3.4L113.4,152z"/>
			<path class="st4" d="M120.7,141.9c-0.3-0.1-0.6-0.2-0.9-0.2c-0.8,0-1.2,0.4-1.2,1.3v0.9h1.9v1.9h-1.9v6.3h-2.5v-6.3h-1.4v-1.9
				h1.4v-1c0-0.8,0.3-1.7,0.9-2.2c0.7-0.6,1.6-0.9,2.5-0.9c0.4,0,0.9,0,1.3,0.2v1.9H120.7z"/>
			<path class="st4" d="M125.5,152.2c-1.2,0.1-2.3-0.3-3.2-1.1c-1.6-1.8-1.6-4.5,0-6.3c0.9-0.8,2.1-1.2,3.3-1.1
				c1.2-0.1,2.3,0.3,3.2,1.1c0.8,0.8,1.2,1.9,1.2,3c0.1,1.2-0.4,2.3-1.2,3.2C127.9,151.8,126.7,152.2,125.5,152.2z M125.6,145.6
				c-0.5,0-1,0.2-1.4,0.6c-0.4,0.5-0.5,1.1-0.5,1.7c0,1.6,0.6,2.4,1.9,2.4c1.3,0,1.9-0.8,1.8-2.4
				C127.4,146.3,126.8,145.6,125.6,145.6L125.6,145.6z"/>
			
				<linearGradient id="SVGID_5_" gradientUnits="userSpaceOnUse" x1="-3069.8518" y1="757.1928" x2="-2984.4517" y2="757.1928" gradientTransform="matrix(6.123234e-17 -1 1 6.123234e-17 -320.6601 -2867.7834)">
				<stop  offset="0" style="stop-color:#9F2E95"/>
				<stop  offset="0.33" style="stop-color:#8B2CC7"/>
				<stop  offset="0.66" style="stop-color:#5951F1"/>
				<stop  offset="1" style="stop-color:#1DAEF4"/>
			</linearGradient>
			<rect x="436" y="116.7" class="st6" width="1" height="85.4"/>
			
				<linearGradient id="SVGID_6_" gradientUnits="userSpaceOnUse" x1="-3069.8518" y1="522.7028" x2="-2984.4517" y2="522.7028" gradientTransform="matrix(6.123234e-17 -1 1 6.123234e-17 -320.6701 -2867.7834)">
				<stop  offset="0" style="stop-color:#9F2E95"/>
				<stop  offset="0.33" style="stop-color:#8B2CC7"/>
				<stop  offset="0.66" style="stop-color:#5951F1"/>
				<stop  offset="1" style="stop-color:#1DAEF4"/>
			</linearGradient>
			<rect x="201.5" y="116.7" class="st7" width="1" height="85.4"/>
			<g class="st5">
				<path class="st4" d="M318.4,164l-3.5,9.5h-1.2l-3.5-9.5h1.2l2.6,7.6c0.1,0.3,0.2,0.6,0.2,0.8l0,0c0-0.3,0.1-0.6,0.2-0.9l2.7-7.5
					L318.4,164z"/>
				<path class="st4" d="M325.4,173.5h-4.9V164h1.1v8.5h3.8V173.5z"/>
				<path class="st4" d="M333.2,165h-2.7v8.5h-1.1V165h-2.7v-1h6.6L333.2,165z"/>
			</g>
			<path class="st4" d="M308,142.7h-3.3v9.3h-2.6v-9.3h-3.2v-2.1h9.1V142.7z"/>
			<path class="st4" d="M310.6,142.5c-0.4,0-0.8-0.1-1-0.4c-0.3-0.2-0.4-0.6-0.4-0.9c0-0.4,0.1-0.7,0.4-0.9c0.6-0.5,1.5-0.5,2.1,0
				c0.3,0.2,0.4,0.6,0.4,0.9c0,0.4-0.1,0.7-0.4,0.9C311.3,142.4,311,142.6,310.6,142.5z M311.8,152h-2.5v-8.2h2.5V152z"/>
			<path class="st4" d="M320.1,151.7c-0.8,0.4-1.6,0.5-2.5,0.5c-1.1,0-2.2-0.4-3-1.1c-0.8-0.8-1.2-1.8-1.2-2.9
				c-0.1-1.2,0.4-2.4,1.3-3.3c0.9-0.8,2.1-1.3,3.3-1.2c0.7,0,1.4,0.1,2.1,0.4v2.1c-0.5-0.4-1.1-0.6-1.8-0.6c-0.6,0-1.3,0.2-1.7,0.6
				c-0.4,0.5-0.7,1.1-0.6,1.7c0,0.6,0.2,1.2,0.6,1.7c0.4,0.4,1,0.7,1.7,0.6c0.7,0,1.3-0.2,1.8-0.6L320.1,151.7z"/>
			<path class="st4" d="M329.9,152h-3l-2.6-4l0,0v4h-2.5v-12.1h2.5v7.7l0,0l2.4-3.8h3l-2.9,3.8L329.9,152z"/>
			<path class="st4" d="M338,148.6h-5.3c0.1,1.2,0.8,1.8,2.2,1.8c0.8,0,1.7-0.2,2.4-0.6v1.8c-0.9,0.4-1.9,0.6-2.9,0.6
				c-2.1,0.2-4-1.3-4.2-3.4c0-0.2,0-0.5,0-0.7c-0.1-1.2,0.4-2.4,1.2-3.2c0.8-0.8,1.8-1.2,2.9-1.2c1-0.1,2,0.3,2.8,1.1
				c0.7,0.8,1,1.8,1,2.9L338,148.6z M335.7,147.1c0-1.2-0.5-1.8-1.4-1.8c-0.4,0-0.8,0.2-1,0.5c-0.3,0.4-0.5,0.8-0.5,1.3H335.7z"/>
			<path class="st4" d="M344.4,151.9c-0.5,0.2-1.1,0.3-1.7,0.3c-1.8,0-2.7-0.9-2.7-2.8v-3.7h-1.3v-1.9h1.4V142l2.5-0.7v2.5h1.8v1.9
				h-1.8v3.3c0,0.8,0.3,1.3,1,1.3c0.3,0,0.6-0.1,0.8-0.2L344.4,151.9L344.4,151.9z"/>
			<g class="st5">
				<path class="st4" d="M556.7,168.2c0,0.8-0.1,1.6-0.3,2.3c-0.1,0.6-0.4,1.2-0.8,1.7c-0.3,0.5-0.7,0.8-1.2,1.1s-1.1,0.4-1.6,0.4
					c-0.6,0-1.1-0.1-1.7-0.3v-1c0.5,0.3,1.1,0.4,1.7,0.4c0.4,0,0.8-0.1,1.2-0.3c0.3-0.2,0.6-0.4,0.9-0.8c0.3-0.4,0.4-0.8,0.5-1.3
					c0.1-0.6,0.2-1.1,0.2-1.7l0,0c-0.4,0.8-1.2,1.3-2.1,1.2c-0.4,0-0.8-0.1-1.1-0.2c-0.3-0.1-0.6-0.4-0.9-0.6
					c-0.2-0.3-0.4-0.6-0.6-0.9c-0.3-0.8-0.3-1.7,0-2.5c0.1-0.4,0.4-0.7,0.6-1c0.3-0.3,0.6-0.5,1-0.7s0.8-0.2,1.2-0.2
					s0.9,0.1,1.3,0.3c0.4,0.2,0.7,0.5,1,0.9s0.5,0.9,0.6,1.4C556.6,166.9,556.7,167.6,556.7,168.2z M555.5,167.2c0-0.3,0-0.7-0.1-1
					s-0.2-0.5-0.4-0.8c-0.2-0.2-0.4-0.4-0.6-0.5c-0.2-0.1-0.5-0.2-0.8-0.2c-0.5,0-1,0.2-1.3,0.6c-0.2,0.2-0.3,0.4-0.4,0.7
					c-0.1,0.3-0.1,0.6-0.1,0.8c0,0.3,0,0.6,0.1,0.9c0.1,0.2,0.2,0.5,0.4,0.7s0.4,0.3,0.6,0.4c0.2,0.1,0.5,0.2,0.8,0.1
					c0.2,0,0.5,0,0.7-0.1s0.4-0.2,0.6-0.4C555.3,168.2,555.5,167.7,555.5,167.2L555.5,167.2z"/>
			</g>
			<path class="st4" d="M520.6,152v-11.4h4c4.1,0,6.1,1.9,6.1,5.6c0.1,1.6-0.5,3.1-1.7,4.3c-1.2,1.1-2.8,1.7-4.4,1.6h-4V152z
				 M523.1,142.7v7.2h1.3c1,0.1,1.9-0.3,2.6-1c0.7-0.7,1-1.7,1-2.7c0.1-1-0.3-1.9-0.9-2.6c-0.7-0.7-1.7-1-2.7-0.9H523.1z"/>
			<path class="st4" d="M539.6,148.6h-5.3c0.1,1.2,0.8,1.8,2.2,1.8c0.8,0,1.7-0.2,2.4-0.6v1.8c-0.9,0.4-1.9,0.6-2.9,0.6
				c-2.1,0.2-4-1.3-4.2-3.4c0-0.2,0-0.5,0-0.7c-0.1-1.2,0.4-2.4,1.2-3.2s1.8-1.2,2.9-1.2c1-0.1,2,0.3,2.8,1.1c0.7,0.8,1,1.8,1,2.9
				v0.9H539.6z M537.3,147.1c0-1.2-0.5-1.8-1.4-1.8c-0.4,0-0.8,0.2-1,0.5c-0.3,0.4-0.5,0.8-0.5,1.3H537.3z"/>
			<path class="st4" d="M547.3,151.7c-0.8,0.4-1.6,0.5-2.5,0.5c-1.1,0.1-2.2-0.4-3-1.1c-0.8-0.8-1.2-1.8-1.2-2.9
				c-0.1-1.2,0.4-2.4,1.2-3.3c0.9-0.8,2.1-1.3,3.3-1.2c0.7,0,1.4,0.1,2.1,0.4v2.1c-0.5-0.4-1.1-0.6-1.8-0.6c-0.6,0-1.3,0.2-1.7,0.6
				c-0.4,0.5-0.7,1.1-0.6,1.7c0,0.6,0.2,1.2,0.6,1.7c0.4,0.4,1,0.7,1.7,0.6c0.7,0,1.3-0.2,1.8-0.6v2.1H547.3z"/>
			<path class="st4" d="M550.3,142.5c-0.4,0-0.8-0.1-1-0.4c-0.3-0.2-0.4-0.6-0.4-0.9c0-0.4,0.1-0.7,0.4-0.9c0.6-0.5,1.5-0.5,2.1,0
				c0.3,0.2,0.4,0.6,0.4,0.9c0,0.4-0.1,0.7-0.4,0.9C551,142.4,550.6,142.6,550.3,142.5z M551.5,152H549v-8.2h2.5V152z"/>
			<path class="st4" d="M566.6,152h-2.5v-4.7c0-1.2-0.4-1.8-1.3-1.8c-0.4,0-0.8,0.2-1,0.5c-0.3,0.4-0.4,0.9-0.4,1.4v4.6h-2.5v-4.7
				c0-1.2-0.4-1.7-1.3-1.7c-0.4,0-0.8,0.2-1,0.5c-0.3,0.4-0.4,0.9-0.4,1.4v4.5h-2.5v-8.2h2.5v1.3l0,0c0.6-0.9,1.6-1.5,2.6-1.5
				c1-0.1,2,0.5,2.4,1.5c0.6-1,1.6-1.6,2.7-1.5c1.8,0,2.7,1.1,2.7,3.3V152z"/>
			<path class="st4" d="M575.4,152H573v-1.2h-0.1c-0.5,0.9-1.4,1.4-2.4,1.4c-0.7,0-1.4-0.2-1.9-0.7s-0.7-1.1-0.7-1.8
				c0-1.6,0.9-2.5,2.8-2.7l2.2-0.3c0-0.9-0.5-1.4-1.4-1.4c-1,0-2,0.3-2.8,0.9v-1.9c0.5-0.2,0.9-0.4,1.4-0.5s1.1-0.2,1.7-0.2
				c2.3,0,3.5,1.2,3.5,3.5L575.4,152z M573,148.7v-0.6l-1.5,0.2c-0.8,0.1-1.2,0.5-1.2,1.1c0,0.3,0.1,0.5,0.3,0.7s0.5,0.3,0.8,0.3
				c0.4,0,0.9-0.2,1.2-0.5C572.8,149.5,573,149.1,573,148.7z"/>
			<path class="st4" d="M579.9,152h-2.5v-12.1h2.5V152z"/>
			<path class="st4" d="M581.5,151.8v-2c0.4,0.2,0.8,0.4,1.2,0.6c0.4,0.1,0.8,0.2,1.2,0.2s0.7,0,1.1-0.2c0.2-0.1,0.4-0.3,0.4-0.6
				c0-0.1,0-0.3-0.1-0.4c-0.1-0.1-0.3-0.2-0.4-0.3c-0.2-0.1-0.4-0.2-0.6-0.2c-0.2-0.1-0.4-0.1-0.6-0.2c-0.3-0.1-0.6-0.2-0.9-0.4
				c-0.2-0.1-0.4-0.3-0.6-0.5c-0.2-0.2-0.3-0.4-0.4-0.6c-0.1-0.3-0.1-0.6-0.1-0.9c0-0.4,0.1-0.8,0.3-1.2c0.2-0.3,0.5-0.6,0.8-0.8
				s0.7-0.4,1.1-0.5c0.4-0.1,0.9-0.2,1.4-0.1c0.4,0,0.7,0,1.1,0.1c0.4,0.1,0.7,0.1,1.1,0.2v1.9c-0.3-0.2-0.7-0.3-1-0.4
				c-0.4-0.1-0.7-0.1-1.1-0.1c-0.2,0-0.3,0-0.5,0c-0.1,0-0.3,0.1-0.4,0.1c-0.1,0-0.2,0.1-0.3,0.2c-0.1,0.1-0.1,0.2-0.1,0.3
				s0,0.3,0.1,0.4c0.1,0.1,0.2,0.2,0.4,0.3s0.3,0.2,0.5,0.2l0.6,0.2c0.3,0.1,0.6,0.2,0.9,0.4c0.2,0.1,0.5,0.3,0.7,0.5
				s0.4,0.4,0.4,0.7c0.1,0.3,0.2,0.6,0.2,0.9c0,0.4-0.1,0.9-0.3,1.2s-0.5,0.6-0.8,0.8c-0.4,0.2-0.8,0.4-1.2,0.5
				c-0.5,0.1-0.9,0.1-1.4,0.1C583.1,152.2,582.3,152.1,581.5,151.8z"/>
		</g>
		<g>
			
				<linearGradient id="SVGID_7_" gradientUnits="userSpaceOnUse" x1="-3196.5518" y1="677.8928" x2="-3111.1519" y2="677.8928" gradientTransform="matrix(6.123234e-17 -1 1 6.123234e-17 -320.6601 -2867.7834)">
				<stop  offset="0" style="stop-color:#9F2E95"/>
				<stop  offset="0.33" style="stop-color:#8B2CC7"/>
				<stop  offset="0.66" style="stop-color:#5951F1"/>
				<stop  offset="1" style="stop-color:#1DAEF4"/>
			</linearGradient>
			<rect x="356.7" y="243.4" class="st8" width="1" height="85.4"/>
			
				<linearGradient id="SVGID_8_" gradientUnits="userSpaceOnUse" x1="-3196.5518" y1="443.5028" x2="-3111.1519" y2="443.5028" gradientTransform="matrix(6.123234e-17 -1 1 6.123234e-17 -320.6701 -2867.7834)">
				<stop  offset="0" style="stop-color:#9F2E95"/>
				<stop  offset="0.33" style="stop-color:#8B2CC7"/>
				<stop  offset="0.66" style="stop-color:#5951F1"/>
				<stop  offset="1" style="stop-color:#1DAEF4"/>
			</linearGradient>
			<rect x="122.3" y="243.4" class="st9" width="1" height="85.4"/>
			<g class="st5">
				<path class="st4" d="M226.8,295.4c0,0.7-0.1,1.4-0.2,2.1c-0.1,0.6-0.3,1.1-0.6,1.6c-0.2,0.4-0.6,0.7-1,1
					c-0.4,0.2-0.9,0.3-1.4,0.3c-0.4,0-0.9-0.1-1.3-0.3c-0.4-0.2-0.7-0.5-1-0.9c-0.3-0.5-0.5-1-0.6-1.5c-0.1-0.7-0.2-1.4-0.2-2
					c0-0.7,0.1-1.5,0.2-2.2c0.1-0.6,0.3-1.1,0.6-1.6c0.2-0.4,0.6-0.7,1-1c0.4-0.2,0.9-0.3,1.4-0.3
					C225.8,290.6,226.8,292.2,226.8,295.4z M225.7,295.6c0-2.7-0.6-4.1-1.9-4.1c-1.4,0-2,1.4-2,4.1c0,2.6,0.7,3.9,2,3.9
					C225,299.5,225.7,298.2,225.7,295.6L225.7,295.6z"/>
				<path class="st4" d="M229.5,300.4c-0.2,0-0.4-0.1-0.5-0.2s-0.2-0.3-0.2-0.5s0.1-0.4,0.2-0.5c0.1-0.1,0.3-0.2,0.5-0.2
					s0.4,0.1,0.5,0.2s0.2,0.3,0.2,0.5C230.2,300.1,229.9,300.4,229.5,300.4L229.5,300.4z"/>
				<path class="st4" d="M236.8,293.2c0-0.3,0-0.5-0.1-0.8c-0.1-0.2-0.2-0.4-0.4-0.5s-0.4-0.3-0.6-0.3c-0.2-0.1-0.4-0.1-0.7-0.1
					c-0.2,0-0.4,0-0.6,0.1c-0.2,0.1-0.4,0.1-0.6,0.2c-0.2,0.1-0.4,0.2-0.6,0.4c-0.2,0.1-0.3,0.3-0.5,0.5v-1.2c0.3-0.3,0.6-0.5,1-0.7
					s0.9-0.2,1.4-0.2c0.4,0,0.7,0.1,1.1,0.2c0.3,0.1,0.6,0.3,0.9,0.5c0.2,0.2,0.4,0.5,0.6,0.8c0.1,0.3,0.2,0.7,0.2,1.1
					c0,0.3,0,0.7-0.1,1s-0.2,0.6-0.4,0.9s-0.4,0.5-0.7,0.8s-0.6,0.5-0.9,0.8c-0.4,0.3-0.8,0.6-1.1,0.8c-0.2,0.2-0.5,0.4-0.7,0.6
					s-0.3,0.4-0.4,0.6c-0.1,0.2-0.1,0.4-0.1,0.7h4.8v1h-5.9v-0.5c0-0.4,0-0.7,0.1-1.1c0.1-0.3,0.2-0.6,0.4-0.9s0.5-0.6,0.8-0.8
					c0.3-0.3,0.7-0.6,1.2-0.9c0.3-0.2,0.6-0.5,0.9-0.7c0.2-0.2,0.4-0.4,0.6-0.7c0.1-0.2,0.2-0.4,0.3-0.7
					C236.7,293.7,236.8,293.5,236.8,293.2z"/>
				<path class="st4" d="M246.1,297.3c0,0.4-0.1,0.9-0.2,1.3c-0.2,0.4-0.4,0.7-0.7,1s-0.7,0.5-1.1,0.6c-0.4,0.1-0.9,0.2-1.4,0.2
					c-0.7,0-1.4-0.1-2-0.4v-1.2c0.6,0.4,1.3,0.6,2,0.6c0.3,0,0.6,0,0.9-0.1c0.3-0.1,0.5-0.2,0.7-0.4c0.2-0.2,0.4-0.4,0.4-0.7
					c0.1-0.3,0.2-0.6,0.2-0.8c0-0.6-0.2-1.1-0.6-1.5c-0.5-0.4-1.2-0.6-1.8-0.5h-0.4h-0.4h-0.4h-0.4l0.3-4.8h4.4v1h-3.5l-0.2,2.8h0.5
					h0.4c0.5,0,0.9,0.1,1.4,0.2c0.4,0.1,0.7,0.3,1,0.6c0.3,0.2,0.5,0.6,0.6,0.9C246,296.6,246.1,296.9,246.1,297.3z"/>
				<path class="st4" d="M251.8,300.2v1.4h-0.7v-1.4c-0.8,0-1.6-0.2-2.3-0.6v-1.2c0.3,0.3,0.7,0.4,1.1,0.6c0.4,0.1,0.8,0.2,1.2,0.2
					v-3.4c-0.7-0.3-1.4-0.7-1.9-1.3c-0.3-0.4-0.4-0.9-0.4-1.4c0-0.6,0.2-1.2,0.7-1.7c0.4-0.5,1-0.8,1.7-0.8v-1.2h0.7v1.2
					c0.6,0,1.2,0.1,1.8,0.4v1.1c-0.5-0.4-1.2-0.6-1.8-0.6v3.5c0.7,0.3,1.4,0.7,1.9,1.3c0.3,0.4,0.5,0.9,0.5,1.4
					c0,0.6-0.2,1.2-0.6,1.6C253.1,299.8,252.4,300.1,251.8,300.2z M251.1,294.8v-3.1c-0.3,0.1-0.7,0.2-0.9,0.5
					c-0.2,0.3-0.3,0.6-0.3,0.9s0.1,0.7,0.3,0.9C250.4,294.3,250.7,294.6,251.1,294.8L251.1,294.8z M251.8,296.3v3
					c0.9-0.2,1.3-0.6,1.3-1.4C253,297.3,252.6,296.7,251.8,296.3L251.8,296.3z"/>
			</g>
			<path class="st4" d="M196.8,278.3c-1,0.4-2.1,0.7-3.3,0.6c-1.5,0.1-3-0.5-4.1-1.5c-1-1.1-1.6-2.6-1.5-4.1
				c-0.1-1.7,0.5-3.3,1.7-4.4s2.8-1.8,4.4-1.7c1,0,1.9,0.1,2.8,0.4v2.5c-0.8-0.5-1.7-0.7-2.6-0.7c-1,0-1.9,0.3-2.6,1
				c-0.7,0.7-1,1.7-1,2.7s0.3,1.9,0.9,2.6c0.7,0.7,1.6,1,2.5,1c1,0,1.9-0.2,2.8-0.7L196.8,278.3z"/>
			<path class="st4" d="M206.3,278.7h-2.5v-1.2l0,0c-0.5,0.9-1.5,1.5-2.5,1.4c-1.9,0-2.8-1.1-2.8-3.4v-4.9h2.5v4.7
				c0,1.1,0.5,1.7,1.4,1.7c0.4,0,0.8-0.2,1.1-0.5c0.3-0.4,0.4-0.8,0.4-1.3v-4.7h2.5L206.3,278.7z"/>
			<path class="st4" d="M213.7,272.8c-0.3-0.2-0.7-0.3-1.1-0.2c-0.5,0-1,0.2-1.3,0.6c-0.3,0.5-0.5,1.1-0.5,1.6v3.9h-2.5v-8.2h2.5
				v1.5l0,0c0.2-1,1.1-1.7,2.2-1.7c0.2,0,0.4,0,0.6,0.1L213.7,272.8z"/>
			<path class="st4" d="M220.2,272.8c-0.3-0.2-0.7-0.3-1.1-0.2c-0.5,0-1,0.2-1.3,0.6c-0.3,0.5-0.5,1.1-0.5,1.6v3.9h-2.5v-8.2h2.5
				v1.5l0,0c0.2-1,1.1-1.7,2.2-1.7c0.2,0,0.4,0,0.6,0.1L220.2,272.8z"/>
			<path class="st4" d="M228.7,275.4h-5.3c0.1,1.2,0.8,1.8,2.2,1.8c0.8,0,1.7-0.2,2.4-0.6v1.8c-0.9,0.4-1.9,0.6-2.9,0.6
				c-2.1,0.2-4-1.3-4.2-3.4c0-0.2,0-0.5,0-0.7c-0.1-1.2,0.4-2.4,1.2-3.2c0.8-0.8,1.8-1.2,2.9-1.2c1-0.1,2,0.3,2.8,1.1
				c0.7,0.8,1,1.8,1,2.9L228.7,275.4z M226.3,273.8c0-1.2-0.5-1.8-1.4-1.8c-0.4,0-0.8,0.2-1,0.5c-0.3,0.4-0.5,0.8-0.5,1.3H226.3z"/>
			<path class="st4" d="M238,278.7h-2.5v-4.5c0-1.3-0.4-1.9-1.4-1.9c-0.4,0-0.8,0.2-1.1,0.5c-0.3,0.4-0.4,0.8-0.4,1.3v4.7h-2.5v-8.2
				h2.5v1.3l0,0c0.5-0.9,1.5-1.5,2.6-1.5c1.8,0,2.7,1.1,2.7,3.4L238,278.7L238,278.7z"/>
			<path class="st4" d="M245,278.6c-0.5,0.2-1.1,0.3-1.7,0.3c-1.8,0-2.7-0.9-2.7-2.8v-3.7h-1.3v-1.9h1.3v-1.8l2.5-0.7v2.5h1.8v1.9
				h-1.8v3.3c0,0.8,0.3,1.3,1,1.3c0.3,0,0.6-0.1,0.8-0.2L245,278.6z"/>
			<path class="st4" d="M253.7,274.8v3.9h-2.6v-11.4h4c2.9,0,4.3,1.2,4.3,3.6c0,1.1-0.4,2.1-1.2,2.8c-0.9,0.7-2.1,1.1-3.3,1.1H253.7
				z M253.7,269.3v3.6h1c1.4,0,2-0.6,2-1.8c0-1.2-0.7-1.8-2-1.8L253.7,269.3L253.7,269.3z"/>
			<path class="st4" d="M266.2,272.8c-0.3-0.2-0.7-0.3-1.1-0.2c-0.5,0-1,0.2-1.3,0.6c-0.3,0.5-0.5,1.1-0.5,1.6v3.9h-2.5v-8.2h2.5
				v1.5l0,0c0.2-1,1.1-1.7,2.1-1.7c0.2,0,0.4,0,0.6,0.1L266.2,272.8z"/>
			<path class="st4" d="M268.7,269.3c-0.4,0-0.8-0.1-1-0.4c-0.3-0.2-0.4-0.6-0.4-0.9c0-0.4,0.1-0.7,0.4-0.9c0.6-0.5,1.5-0.5,2.1,0
				c0.3,0.2,0.4,0.6,0.4,0.9c0,0.4-0.1,0.7-0.4,0.9C269.5,269.2,269.1,269.3,268.7,269.3z M270,278.7h-2.5v-8.2h2.5V278.7z"/>
			<path class="st4" d="M278.3,278.4c-0.8,0.4-1.6,0.5-2.5,0.5c-1.1,0-2.2-0.4-3-1.1c-0.8-0.8-1.2-1.8-1.2-2.9
				c-0.1-1.2,0.4-2.4,1.2-3.3c0.9-0.8,2.1-1.3,3.3-1.2c0.7,0,1.4,0.1,2.1,0.4v2.1c-0.5-0.4-1.1-0.6-1.8-0.6c-0.6,0-1.3,0.2-1.7,0.6
				c-0.4,0.5-0.7,1.1-0.6,1.7c0,0.6,0.2,1.2,0.6,1.7c0.4,0.4,1,0.7,1.7,0.6c0.7,0,1.3-0.2,1.8-0.6L278.3,278.4z"/>
			<path class="st4" d="M287.3,275.4H282c0.1,1.2,0.8,1.8,2.2,1.8c0.8,0,1.7-0.2,2.4-0.6v1.8c-0.9,0.4-1.9,0.6-2.9,0.6
				c-2.1,0.2-3.9-1.3-4.2-3.4c0-0.2,0-0.5,0-0.8c-0.1-1.2,0.4-2.4,1.2-3.2c0.8-0.8,1.8-1.2,2.9-1.2c1-0.1,2,0.3,2.8,1.1
				c0.7,0.8,1,1.8,1,2.9L287.3,275.4z M285,273.8c0-1.2-0.5-1.8-1.4-1.8c-0.4,0-0.8,0.2-1,0.5c-0.3,0.4-0.5,0.8-0.5,1.3H285z"/>
			<path class="st4" d="M438.5,279.7H436v-6.8c0-0.7,0-1.6,0.1-2.4H436c-0.1,0.5-0.2,1-0.4,1.5l-2.7,7.8h-2.1l-2.7-7.7
				c-0.2-0.5-0.3-1.1-0.4-1.6h0c0.1,1.1,0.1,2.1,0.1,3v6.3h-2.3v-11.4h3.8l2.3,6.8c0.2,0.5,0.3,1.1,0.4,1.6l0,0
				c0.1-0.6,0.3-1.2,0.5-1.7l2.3-6.8h3.7V279.7z"/>
			<path class="st4" d="M447.6,279.7h-2.4v-1.2l0,0c-0.5,0.9-1.4,1.4-2.4,1.4c-0.7,0-1.4-0.2-1.9-0.7s-0.7-1.1-0.7-1.8
				c0-1.6,0.9-2.5,2.8-2.7l2.2-0.3c0-0.9-0.5-1.4-1.5-1.4s-2,0.3-2.8,0.9V272c0.5-0.2,0.9-0.4,1.4-0.5s1.1-0.2,1.7-0.2
				c2.3,0,3.5,1.2,3.5,3.5L447.6,279.7z M445.2,276.4v-0.6l-1.5,0.2c-0.8,0.1-1.2,0.5-1.2,1.1c0,0.3,0.1,0.5,0.3,0.7
				c0.2,0.2,0.5,0.3,0.8,0.3c0.4,0,0.9-0.2,1.2-0.5C445.1,277.3,445.2,276.9,445.2,276.4L445.2,276.4z"/>
			<path class="st4" d="M457.5,271.6l-2.7,4l2.7,4.2h-2.9l-1.2-2.2c-0.1-0.2-0.2-0.5-0.3-0.7l0,0c-0.1,0.2-0.2,0.5-0.3,0.7l-1.2,2.2
				h-2.9l2.8-4.1l-2.6-4.1h2.9l1.2,2.3c0.1,0.2,0.2,0.5,0.3,0.8l0,0c0.1-0.3,0.2-0.5,0.3-0.8l1.2-2.3H457.5z"/>
			<path class="st4" d="M462.8,279.3v-2.5c0.4,0.4,1,0.7,1.5,0.9c0.5,0.2,1.1,0.3,1.6,0.3c0.3,0,0.6,0,0.8-0.1
				c0.2-0.1,0.4-0.1,0.6-0.2s0.3-0.2,0.4-0.4c0.1-0.1,0.1-0.3,0.1-0.5s-0.1-0.4-0.2-0.6s-0.3-0.4-0.5-0.5c-0.2-0.2-0.5-0.3-0.8-0.4
				s-0.6-0.3-1-0.4c-0.8-0.3-1.4-0.8-2-1.4c-0.5-0.5-0.7-1.2-0.7-1.9c0-0.5,0.1-1.1,0.4-1.5c0.2-0.4,0.6-0.8,1-1
				c0.4-0.3,0.9-0.5,1.4-0.6c0.6-0.1,1.1-0.2,1.7-0.2c0.5,0,1.1,0,1.6,0.1c0.4,0.1,0.9,0.2,1.3,0.3v2.4c-0.2-0.1-0.4-0.3-0.6-0.3
				c-0.2-0.1-0.4-0.2-0.7-0.3c-0.2-0.1-0.5-0.1-0.7-0.1s-0.5,0-0.7,0c-0.3,0-0.5,0-0.8,0.1c-0.2,0-0.4,0.1-0.6,0.2s-0.3,0.2-0.4,0.4
				c-0.1,0.1-0.1,0.3-0.1,0.5s0,0.4,0.1,0.5c0.1,0.2,0.3,0.3,0.4,0.4c0.2,0.2,0.4,0.3,0.7,0.4c0.3,0.1,0.6,0.3,0.9,0.4
				c0.4,0.2,0.8,0.4,1.2,0.6c0.3,0.2,0.7,0.4,0.9,0.7c0.3,0.3,0.5,0.6,0.6,0.9c0.1,0.4,0.2,0.8,0.2,1.2c0,0.6-0.1,1.1-0.4,1.6
				c-0.2,0.4-0.6,0.8-1,1.1c-0.4,0.3-0.9,0.5-1.4,0.6c-0.6,0.1-1.2,0.2-1.7,0.2c-0.6,0-1.2,0-1.8-0.2
				C463.8,279.7,463.3,279.5,462.8,279.3z"/>
			<path class="st4" d="M480,279.7h-2.5v-1.2l0,0c-0.5,0.9-1.5,1.4-2.5,1.4c-1.9,0-2.8-1.1-2.8-3.4v-4.9h2.5v4.7
				c0,1.1,0.5,1.7,1.4,1.7c0.4,0,0.8-0.2,1.1-0.5c0.3-0.4,0.4-0.8,0.4-1.3v-4.7h2.5L480,279.7z"/>
			<path class="st4" d="M484.7,278.8L484.7,278.8v4.7h-2.5v-11.9h2.5v1.2l0,0c0.6-0.9,1.6-1.5,2.6-1.4c0.9-0.1,1.9,0.4,2.4,1.1
				c0.6,0.9,0.9,1.9,0.9,3c0.1,1.2-0.3,2.3-1,3.3c-0.6,0.8-1.6,1.3-2.7,1.2C486,280,485.2,279.5,484.7,278.8z M484.6,275.4v0.7
				c0,0.5,0.1,1,0.4,1.4s0.7,0.6,1.2,0.5c0.5,0,1.1-0.2,1.4-0.7c0.4-0.6,0.5-1.2,0.5-1.9c0-1.4-0.6-2.2-1.7-2.2
				c-0.5,0-1,0.2-1.3,0.6C484.8,274.3,484.6,274.9,484.6,275.4L484.6,275.4z"/>
			<path class="st4" d="M494.8,278.8L494.8,278.8v4.7h-2.5v-11.9h2.5v1.2l0,0c1-1.5,3-1.9,4.4-0.9c0.2,0.2,0.4,0.3,0.6,0.6
				c0.6,0.9,0.9,1.9,0.9,3c0.1,1.2-0.3,2.3-1,3.3c-0.7,0.8-1.7,1.3-2.7,1.2C496.1,279.9,495.3,279.5,494.8,278.8z M494.7,275.4v0.7
				c0,0.5,0.1,1,0.4,1.4s0.7,0.6,1.2,0.5c0.5,0,1.1-0.2,1.4-0.7c0.4-0.6,0.5-1.2,0.5-1.9c0-1.4-0.6-2.2-1.7-2.2
				c-0.5,0-1,0.2-1.3,0.6C494.9,274.3,494.7,274.9,494.7,275.4L494.7,275.4z"/>
			<path class="st4" d="M504.9,279.7h-2.5v-12.1h2.5V279.7z"/>
			<path class="st4" d="M514.8,271.6l-3.3,8.8c-0.8,2.1-2,3.2-3.6,3.2c-0.5,0-1-0.1-1.5-0.2v-2c0.3,0.2,0.7,0.3,1.1,0.3
				c0.6,0,1.2-0.3,1.4-0.9l0.4-1l-3.3-8.2h2.8l1.5,5c0.1,0.4,0.2,0.7,0.2,1.1l0,0c0.1-0.4,0.1-0.7,0.3-1.1l1.5-5L514.8,271.6z"/>
		</g>
		
			<linearGradient id="SVGID_9_" gradientUnits="userSpaceOnUse" x1="296.3326" y1="2995.6401" x2="371.8327" y2="2995.6401" gradientTransform="matrix(1 0 0 1 0 -2939.8218)">
			<stop  offset="0" style="stop-color:#9F2E95"/>
			<stop  offset="0.33" style="stop-color:#8B2CC7"/>
			<stop  offset="0.66" style="stop-color:#5951F1"/>
			<stop  offset="1" style="stop-color:#1DAEF4"/>
		</linearGradient>
		<path class="st10" d="M313.2,44.3l-6.2,18h-4.6l-6.1-18h4.4l3.7,12.5c0.2,0.6,0.3,1.2,0.4,1.8h0.1c0.1-0.6,0.2-1.2,0.4-1.8
			l3.7-12.5H313.2z M323.7,62.3H320v-1.8h-0.1c-0.8,1.4-2.2,2.2-3.8,2.2c-1.1,0.1-2.1-0.3-2.9-1.1c-0.7-0.8-1.1-1.8-1.1-2.8
			c0-2.5,1.5-3.9,4.4-4.3L320,54c0-1.4-0.8-2.1-2.3-2.1c-1.6,0-3.1,0.5-4.4,1.4v-3c0.7-0.3,1.5-0.6,2.3-0.8c0.9-0.2,1.7-0.3,2.6-0.3
			c3.7,0,5.5,1.8,5.5,5.5V62.3z M320,57.1v-0.9l-2.3,0.3c-1.3,0.2-1.9,0.7-1.9,1.7c0,0.4,0.2,0.8,0.5,1.1c0.4,0.3,0.8,0.5,1.3,0.4
			c0.7,0,1.4-0.3,1.8-0.8C319.7,58.5,320,57.8,320,57.1z M339,62.3h-3.9v-2H335c-0.8,1.4-2.3,2.3-3.9,2.3c-3,0-4.5-1.8-4.5-5.4v-7.8
			h3.9v7.4c0,1.8,0.7,2.7,2.2,2.7c0.7,0,1.3-0.2,1.7-0.7c0.5-0.6,0.7-1.3,0.6-2v-7.3h3.9L339,62.3L339,62.3z M346.3,62.3h-4v-19h4
			V62.3z M357.4,62.1c-0.8,0.4-1.7,0.5-2.6,0.5c-2.8,0-4.2-1.4-4.2-4.3v-5.9h-2.1v-2.9h2.1v-2.8l3.9-1.1v3.9h2.9v2.9h-2.9v5.2
			c0,1.3,0.5,2,1.6,2c0.5,0,0.9-0.1,1.3-0.4L357.4,62.1z M371.8,49.5l-5.2,13.9c-1.3,3.3-3.1,5-5.6,5c-0.8,0-1.6-0.1-2.4-0.3v-3.2
			c0.5,0.3,1.1,0.5,1.7,0.5c1,0,1.8-0.5,2.1-1.4l0.7-1.6l-5.2-12.8h4.4l2.4,7.8c0.2,0.6,0.3,1.1,0.4,1.7l0,0
			c0.1-0.6,0.2-1.1,0.4-1.7l2.4-7.8L371.8,49.5L371.8,49.5z"/>
	</g>
</g>
<g class="st5">
	<g>
		<path class="st4" d="M424.5,301.3h-1.2v-9.1c-0.1,0.1-0.2,0.2-0.4,0.3c-0.2,0.1-0.4,0.2-0.6,0.4c-0.2,0.1-0.5,0.2-0.7,0.3
			c-0.2,0.1-0.5,0.2-0.7,0.2v-1.2c0.3-0.1,0.5-0.2,0.8-0.3c0.3-0.1,0.6-0.3,0.9-0.4c0.3-0.2,0.6-0.3,0.8-0.5
			c0.3-0.2,0.5-0.3,0.7-0.5h0.5V301.3z"/>
		<path class="st4" d="M430.3,299.6l-1.2,3.6h-0.9l0.9-3.6H430.3z"/>
		<path class="st4" d="M439.5,296c0,0.9-0.1,1.7-0.2,2.3c-0.2,0.7-0.4,1.3-0.7,1.7c-0.3,0.5-0.7,0.8-1.1,1.1
			c-0.4,0.2-0.9,0.4-1.5,0.4c-0.5,0-1-0.1-1.4-0.3c-0.4-0.2-0.8-0.6-1-1c-0.3-0.4-0.5-1-0.6-1.6c-0.1-0.6-0.2-1.4-0.2-2.2
			c0-0.9,0.1-1.7,0.2-2.4c0.2-0.7,0.4-1.3,0.7-1.8c0.3-0.5,0.7-0.8,1.1-1.1c0.4-0.2,0.9-0.4,1.5-0.4
			C438.4,290.6,439.5,292.4,439.5,296z M438.2,296.1c0-3-0.7-4.5-2.1-4.5c-1.5,0-2.2,1.5-2.2,4.6c0,2.8,0.7,4.3,2.2,4.3
			C437.5,300.5,438.2,299,438.2,296.1z"/>
		<path class="st4" d="M448.3,296c0,0.9-0.1,1.7-0.2,2.3c-0.2,0.7-0.4,1.3-0.7,1.7c-0.3,0.5-0.7,0.8-1.1,1.1
			c-0.4,0.2-0.9,0.4-1.5,0.4c-0.5,0-1-0.1-1.4-0.3c-0.4-0.2-0.8-0.6-1-1c-0.3-0.4-0.5-1-0.6-1.6c-0.1-0.6-0.2-1.4-0.2-2.2
			c0-0.9,0.1-1.7,0.2-2.4c0.2-0.7,0.4-1.3,0.7-1.8c0.3-0.5,0.7-0.8,1.1-1.1c0.4-0.2,0.9-0.4,1.5-0.4
			C447.2,290.6,448.3,292.4,448.3,296z M447.1,296.1c0-3-0.7-4.5-2.1-4.5c-1.5,0-2.2,1.5-2.2,4.6c0,2.8,0.7,4.3,2.2,4.3
			C446.3,300.5,447.1,299,447.1,296.1z"/>
		<path class="st4" d="M457.1,296c0,0.9-0.1,1.7-0.2,2.3c-0.2,0.7-0.4,1.3-0.7,1.7c-0.3,0.5-0.7,0.8-1.1,1.1
			c-0.4,0.2-0.9,0.4-1.5,0.4c-0.5,0-1-0.1-1.4-0.3c-0.4-0.2-0.8-0.6-1-1c-0.3-0.4-0.5-1-0.6-1.6c-0.1-0.6-0.2-1.4-0.2-2.2
			c0-0.9,0.1-1.7,0.2-2.4c0.2-0.7,0.4-1.3,0.7-1.8c0.3-0.5,0.7-0.8,1.1-1.1c0.4-0.2,0.9-0.4,1.5-0.4
			C456,290.6,457.1,292.4,457.1,296z M455.9,296.1c0-3-0.7-4.5-2.1-4.5c-1.5,0-2.2,1.5-2.2,4.6c0,2.8,0.7,4.3,2.2,4.3
			C455.2,300.5,455.9,299,455.9,296.1z"/>
		<path class="st4" d="M460.8,299.6l-1.2,3.6h-0.9l0.9-3.6H460.8z"/>
		<path class="st4" d="M470,296c0,0.9-0.1,1.7-0.2,2.3c-0.2,0.7-0.4,1.3-0.7,1.7c-0.3,0.5-0.7,0.8-1.1,1.1c-0.4,0.2-0.9,0.4-1.5,0.4
			c-0.5,0-1-0.1-1.4-0.3c-0.4-0.2-0.8-0.6-1-1c-0.3-0.4-0.5-1-0.6-1.6c-0.1-0.6-0.2-1.4-0.2-2.2c0-0.9,0.1-1.7,0.2-2.4
			c0.2-0.7,0.4-1.3,0.7-1.8c0.3-0.5,0.7-0.8,1.1-1.1c0.4-0.2,0.9-0.4,1.5-0.4C468.9,290.6,470,292.4,470,296z M468.7,296.1
			c0-3-0.7-4.5-2.1-4.5c-1.5,0-2.2,1.5-2.2,4.6c0,2.8,0.7,4.3,2.2,4.3C468,300.5,468.7,299,468.7,296.1z"/>
		<path class="st4" d="M478.8,296c0,0.9-0.1,1.7-0.2,2.3c-0.2,0.7-0.4,1.3-0.7,1.7c-0.3,0.5-0.7,0.8-1.1,1.1
			c-0.4,0.2-0.9,0.4-1.5,0.4c-0.5,0-1-0.1-1.4-0.3c-0.4-0.2-0.8-0.6-1-1c-0.3-0.4-0.5-1-0.6-1.6c-0.1-0.6-0.2-1.4-0.2-2.2
			c0-0.9,0.1-1.7,0.2-2.4c0.2-0.7,0.4-1.3,0.7-1.8c0.3-0.5,0.7-0.8,1.1-1.1c0.4-0.2,0.9-0.4,1.5-0.4
			C477.7,290.6,478.8,292.4,478.8,296z M477.6,296.1c0-3-0.7-4.5-2.1-4.5c-1.5,0-2.2,1.5-2.2,4.6c0,2.8,0.7,4.3,2.2,4.3
			C476.9,300.5,477.6,299,477.6,296.1z"/>
		<path class="st4" d="M487.6,296c0,0.9-0.1,1.7-0.2,2.3c-0.2,0.7-0.4,1.3-0.7,1.7c-0.3,0.5-0.7,0.8-1.1,1.1
			c-0.4,0.2-0.9,0.4-1.5,0.4c-0.5,0-1-0.1-1.4-0.3c-0.4-0.2-0.8-0.6-1-1c-0.3-0.4-0.5-1-0.6-1.6c-0.1-0.6-0.2-1.4-0.2-2.2
			c0-0.9,0.1-1.7,0.2-2.4c0.2-0.7,0.4-1.3,0.7-1.8c0.3-0.5,0.7-0.8,1.1-1.1c0.4-0.2,0.9-0.4,1.5-0.4
			C486.5,290.6,487.6,292.4,487.6,296z M486.4,296.1c0-3-0.7-4.5-2.1-4.5c-1.5,0-2.2,1.5-2.2,4.6c0,2.8,0.7,4.3,2.2,4.3
			C485.7,300.5,486.4,299,486.4,296.1z"/>
		<path class="st4" d="M491.3,299.6l-1.2,3.6h-0.9l0.9-3.6H491.3z"/>
		<path class="st4" d="M500.5,296c0,0.9-0.1,1.7-0.2,2.3c-0.2,0.7-0.4,1.3-0.7,1.7c-0.3,0.5-0.7,0.8-1.1,1.1
			c-0.4,0.2-0.9,0.4-1.5,0.4c-0.5,0-1-0.1-1.4-0.3c-0.4-0.2-0.8-0.6-1-1c-0.3-0.4-0.5-1-0.6-1.6c-0.1-0.6-0.2-1.4-0.2-2.2
			c0-0.9,0.1-1.7,0.2-2.4c0.2-0.7,0.4-1.3,0.7-1.8c0.3-0.5,0.7-0.8,1.1-1.1c0.4-0.2,0.9-0.4,1.5-0.4
			C499.4,290.6,500.5,292.4,500.5,296z M499.3,296.1c0-3-0.7-4.5-2.1-4.5c-1.5,0-2.2,1.5-2.2,4.6c0,2.8,0.7,4.3,2.2,4.3
			C498.5,300.5,499.3,299,499.3,296.1z"/>
		<path class="st4" d="M509.3,296c0,0.9-0.1,1.7-0.2,2.3c-0.2,0.7-0.4,1.3-0.7,1.7c-0.3,0.5-0.7,0.8-1.1,1.1
			c-0.4,0.2-0.9,0.4-1.5,0.4c-0.5,0-1-0.1-1.4-0.3c-0.4-0.2-0.8-0.6-1-1c-0.3-0.4-0.5-1-0.6-1.6c-0.1-0.6-0.2-1.4-0.2-2.2
			c0-0.9,0.1-1.7,0.2-2.4c0.2-0.7,0.4-1.3,0.7-1.8c0.3-0.5,0.7-0.8,1.1-1.1c0.4-0.2,0.9-0.4,1.5-0.4
			C508.2,290.6,509.3,292.4,509.3,296z M508.1,296.1c0-3-0.7-4.5-2.1-4.5c-1.5,0-2.2,1.5-2.2,4.6c0,2.8,0.7,4.3,2.2,4.3
			C507.4,300.5,508.1,299,508.1,296.1z"/>
		<path class="st4" d="M518.2,296c0,0.9-0.1,1.7-0.2,2.3c-0.2,0.7-0.4,1.3-0.7,1.7c-0.3,0.5-0.7,0.8-1.1,1.1
			c-0.4,0.2-0.9,0.4-1.5,0.4c-0.5,0-1-0.1-1.4-0.3c-0.4-0.2-0.8-0.6-1-1c-0.3-0.4-0.5-1-0.6-1.6c-0.1-0.6-0.2-1.4-0.2-2.2
			c0-0.9,0.1-1.7,0.2-2.4c0.2-0.7,0.4-1.3,0.7-1.8c0.3-0.5,0.7-0.8,1.1-1.1c0.4-0.2,0.9-0.4,1.5-0.4
			C517.1,290.6,518.2,292.4,518.2,296z M516.9,296.1c0-3-0.7-4.5-2.1-4.5c-1.5,0-2.2,1.5-2.2,4.6c0,2.8,0.7,4.3,2.2,4.3
			C516.2,300.5,516.9,299,516.9,296.1z"/>
	</g>
</g>
</svg>
