<svg id="Layer_1" data-name="Layer 1" xmlns="http://www.w3.org/2000/svg" xmlns:xlink="http://www.w3.org/1999/xlink" viewBox="0 0 1210.82 841.42"><defs><style>.cls-1{fill:url(#linear-gradient);}.cls-2{opacity:0.7;}.cls-3,.cls-6{fill:#fff;}.cls-10,.cls-11,.cls-4,.cls-7,.cls-8,.cls-9{fill:none;}.cls-4{stroke:#030347;stroke-linejoin:round;stroke-width:5px;}.cls-5{fill:#030347;}.cls-6{isolation:isolate;font-size:35px;font-family:SegoeUI-Bold, Segoe UI;font-weight:700;}.cls-10,.cls-11,.cls-7,.cls-8,.cls-9{stroke-miterlimit:10;}.cls-7{stroke:url(#linear-gradient-2);}.cls-8{stroke:url(#linear-gradient-3);}.cls-9{stroke:url(#linear-gradient-4);}.cls-10{stroke:url(#linear-gradient-5);}.cls-11{stroke:url(#linear-gradient-6);}</style><linearGradient id="linear-gradient" x1="288.19" y1="380.51" x2="878.19" y2="380.51" gradientTransform="matrix(1, 0, 0, -1, 0, 843)" gradientUnits="userSpaceOnUse"><stop offset="0" stop-color="#9f2e95"/><stop offset="0.33" stop-color="#8b2cc7"/><stop offset="0.66" stop-color="#5951f1"/><stop offset="1" stop-color="#1daef4"/></linearGradient><linearGradient id="linear-gradient-2" x1="150.88" y1="653.87" x2="395.16" y2="653.87" xlink:href="#linear-gradient"/><linearGradient id="linear-gradient-3" x1="45.04" y1="522.85" x2="289.31" y2="522.85" xlink:href="#linear-gradient"/><linearGradient id="linear-gradient-4" x1="31.63" y1="-3095.06" x2="275.91" y2="-3095.06" gradientTransform="translate(0 3681.32)" xlink:href="#linear-gradient"/><linearGradient id="linear-gradient-5" x1="-2806.52" y1="-3030.02" x2="-2482.2" y2="-3030.02" gradientTransform="matrix(-1, 0, 0, 1, -1628.37, 3681.32)" xlink:href="#linear-gradient"/><linearGradient id="linear-gradient-6" x1="-2813.69" y1="707.36" x2="-2609.44" y2="707.36" gradientTransform="translate(-2077.1 843) rotate(180)" xlink:href="#linear-gradient"/></defs><circle class="cls-1" cx="583.19" cy="462.49" r="295"/><g class="cls-2"><path class="cls-3" d="M624.08,87.13h-7.72V94h7.15v2.17h-7.14v8.75h-2.32V85.06h10Z"/><path class="cls-3" d="M634.84,105.13a6.58,6.58,0,0,1-5-2A7.36,7.36,0,0,1,628,97.89a7.66,7.66,0,0,1,1.94-5.56,7,7,0,0,1,5.26-2,6.33,6.33,0,0,1,4.93,2,8.86,8.86,0,0,1-.13,10.8A6.72,6.72,0,0,1,634.84,105.13ZM635,92.25a4.28,4.28,0,0,0-3.44,1.49,6.06,6.06,0,0,0-1.27,4.08,5.78,5.78,0,0,0,1.28,4,4.35,4.35,0,0,0,3.43,1.45,4.15,4.15,0,0,0,3.37-1.42,6.11,6.11,0,0,0,1.18-4,6.2,6.2,0,0,0-1.18-4.08A4.11,4.11,0,0,0,635,92.28Z"/><path class="cls-3" d="M658.31,104.83H656V102.6h0a4.64,4.64,0,0,1-4.36,2.56q-5,0-5-6V90.72h2.24V98.8q0,4.47,3.42,4.47a3.48,3.48,0,0,0,2.73-1.22,4.64,4.64,0,0,0,1.06-3.19V90.72h2.27Z"/><path class="cls-3" d="M676,104.83h-2.26v-8c0-3-1.1-4.5-3.28-4.5a3.59,3.59,0,0,0-2.81,1.28,4.79,4.79,0,0,0-1.11,3.22v8h-2.26V90.71h2.23v2.35h.06a5.08,5.08,0,0,1,4.63-2.68,4.31,4.31,0,0,1,3.54,1.5A6.54,6.54,0,0,1,676,96.2Z"/><path class="cls-3" d="M693.72,104.83h-2.21v-2.4h-.06a5.18,5.18,0,0,1-4.94,2.7,5.3,5.3,0,0,1-4.25-1.89,7.88,7.88,0,0,1-1.55-5.11,8.52,8.52,0,0,1,1.76-5.61,5.82,5.82,0,0,1,4.7-2.11,4.5,4.5,0,0,1,4.23,2.29h.11V83.93h2.26Zm-2.21-6.38V96.36a3.94,3.94,0,0,0-1.13-2.89,3.78,3.78,0,0,0-2.87-1.19,3.93,3.93,0,0,0-3.25,1.52A6.71,6.71,0,0,0,683.07,98a6.06,6.06,0,0,0,1.14,3.86,3.73,3.73,0,0,0,3,1.41,3.85,3.85,0,0,0,3.07-1.37A5,5,0,0,0,691.51,98.45Z"/><path class="cls-3" d="M711.05,98.34h-10a5.32,5.32,0,0,0,1.27,3.64,4.37,4.37,0,0,0,3.33,1.28,7,7,0,0,0,4.39-1.57v2.12a8.25,8.25,0,0,1-4.93,1.35,6,6,0,0,1-4.7-1.92,7.9,7.9,0,0,1-1.71-5.41,7.76,7.76,0,0,1,1.87-5.37,6,6,0,0,1,4.64-2.08,5.29,5.29,0,0,1,4.3,1.75,7.44,7.44,0,0,1,1.51,5Zm-2.31-1.92a4.59,4.59,0,0,0-1-3,3.19,3.19,0,0,0-2.58-1.09,3.68,3.68,0,0,0-2.65,1.1,5.3,5.3,0,0,0-1.38,3Z"/><path class="cls-3" d="M723.25,93a2.77,2.77,0,0,0-1.71-.45,2.9,2.9,0,0,0-2.42,1.36,6.35,6.35,0,0,0-1,3.72v7.2h-2.27V90.71h2.27v2.91h0a4.89,4.89,0,0,1,1.48-2.32,3.39,3.39,0,0,1,2.22-.84,3.63,3.63,0,0,1,1.35.2Z"/><path class="cls-3" d="M726.26,104.32v-2.43a6.71,6.71,0,0,0,4.06,1.37c2,0,3-.66,3-2a1.68,1.68,0,0,0-.25-1,2.39,2.39,0,0,0-.69-.69,5.1,5.1,0,0,0-1-.55l-1.26-.5a17.42,17.42,0,0,1-1.65-.75,4.94,4.94,0,0,1-1.19-.86,3.27,3.27,0,0,1-.71-1.08,4,4,0,0,1-.25-1.42,3.58,3.58,0,0,1,.46-1.76A4.11,4.11,0,0,1,728,91.37a6.26,6.26,0,0,1,1.73-.78A8.36,8.36,0,0,1,735,91v2.28a6.36,6.36,0,0,0-3.58-1,4.13,4.13,0,0,0-1.15.15,2.67,2.67,0,0,0-.87.41,1.88,1.88,0,0,0-.57.62,1.76,1.76,0,0,0-.2.81,2.24,2.24,0,0,0,.2.92,2.08,2.08,0,0,0,.59.66,4.75,4.75,0,0,0,.93.53l1.26.51a15.83,15.83,0,0,1,1.68.74,5.23,5.23,0,0,1,1.27.85,3,3,0,0,1,.8,1.1,3.22,3.22,0,0,1,.29,1.47,3.41,3.41,0,0,1-.46,1.82,3.71,3.71,0,0,1-1.24,1.28,5.42,5.42,0,0,1-1.78.76,8.76,8.76,0,0,1-2.11.25A8,8,0,0,1,726.26,104.32Z"/></g><g class="cls-2"><path class="cls-3" d="M47.39,638.38H44.63l-3.3-5.54a10.52,10.52,0,0,0-.89-1.32,4.88,4.88,0,0,0-.87-.89,2.77,2.77,0,0,0-1-.5,3.74,3.74,0,0,0-1.16-.16h-1.9v8.41H33.22V618.61h5.9a8.35,8.35,0,0,1,2.39.32,5.18,5.18,0,0,1,1.9,1,4.52,4.52,0,0,1,1.27,1.64,6,6,0,0,1,.14,4.21,4.93,4.93,0,0,1-.88,1.54,5.1,5.1,0,0,1-1.38,1.15,6.8,6.8,0,0,1-1.81.73v.06a4.3,4.3,0,0,1,.86.5,4.87,4.87,0,0,1,.69.67,7,7,0,0,1,.66.88c.21.32.46.7.72,1.13ZM35.51,620.7v7.17h3.14a4.85,4.85,0,0,0,1.61-.26,3.88,3.88,0,0,0,1.27-.75,3.26,3.26,0,0,0,.84-1.2,3.94,3.94,0,0,0,.3-1.59,3.09,3.09,0,0,0-1-2.48,4.41,4.41,0,0,0-3-.89Z"/><path class="cls-3" d="M62.56,631.88h-10a5.37,5.37,0,0,0,1.27,3.64,4.36,4.36,0,0,0,3.34,1.29,6.86,6.86,0,0,0,4.38-1.58v2.13a8.15,8.15,0,0,1-4.92,1.35,6,6,0,0,1-4.7-1.93,7.9,7.9,0,0,1-1.71-5.41A7.76,7.76,0,0,1,52.09,626a6,6,0,0,1,4.64-2.07A5.34,5.34,0,0,1,61,625.72a7.44,7.44,0,0,1,1.51,5ZM60.25,630a4.59,4.59,0,0,0-1-3.05,3.19,3.19,0,0,0-2.58-1.09A3.66,3.66,0,0,0,54,627a5.3,5.3,0,0,0-1.38,3Z"/><path class="cls-3" d="M85.18,624.26l-4.24,14.12H78.6l-2.91-10.11a7.32,7.32,0,0,1-.22-1.31h0a6.25,6.25,0,0,1-.29,1.28L72,638.38H69.71l-4.27-14.12h2.37l2.92,10.61a5.49,5.49,0,0,1,.19,1.27H71a6.26,6.26,0,0,1,.25-1.29l3.23-10.59h2.07l2.93,10.64a5.53,5.53,0,0,1,.21,1.27h.11a6.78,6.78,0,0,1,.24-1.27l2.86-10.64Z"/><path class="cls-3" d="M99.31,638.38H97.05v-2.25h0a4.73,4.73,0,0,1-4.34,2.54,4.67,4.67,0,0,1-3.31-1.12,3.91,3.91,0,0,1-1.19-3c0-2.67,1.56-4.2,4.66-4.61l4.23-.59q0-3.6-2.91-3.6a7,7,0,0,0-4.6,1.74v-2.32a8.84,8.84,0,0,1,4.8-1.32c3.32,0,5,1.75,5,5.26Zm-2.26-7.14-3.4.46a5.63,5.63,0,0,0-2.37.78,2.25,2.25,0,0,0-.8,2,2.18,2.18,0,0,0,.73,1.69,2.87,2.87,0,0,0,2,.66A3.61,3.61,0,0,0,96,635.65a4.17,4.17,0,0,0,1.09-3Z"/><path class="cls-3" d="M112.35,626.55a2.78,2.78,0,0,0-1.71-.46,2.89,2.89,0,0,0-2.42,1.37,6.35,6.35,0,0,0-1,3.72v7.2H105V624.26h2.26v2.87h0a5,5,0,0,1,1.48-2.32,3.39,3.39,0,0,1,2.22-.84,3.84,3.84,0,0,1,1.35.19Z"/><path class="cls-3" d="M128.26,638.38H126V636h0a5.69,5.69,0,0,1-7.83,1.89,5.92,5.92,0,0,1-1.28-1.06,7.84,7.84,0,0,1-1.59-5.16A8.52,8.52,0,0,1,117,626a5.82,5.82,0,0,1,4.7-2.11,4.53,4.53,0,0,1,4.24,2.29h0v-8.74h2.26ZM126,632v-2.08a3.94,3.94,0,0,0-1.13-2.89,3.78,3.78,0,0,0-2.87-1.19,3.93,3.93,0,0,0-3.25,1.52,6.71,6.71,0,0,0-1.19,4.19,6,6,0,0,0,1.14,3.85,3.74,3.74,0,0,0,3,1.42,3.85,3.85,0,0,0,3.07-1.37A5,5,0,0,0,126,632Z"/><path class="cls-3" d="M146,630.9v7.48H143.7V618.61h5.43a7.21,7.21,0,0,1,4.92,1.54,5.51,5.51,0,0,1,1.74,4.36,6,6,0,0,1-1.94,4.6,7.35,7.35,0,0,1-5.23,1.79Zm0-10.2v8.11h2.42a5.39,5.39,0,0,0,3.66-1.1,3.85,3.85,0,0,0,1.26-3.09c0-2.61-1.54-3.91-4.63-3.92Z"/><path class="cls-3" d="M166.51,638.71a6.58,6.58,0,0,1-5-2,7.38,7.38,0,0,1-1.86-5.25,7.62,7.62,0,0,1,1.94-5.55,7,7,0,0,1,5.25-2,6.33,6.33,0,0,1,4.93,1.94,7.66,7.66,0,0,1,1.77,5.39,7.51,7.51,0,0,1-1.91,5.42A6.68,6.68,0,0,1,166.51,638.71Zm.17-12.88a4.34,4.34,0,0,0-3.45,1.48A6.14,6.14,0,0,0,162,631.4a5.85,5.85,0,0,0,1.28,4,4.42,4.42,0,0,0,3.44,1.45,4.15,4.15,0,0,0,3.37-1.42,7.51,7.51,0,0,0,0-8.08,4.1,4.1,0,0,0-3.36-1.52Z"/><path class="cls-3" d="M184.51,638.71a6.58,6.58,0,0,1-5-2,7.33,7.33,0,0,1-1.87-5.25,7.67,7.67,0,0,1,2-5.55,7,7,0,0,1,5.25-2,6.37,6.37,0,0,1,4.93,1.94,7.66,7.66,0,0,1,1.77,5.39,7.55,7.55,0,0,1-1.91,5.42A6.68,6.68,0,0,1,184.51,638.71Zm.16-12.88a4.32,4.32,0,0,0-3.44,1.48A6.14,6.14,0,0,0,180,631.4a5.78,5.78,0,0,0,1.28,4,4.38,4.38,0,0,0,3.43,1.45,4.15,4.15,0,0,0,3.37-1.42,6.11,6.11,0,0,0,1.18-4,6.2,6.2,0,0,0-1.18-4.08,4.08,4.08,0,0,0-3.4-1.52Z"/><path class="cls-3" d="M198.79,638.38h-2.28v-20.9h2.26Z"/><path class="cls-3" d="M231.56,638.69a4.12,4.12,0,0,1-1.39-.21,4,4,0,0,1-1.11-.61,7.27,7.27,0,0,1-1-1c-.32-.38-.65-.81-1-1.29a10.42,10.42,0,0,1-2.88,2.15,9.82,9.82,0,0,1-1.93.68,9.66,9.66,0,0,1-2.28.25,9.37,9.37,0,0,1-2.73-.37,6.11,6.11,0,0,1-2.12-1.09,5.13,5.13,0,0,1-1.37-1.79,5.85,5.85,0,0,1-.49-2.44,5.59,5.59,0,0,1,1.2-3.6,8.78,8.78,0,0,1,3.39-2.45,8,8,0,0,1-.83-.71,5.6,5.6,0,0,1-.74-.93,5.33,5.33,0,0,1-.52-1.14,4.88,4.88,0,0,1-.2-1.37,4.6,4.6,0,0,1,.39-1.93,4.22,4.22,0,0,1,1.09-1.42,4.65,4.65,0,0,1,1.62-.88,6.5,6.5,0,0,1,2-.29,5.88,5.88,0,0,1,2,.29,4.34,4.34,0,0,1,1.53.85,3.7,3.7,0,0,1,1,1.32,4.42,4.42,0,0,1-.58,4.48,7.45,7.45,0,0,1-2.84,1.87,7.71,7.71,0,0,1,1.73.91,9,9,0,0,1,1.42,1.19,15.08,15.08,0,0,1,1.23,1.42c.37.51.74,1,1.11,1.58a11.12,11.12,0,0,0,1.68-3.44,13,13,0,0,0,.57-3.92,5.6,5.6,0,0,0-.06-1,3.75,3.75,0,0,0-.18-.92h2.24a5,5,0,0,1,.13.86,7.55,7.55,0,0,0,.05,1,11.86,11.86,0,0,1-.27,2.52,15,15,0,0,1-.7,2.46,15.8,15.8,0,0,1-1,2.27,17.89,17.89,0,0,1-1.23,2c.32.44.62.82.88,1.15a7,7,0,0,0,.81.82,3.24,3.24,0,0,0,.84.49,2.87,2.87,0,0,0,1,.16,3.34,3.34,0,0,0,.84-.11,8.21,8.21,0,0,0,.88-.28v2.1a5.49,5.49,0,0,1-1,.29A6.63,6.63,0,0,1,231.56,638.69Zm-11.57-2a7.78,7.78,0,0,0,1.93-.23,7.1,7.1,0,0,0,1.63-.61,6.82,6.82,0,0,0,1.35-.88A10,10,0,0,0,226,634c-.56-.87-1.07-1.61-1.55-2.24a12,12,0,0,0-1.43-1.6,8.83,8.83,0,0,0-1.55-1.16,12.6,12.6,0,0,0-1.89-.9,13.83,13.83,0,0,0-1.6.77,5.5,5.5,0,0,0-1.26,1,4.61,4.61,0,0,0-.84,1.33,4.9,4.9,0,0,0-.3,1.78,3.81,3.81,0,0,0,.35,1.66,3.65,3.65,0,0,0,.94,1.19,4.43,4.43,0,0,0,1.4.72,5.9,5.9,0,0,0,1.72.23Zm3.45-14.08a2.26,2.26,0,0,0-.26-1.17,2.43,2.43,0,0,0-1.52-1.26,3.37,3.37,0,0,0-1-.15,3.12,3.12,0,0,0-2.16.73,2.61,2.61,0,0,0-.82,2,3.46,3.46,0,0,0,.17,1.06,3.87,3.87,0,0,0,.49.92,4,4,0,0,0,.72.76,5.51,5.51,0,0,0,.88.57,7.06,7.06,0,0,0,2.59-1.42,2.62,2.62,0,0,0,.91-2Z"/><path class="cls-3" d="M33.22,670.64V650.87h5.62a6.13,6.13,0,0,1,4.07,1.26,4,4,0,0,1,1.5,3.27A4.74,4.74,0,0,1,41,660.13h0a5,5,0,0,1,3.19,1.51,4.55,4.55,0,0,1,1.2,3.31,5.11,5.11,0,0,1-1.82,4.11A6.77,6.77,0,0,1,39,670.63ZM35.51,653v6.38h2.4a4.53,4.53,0,0,0,3-.91A3.17,3.17,0,0,0,42,655.85c0-1.92-1.27-2.88-3.79-2.88Zm0,8.46v7.12h3.14a4.66,4.66,0,0,0,3.16-1,3.25,3.25,0,0,0,1.13-2.64q0-3.51-4.77-3.51Z"/><path class="cls-3" d="M56.41,671a6.58,6.58,0,0,1-5-2,7.39,7.39,0,0,1-1.9-5.23,7.68,7.68,0,0,1,2-5.56,7,7,0,0,1,5.26-2,6.34,6.34,0,0,1,4.9,1.94,7.66,7.66,0,0,1,1.77,5.39,7.58,7.58,0,0,1-1.9,5.41A6.67,6.67,0,0,1,56.41,671Zm.17-12.85a4.34,4.34,0,0,0-3.45,1.48,6.16,6.16,0,0,0-1.27,4.09,5.74,5.74,0,0,0,1.29,4,4.35,4.35,0,0,0,3.43,1.45A4.12,4.12,0,0,0,60,667.73a6.09,6.09,0,0,0,1.18-4A6.2,6.2,0,0,0,60,659.65,4.13,4.13,0,0,0,56.58,658.13Z"/><path class="cls-3" d="M80.19,670.64H77.92v-8q0-4.49-3.28-4.49a3.54,3.54,0,0,0-2.8,1.27,4.79,4.79,0,0,0-1.11,3.22v8H68.51V656.53h2.26v2.34h0a5.1,5.1,0,0,1,4.64-2.67A4.31,4.31,0,0,1,79,657.69,6.64,6.64,0,0,1,80.18,662Z"/><path class="cls-3" d="M97.27,670.64H95v-2.23h0A4.63,4.63,0,0,1,90.65,671q-5,0-5-6v-8.45h2.24v8.08q0,4.46,3.42,4.46A3.42,3.42,0,0,0,94,667.85a4.58,4.58,0,0,0,1.07-3.19v-8.13h2.26Z"/><path class="cls-3" d="M102.39,670.13v-2.42a6.69,6.69,0,0,0,4.07,1.36c2,0,3-.66,3-2a1.69,1.69,0,0,0-.26-1,2.55,2.55,0,0,0-.69-.7,5.06,5.06,0,0,0-1-.54l-1.26-.5a17.51,17.51,0,0,1-1.65-.76,4.92,4.92,0,0,1-1.18-.85,3.3,3.3,0,0,1-.72-1.08,4.28,4.28,0,0,1-.24-1.42,3.38,3.38,0,0,1,.46-1.76,4.11,4.11,0,0,1,1.21-1.28,5.39,5.39,0,0,1,1.73-.78,7.58,7.58,0,0,1,2-.26,8.16,8.16,0,0,1,3.28.63v2.36a6.41,6.41,0,0,0-3.59-1,4.45,4.45,0,0,0-1.14.14,3.35,3.35,0,0,0-.88.41,1.89,1.89,0,0,0-.56.63,1.69,1.69,0,0,0-.2.8,1.84,1.84,0,0,0,.78,1.59,4.57,4.57,0,0,0,.94.52l1.25.51c.63.24,1.19.49,1.69.74a5.51,5.51,0,0,1,1.26.86,3.11,3.11,0,0,1,.81,1.09,3.93,3.93,0,0,1-.18,3.3,4.06,4.06,0,0,1-1.23,1.28,5.64,5.64,0,0,1-1.78.76,8.76,8.76,0,0,1-2.11.25A8,8,0,0,1,102.39,670.13Z"/></g><g class="cls-2"><path class="cls-3" d="M161.44,129.87a8.69,8.69,0,0,1-6.73-2.74,10.34,10.34,0,0,1-2.53-7.21,10.93,10.93,0,0,1,2.58-7.61,9,9,0,0,1,7-2.84,8.44,8.44,0,0,1,6.59,2.76,10.24,10.24,0,0,1,2.5,7.21,10.89,10.89,0,0,1-2.56,7.65A8.83,8.83,0,0,1,161.44,129.87Zm.17-18.34a6.39,6.39,0,0,0-5.06,2.25,10,10,0,0,0,0,11.78,6.16,6.16,0,0,0,4.94,2.23,6.47,6.47,0,0,0,5.13-2.13,8.59,8.59,0,0,0,1.88-5.94,9,9,0,0,0-1.82-6,6.23,6.23,0,0,0-5.07-2.14Z"/><path class="cls-3" d="M178.19,127.5h-.06V136h-2.26V115.42h2.26v2.48h.06a5.37,5.37,0,0,1,4.88-2.81,5.13,5.13,0,0,1,4.26,1.9,7.78,7.78,0,0,1,1.53,5.08,8.69,8.69,0,0,1-1.73,5.67,5.72,5.72,0,0,1-4.71,2.13A4.73,4.73,0,0,1,178.19,127.5Zm-.06-5.7v2a4.22,4.22,0,0,0,1.14,3,4.06,4.06,0,0,0,5.73.07,3.08,3.08,0,0,0,.38-.43,7.14,7.14,0,0,0,1.16-4.37,5.6,5.6,0,0,0-1.09-3.69A3.57,3.57,0,0,0,182.5,117a4,4,0,0,0-3.17,1.37A5.1,5.1,0,0,0,178.13,121.8Z"/><path class="cls-3" d="M205.23,123.05h-10a5.29,5.29,0,0,0,1.27,3.63,4.34,4.34,0,0,0,3.33,1.29,7,7,0,0,0,4.39-1.58v2.13a8.15,8.15,0,0,1-4.92,1.35,6,6,0,0,1-4.7-1.92,7.91,7.91,0,0,1-1.71-5.42,7.77,7.77,0,0,1,1.86-5.36,6,6,0,0,1,4.64-2.08,5.32,5.32,0,0,1,4.29,1.79,7.48,7.48,0,0,1,1.52,5Zm-2.32-1.92a4.58,4.58,0,0,0-.94-3,3.22,3.22,0,0,0-2.59-1.09,3.62,3.62,0,0,0-2.71,1.15,5.21,5.21,0,0,0-1.38,3Z"/><path class="cls-3" d="M217.42,117.71a2.77,2.77,0,0,0-1.71-.45,2.9,2.9,0,0,0-2.42,1.36,6.35,6.35,0,0,0-1,3.72v7.2H210V115.42h2.26v2.91h.05a5,5,0,0,1,1.48-2.32,3.39,3.39,0,0,1,2.22-.84,3.63,3.63,0,0,1,1.35.2Z"/><path class="cls-3" d="M231.39,129.54h-2.26v-2.21h0a4.75,4.75,0,0,1-4.35,2.54,4.65,4.65,0,0,1-3.3-1.12,3.91,3.91,0,0,1-1.19-3c0-2.64,1.55-4.17,4.66-4.61l4.23-.59q0-3.6-2.91-3.6a7,7,0,0,0-4.6,1.74v-2.32a8.7,8.7,0,0,1,4.79-1.24c3.34,0,5,1.76,5,5.27Zm-2.26-7.14-3.41.47a5.62,5.62,0,0,0-2.37.77,2.3,2.3,0,0,0-.8,2,2.2,2.2,0,0,0,.74,1.69,2.87,2.87,0,0,0,2,.66,3.58,3.58,0,0,0,2.77-1.18,4.2,4.2,0,0,0,1.1-3Z"/><path class="cls-3" d="M243.61,129.4a4.38,4.38,0,0,1-2.11.44q-3.7,0-3.71-4.13v-8.36h-2.42v-1.93h2.42V112l2.26-.73v4.18h3.56v1.93h-3.56v8a3.35,3.35,0,0,0,.49,2,1.91,1.91,0,0,0,1.6.61,2.35,2.35,0,0,0,1.47-.47Z"/><path class="cls-3" d="M249.2,111.84a1.42,1.42,0,0,1-1-.42,1.39,1.39,0,0,1-.43-1,1.46,1.46,0,0,1,1.42-1.48h0a1.4,1.4,0,0,1,1.05.42,1.45,1.45,0,0,1,0,2.06l0,0A1.48,1.48,0,0,1,249.2,111.84Zm1.1,17.7H248V115.42h2.26Z"/><path class="cls-3" d="M262.19,129.87a6.58,6.58,0,0,1-5-2,7.38,7.38,0,0,1-1.86-5.25,7.62,7.62,0,0,1,1.94-5.55,7,7,0,0,1,5.25-2,6.33,6.33,0,0,1,4.93,1.94,7.69,7.69,0,0,1,1.77,5.4,7.53,7.53,0,0,1-1.91,5.41A6.68,6.68,0,0,1,262.19,129.87Zm.17-12.88a4.34,4.34,0,0,0-3.45,1.48,6.14,6.14,0,0,0-1.27,4.09,5.8,5.8,0,0,0,1.28,4,4.42,4.42,0,0,0,3.44,1.45,4.15,4.15,0,0,0,3.37-1.42,7.51,7.51,0,0,0,0-8.08A4.08,4.08,0,0,0,262.36,117Z"/><path class="cls-3" d="M286,129.54H283.7v-8q0-4.5-3.28-4.5a3.58,3.58,0,0,0-2.8,1.28,4.79,4.79,0,0,0-1.11,3.22v8h-2.26V115.42h2.26v2.35h.05a5.09,5.09,0,0,1,4.63-2.68,4.32,4.32,0,0,1,3.55,1.5,6.59,6.59,0,0,1,1.22,4.32Z"/><path class="cls-3" d="M318.41,129.86a4.38,4.38,0,0,1-1.38-.22,4.13,4.13,0,0,1-1.11-.6,8.59,8.59,0,0,1-1-1c-.31-.38-.65-.81-1-1.28a9.84,9.84,0,0,1-1.27,1.14,9.21,9.21,0,0,1-1.61,1,9.82,9.82,0,0,1-1.93.68,9.58,9.58,0,0,1-2.27.26,9.38,9.38,0,0,1-2.73-.38,6.11,6.11,0,0,1-2.12-1.09,5.25,5.25,0,0,1-1.38-1.79,6,6,0,0,1-.49-2.44,5.6,5.6,0,0,1,1.21-3.6,8.63,8.63,0,0,1,3.39-2.45,6.24,6.24,0,0,1-.82-.71,5,5,0,0,1-.74-.92,4.57,4.57,0,0,1-.52-1.15,4,4,0,0,1-.2-1.37,4.31,4.31,0,0,1,.39-1.93,4.07,4.07,0,0,1,1.08-1.42,4.53,4.53,0,0,1,1.63-.88,7.06,7.06,0,0,1,2-.29,6.5,6.5,0,0,1,2,.29,4.91,4.91,0,0,1,1.53.85,4.09,4.09,0,0,1,1,1.33,4.24,4.24,0,0,1,.36,1.72,4.13,4.13,0,0,1-1,2.75,7.57,7.57,0,0,1-2.83,1.87,8.34,8.34,0,0,1,1.72.91,11,11,0,0,1,1.43,1.2,13.82,13.82,0,0,1,1.22,1.42c.38.5.75,1,1.12,1.57a11.77,11.77,0,0,0,1.68-3.43,13.78,13.78,0,0,0,.56-3.93,8.39,8.39,0,0,0-.06-1,3.75,3.75,0,0,0-.18-.92h2.2a5.07,5.07,0,0,1,.13.87,9.61,9.61,0,0,0,0,1,11.85,11.85,0,0,1-.26,2.52,17.88,17.88,0,0,1-2.92,6.69c.32.44.61.83.88,1.15a5.65,5.65,0,0,0,.8.82,3.24,3.24,0,0,0,.84.49,2.87,2.87,0,0,0,1,.16,3.34,3.34,0,0,0,.84-.11,8.21,8.21,0,0,0,.88-.28v2.1a5.49,5.49,0,0,1-1,.29A6.73,6.73,0,0,1,318.41,129.86Zm-11.56-2a7.78,7.78,0,0,0,1.93-.23,7,7,0,0,0,1.62-.61,6.89,6.89,0,0,0,1.36-.88,10,10,0,0,0,1.1-1c-.56-.88-1.08-1.62-1.55-2.24a12.19,12.19,0,0,0-1.44-1.61,8.4,8.4,0,0,0-1.54-1.16,11.76,11.76,0,0,0-1.9-.89,14.58,14.58,0,0,0-1.6.76,5.78,5.78,0,0,0-1.26,1,4.58,4.58,0,0,0-.83,1.33,4.9,4.9,0,0,0-.3,1.78,4,4,0,0,0,.34,1.66,3.6,3.6,0,0,0,1,1.19,4.19,4.19,0,0,0,1.39.72,6,6,0,0,0,1.68.27Zm3.44-14.08a2.38,2.38,0,0,0-.25-1.17,2.52,2.52,0,0,0-1.52-1.26,3.37,3.37,0,0,0-1-.15,3.08,3.08,0,0,0-2.15.73,2.61,2.61,0,0,0-.82,2,3.46,3.46,0,0,0,.17,1.06,3.83,3.83,0,0,0,.48.92,4.05,4.05,0,0,0,.73.76,5.18,5.18,0,0,0,.89.57,7.4,7.4,0,0,0,2.58-1.41,2.65,2.65,0,0,0,.89-2Z"/><path class="cls-3" d="M153.51,161.81V142H159q10.44,0,10.45,9.63a9.67,9.67,0,0,1-2.91,7.36,10.77,10.77,0,0,1-7.77,2.78Zm2.28-17.68v15.58h3a8.32,8.32,0,0,0,6-2.08,7.78,7.78,0,0,0,2.17-5.9q0-7.6-8.08-7.6Z"/><path class="cls-3" d="M185.73,155.31h-10A5.37,5.37,0,0,0,177,159a4.37,4.37,0,0,0,3.33,1.28,6.92,6.92,0,0,0,4.39-1.57v2.13a8.15,8.15,0,0,1-4.92,1.35,6,6,0,0,1-4.7-1.93,7.9,7.9,0,0,1-1.71-5.41,7.8,7.8,0,0,1,1.86-5.37,6,6,0,0,1,4.64-2.07,5.32,5.32,0,0,1,4.32,1.77,7.38,7.38,0,0,1,1.52,5Zm-2.32-1.91a4.58,4.58,0,0,0-.94-3.05,3.22,3.22,0,0,0-2.59-1.09,3.66,3.66,0,0,0-2.71,1.14,5.21,5.21,0,0,0-1.38,3Z"/><path class="cls-3" d="M201.66,147.69,196,161.81h-2.22l-5.3-14.12H191L194.51,158a9.3,9.3,0,0,1,.5,2h0a9.72,9.72,0,0,1,.44-1.92l3.75-10.31Z"/><path class="cls-3" d="M216.84,155.31h-10a5.37,5.37,0,0,0,1.27,3.64,4.37,4.37,0,0,0,3.4,1.28,6.91,6.91,0,0,0,4.38-1.57v2.13a8.15,8.15,0,0,1-4.92,1.35,6,6,0,0,1-4.7-1.93,7.9,7.9,0,0,1-1.71-5.41,7.76,7.76,0,0,1,1.87-5.37,6,6,0,0,1,4.64-2.07,5.3,5.3,0,0,1,4.28,1.79,7.38,7.38,0,0,1,1.52,5Zm-2.33-1.91a4.48,4.48,0,0,0-.94-3.05,3.19,3.19,0,0,0-2.58-1.09,3.65,3.65,0,0,0-2.72,1.14,5.37,5.37,0,0,0-1.38,3Z"/><path class="cls-3" d="M223.93,161.81h-2.26v-20.9h2.26Z"/><path class="cls-3" d="M235.82,162.13a6.58,6.58,0,0,1-5-2,7.38,7.38,0,0,1-1.86-5.25,7.62,7.62,0,0,1,1.94-5.55,7,7,0,0,1,5.25-2,6.33,6.33,0,0,1,4.93,1.94,7.66,7.66,0,0,1,1.77,5.39,7.48,7.48,0,0,1-1.91,5.41A6.68,6.68,0,0,1,235.82,162.13Zm.17-12.88a4.34,4.34,0,0,0-3.45,1.48,6.14,6.14,0,0,0-1.27,4.09,5.85,5.85,0,0,0,1.28,4,4.38,4.38,0,0,0,3.44,1.44,4.12,4.12,0,0,0,3.37-1.42,6.11,6.11,0,0,0,1.18-4,6.26,6.26,0,0,0-1.18-4.08,4.12,4.12,0,0,0-3.37-1.5Z"/><path class="cls-3" d="M250.19,159.77h-.05v8.53h-2.26V147.69h2.26v2.44h.05a5.37,5.37,0,0,1,4.88-2.81,5.18,5.18,0,0,1,4.26,1.89,7.8,7.8,0,0,1,1.53,5.08,8.71,8.71,0,0,1-1.72,5.68,5.72,5.72,0,0,1-4.72,2.13A4.73,4.73,0,0,1,250.19,159.77Zm-.05-5.7v2a4.26,4.26,0,0,0,1.13,3,4.07,4.07,0,0,0,5.75.06,3.52,3.52,0,0,0,.36-.41,7.06,7.06,0,0,0,1.17-4.37,5.68,5.68,0,0,0-1.09-3.69,3.61,3.61,0,0,0-2.95-1.34,4,4,0,0,0-3.17,1.37A5,5,0,0,0,250.14,154.07Z"/><path class="cls-3" d="M285.93,161.81h-2.26V153.7a6.15,6.15,0,0,0-.72-3.39,2.77,2.77,0,0,0-2.44-1.05,3,3,0,0,0-2.46,1.32,5.19,5.19,0,0,0-1,3.18v8.05h-2.26v-8.39c0-2.77-1.07-4.15-3.21-4.16a3,3,0,0,0-2.46,1.25,5.18,5.18,0,0,0-1,3.25v8.05h-2.26V147.69h2.26v2.23h.05a4.8,4.8,0,0,1,4.39-2.56,4.14,4.14,0,0,1,2.52.8,3.92,3.92,0,0,1,1.47,2.12,5,5,0,0,1,4.69-2.92c3.11,0,4.66,1.91,4.66,5.75Z"/><path class="cls-3" d="M303,155.31H293a5.31,5.31,0,0,0,1.26,3.64,4.39,4.39,0,0,0,3.34,1.28,6.91,6.91,0,0,0,4.38-1.57v2.13a8.15,8.15,0,0,1-4.92,1.35,6,6,0,0,1-4.7-1.93,7.9,7.9,0,0,1-1.71-5.41,7.75,7.75,0,0,1,1.9-5.37,6,6,0,0,1,4.64-2.07,5.32,5.32,0,0,1,4.29,1.79,7.44,7.44,0,0,1,1.51,5Zm-2.31-1.91a4.59,4.59,0,0,0-.95-3.05,3.19,3.19,0,0,0-2.58-1.09,3.69,3.69,0,0,0-2.72,1.14,5.37,5.37,0,0,0-1.38,3Z"/><path class="cls-3" d="M319.51,161.81h-2.26v-8.05q0-4.5-3.28-4.5a3.59,3.59,0,0,0-2.81,1.28,4.79,4.79,0,0,0-1.11,3.22v8.05h-2.26V147.69h2.26V150h.06a5.12,5.12,0,0,1,4.63-2.67,4.34,4.34,0,0,1,3.55,1.49,6.63,6.63,0,0,1,1.22,4.33Z"/><path class="cls-3" d="M331.73,161.67a4.38,4.38,0,0,1-2.11.44q-3.71,0-3.71-4.14v-8.35h-2.4v-1.93h2.42v-3.45l2.27-.73v4.18h3.55v1.93H328.2v7.95a3.42,3.42,0,0,0,.48,2,1.94,1.94,0,0,0,1.6.61,2.35,2.35,0,0,0,1.47-.47Z"/></g><polyline class="cls-4" points="363.32 265.82 583.2 462.49 583.2 167.49"/><polyline class="cls-4" points="367.25 663.47 583.2 462.49 475.33 187.84"/><line class="cls-4" x1="583.19" y1="462.49" x2="289.94" y2="430.25"/><circle class="cls-5" cx="583.19" cy="462.49" r="190"/><text class="cls-6" transform="translate(749.64 611.47)">60%</text><path class="cls-3" d="M439.4,254.44c-1.09,2-2.07,3.82-2.94,5.55s-1.63,3.43-2.29,5.11a50.22,50.22,0,0,0-2.81,10.74h-5.64a46.65,46.65,0,0,1,1.27-5.5c.52-1.74,1.13-3.46,1.82-5.14s1.45-3.27,2.29-4.84,1.72-3.11,2.66-4.62H422.34v-4.41H439.4Z"/><path class="cls-3" d="M448.18,263.76A5.59,5.59,0,0,1,444,262.1a6.19,6.19,0,0,1-1.6-4.46,6.79,6.79,0,0,1,1.7-4.85,6,6,0,0,1,4.54-1.8,5.51,5.51,0,0,1,4.25,1.63,6.33,6.33,0,0,1,1.53,4.56,6.62,6.62,0,0,1-1.69,4.8A5.92,5.92,0,0,1,448.18,263.76Zm17.9-12.43-16,24.51h-4.17l15.92-24.51ZM448.51,254c-1.66,0-2.5,1.16-2.5,3.47s.8,3.28,2.38,3.28,2.43-1.14,2.43-3.42S450.05,254,448.51,254Zm14.94,22.18a5.57,5.57,0,0,1-4.22-1.66,6.2,6.2,0,0,1-1.59-4.46,6.79,6.79,0,0,1,1.7-4.85,6,6,0,0,1,4.53-1.79,5.6,5.6,0,0,1,4.26,1.6,6.35,6.35,0,0,1,1.52,4.55,6.71,6.71,0,0,1-1.69,4.82A5.85,5.85,0,0,1,463.45,276.18Zm.27-9.75c-1.65,0-2.48,1.15-2.48,3.46s.8,3.29,2.41,3.29,2.43-1.14,2.43-3.42a4,4,0,0,0-.65-2.46A2,2,0,0,0,463.72,266.43Z"/><path class="cls-3" d="M340.23,351.59v25.05h-5.38v-19a6.16,6.16,0,0,1-1,.74,11.06,11.06,0,0,1-1.29.64c-.46.18-.93.34-1.42.48a9.92,9.92,0,0,1-1.46.28v-4.55a21.58,21.58,0,0,0,4-1.57,22.89,22.89,0,0,0,3.37-2.1Z"/><path class="cls-3" d="M356.07,377.07q-8.73,0-8.75-12.29,0-6.37,2.37-9.72a7.91,7.91,0,0,1,6.86-3.34q8.55,0,8.55,12.5,0,6.21-2.34,9.53A7.65,7.65,0,0,1,356.07,377.07Zm.24-21.23q-3.48,0-3.5,8.8c0,5.53,1.15,8.3,3.43,8.29s3.35-2.85,3.35-8.54S358.51,355.84,356.31,355.84Z"/><path class="cls-3" d="M373.62,364.56a5.59,5.59,0,0,1-4.21-1.66,6.19,6.19,0,0,1-1.6-4.46,6.79,6.79,0,0,1,1.7-4.85,6,6,0,0,1,4.54-1.8,5.51,5.51,0,0,1,4.25,1.63,6.33,6.33,0,0,1,1.53,4.56,6.62,6.62,0,0,1-1.69,4.8A5.92,5.92,0,0,1,373.62,364.56Zm17.89-12.43-16,24.51h-4.17l16-24.51Zm-17.57,2.67c-1.66,0-2.5,1.16-2.5,3.47s.8,3.28,2.38,3.28,2.43-1.14,2.43-3.42-.74-3.33-2.3-3.33ZM388.88,377a5.57,5.57,0,0,1-4.22-1.66,6.2,6.2,0,0,1-1.59-4.46,6.79,6.79,0,0,1,1.7-4.85,5.94,5.94,0,0,1,4.53-1.79,5.6,5.6,0,0,1,4.26,1.6,6.35,6.35,0,0,1,1.52,4.55,6.71,6.71,0,0,1-1.69,4.82,5.92,5.92,0,0,1-4.5,1.79Zm.27-9.76c-1.65,0-2.48,1.16-2.48,3.47s.8,3.28,2.41,3.28,2.43-1.13,2.43-3.41a4,4,0,0,0-.65-2.46,2.07,2.07,0,0,0-1.7-.88Z"/><path class="cls-3" d="M333.23,524.13v25h-5.39v-19a5.57,5.57,0,0,1-1,.75,9.63,9.63,0,0,1-1.29.63,11.28,11.28,0,0,1-1.42.48,10,10,0,0,1-1.45.28v-4.55a22.59,22.59,0,0,0,7.37-3.67Z"/><path class="cls-3" d="M340.51,542.57a6.78,6.78,0,0,1,.3-2,6.37,6.37,0,0,1,.9-1.76,6.87,6.87,0,0,1,1.5-1.45,8,8,0,0,1,2.11-1,7.64,7.64,0,0,1-2.89-2.37,5.45,5.45,0,0,1-1-3.2,6,6,0,0,1,.59-2.6,6.48,6.48,0,0,1,1.64-2.07,7.91,7.91,0,0,1,2.48-1.36,10,10,0,0,1,3.15-.48,10.18,10.18,0,0,1,3.2.48,7.87,7.87,0,0,1,2.5,1.35,5.88,5.88,0,0,1,1.64,2,5.68,5.68,0,0,1,.58,2.56,5,5,0,0,1-1.1,3.17,8.12,8.12,0,0,1-3,2.35,8,8,0,0,1,2.1,1,7,7,0,0,1,1.52,1.46,5.74,5.74,0,0,1,.92,1.79,6.67,6.67,0,0,1-.32,4.87,6.5,6.5,0,0,1-1.78,2.22,8.19,8.19,0,0,1-2.76,1.44,11.1,11.1,0,0,1-3.53.52,11.48,11.48,0,0,1-3.49-.51,8.47,8.47,0,0,1-2.75-1.42,6.81,6.81,0,0,1-1.8-2.22A6.19,6.19,0,0,1,340.51,542.57Zm5.12-.47a4.56,4.56,0,0,0,.25,1.51,3.31,3.31,0,0,0,.74,1.13,3.43,3.43,0,0,0,1.13.71,4.18,4.18,0,0,0,1.48.24,3.86,3.86,0,0,0,1.44-.25,3.3,3.3,0,0,0,1.14-.72,3.07,3.07,0,0,0,.75-1.13,3.62,3.62,0,0,0,.28-1.49,4,4,0,0,0-.26-1.4,3.31,3.31,0,0,0-.73-1.15,3.61,3.61,0,0,0-1.14-.78,3.56,3.56,0,0,0-1.48-.29,3.94,3.94,0,0,0-1.43.27,3.23,3.23,0,0,0-1.15.75,3.69,3.69,0,0,0-.75,1.15,4.14,4.14,0,0,0-.28,1.48Zm.75-10.85a3.36,3.36,0,0,0,.85,2.22,2.74,2.74,0,0,0,.93.65,2.81,2.81,0,0,0,1.14.24,2.74,2.74,0,0,0,1.14-.24,2.71,2.71,0,0,0,.94-.66,3.38,3.38,0,0,0,.63-1,3,3,0,0,0,.23-1.22A3.31,3.31,0,0,0,352,530a2.92,2.92,0,0,0-.63-1,2.71,2.71,0,0,0-.94-.66,3,3,0,0,0-1.15-.23,3.08,3.08,0,0,0-1.19.24,3,3,0,0,0-.92.67,3.17,3.17,0,0,0-.6,1,3.66,3.66,0,0,0-.22,1.23Z"/><path class="cls-3" d="M366.62,537.13a5.55,5.55,0,0,1-4.21-1.66,6.19,6.19,0,0,1-1.6-4.46,6.77,6.77,0,0,1,1.7-4.88,6,6,0,0,1,4.54-1.8,5.53,5.53,0,0,1,4.24,1.63,6.33,6.33,0,0,1,1.53,4.56,6.62,6.62,0,0,1-1.69,4.8A5.91,5.91,0,0,1,366.62,537.13Zm17.89-12.47-16,24.47h-4.17l15.93-24.5Zm-17.57,2.66c-1.66,0-2.49,1.16-2.49,3.47s.79,3.28,2.37,3.28,2.43-1.14,2.43-3.41S368.51,527.32,366.94,527.32Zm14.94,22.19a5.63,5.63,0,0,1-4.21-1.66,6.19,6.19,0,0,1-1.6-4.46,6.81,6.81,0,0,1,1.7-4.86,6,6,0,0,1,4.54-1.79,5.51,5.51,0,0,1,4.25,1.61,6.28,6.28,0,0,1,1.52,4.54,6.66,6.66,0,0,1-1.69,4.82A5.86,5.86,0,0,1,381.88,549.51Zm.27-9.76c-1.65,0-2.48,1.15-2.48,3.47s.81,3.28,2.41,3.28,2.43-1.14,2.43-3.37a4,4,0,0,0-.65-2.46,2,2,0,0,0-1.71-.92Z"/><path class="cls-3" d="M515.17,235v-4.62a10.05,10.05,0,0,0,5.35,1.54,5,5,0,0,0,3.34-1,3.39,3.39,0,0,0,1.2-2.76c0-2.42-1.71-3.64-5.14-3.64a37.9,37.9,0,0,0-4.38.29l1-13.71h13v4.41h-8.86l-.34,4.91c.88-.07,1.64-.11,2.28-.11a8.32,8.32,0,0,1,5.91,2,6.93,6.93,0,0,1,2.14,5.33,7.82,7.82,0,0,1-2.55,6.06,9.77,9.77,0,0,1-7,2.4A15,15,0,0,1,515.17,235Z"/><path class="cls-3" d="M540.22,223.58a5.63,5.63,0,0,1-4.21-1.66,6.19,6.19,0,0,1-1.6-4.46,6.81,6.81,0,0,1,1.7-4.86,6,6,0,0,1,4.54-1.79,5.56,5.56,0,0,1,4.25,1.62,6.41,6.41,0,0,1,1.52,4.57,6.62,6.62,0,0,1-1.69,4.8A6,6,0,0,1,540.22,223.58Zm17.89-12.45-16,24.51h-4.17l16-24.51Zm-17.6,2.69c-1.67,0-2.5,1.15-2.5,3.47s.79,3.28,2.38,3.28,2.42-1.14,2.42-3.42S542.08,213.82,540.51,213.82Zm15,22.18a5.55,5.55,0,0,1-4.21-1.66,6.19,6.19,0,0,1-1.6-4.46,6.79,6.79,0,0,1,1.7-4.85,6,6,0,0,1,4.54-1.79,5.55,5.55,0,0,1,4.25,1.6,6.31,6.31,0,0,1,1.53,4.55,6.72,6.72,0,0,1-1.7,4.82A5.89,5.89,0,0,1,555.51,236Zm.28-9.76c-1.65,0-2.47,1.16-2.47,3.47s.79,3.28,2.4,3.28,2.42-1.14,2.42-3.41a4,4,0,0,0-.63-2.45,2,2,0,0,0-1.75-.89Z"/><polyline class="cls-7" points="150.88 175.13 366.67 175.13 394.81 203.27"/><g class="cls-2"><path class="cls-3" d="M50,253.13v7.47H47.63V240.79h5.43A7.17,7.17,0,0,1,58,242.34a5.49,5.49,0,0,1,1.74,4.35,6,6,0,0,1-1.94,4.61,7.42,7.42,0,0,1-5.27,1.83Zm0-10.2V251h2.42A5.39,5.39,0,0,0,56,249.94a3.84,3.84,0,0,0,1.26-3.1c0-2.61-1.54-3.92-4.63-3.91Z"/><path class="cls-3" d="M74.66,260.56H72.4v-2.2h-.06a5.16,5.16,0,0,1-7.64,1.42,3.92,3.92,0,0,1-1.2-3c0-2.64,1.56-4.17,4.66-4.6l4.24-.6c0-2.39-1-3.59-2.91-3.59a7,7,0,0,0-4.61,1.73v-2.31a8.77,8.77,0,0,1,4.8-1.33c3.34,0,5,1.76,5,5.27Zm-2.26-7.14-3.41.47a5.63,5.63,0,0,0-2.37.78,2.25,2.25,0,0,0-.8,2,2.21,2.21,0,0,0,.74,1.69,2.86,2.86,0,0,0,2,.65,3.61,3.61,0,0,0,2.78-1.18,4.16,4.16,0,0,0,1.1-3Z"/><path class="cls-3" d="M87.69,248.73a2.77,2.77,0,0,0-1.71-.45,2.9,2.9,0,0,0-2.42,1.36,6.38,6.38,0,0,0-1,3.73v7.19H80.3V246.44h2.26v2.91h0A5,5,0,0,1,84,247a3.38,3.38,0,0,1,2.22-.83,3.62,3.62,0,0,1,1.35.19Z"/><path class="cls-3" d="M98.1,260.42a4.22,4.22,0,0,1-2.1.45c-2.48,0-3.71-1.38-3.71-4.14v-8.36H89.86v-1.93h2.43V243l2.26-.73v4.17H98.1v1.93H94.51v8a3.42,3.42,0,0,0,.48,2,1.94,1.94,0,0,0,1.6.6,2.29,2.29,0,0,0,1.47-.47Z"/><path class="cls-3" d="M114.25,260.56H112v-8.05c0-3-1.09-4.49-3.28-4.49a3.54,3.54,0,0,0-2.8,1.27,4.74,4.74,0,0,0-1.11,3.22v8.05h-2.29V246.44h2.27v2.35h0a5.12,5.12,0,0,1,4.73-2.66,4.32,4.32,0,0,1,3.55,1.5,6.66,6.66,0,0,1,1.22,4.32Z"/><path class="cls-3" d="M131.27,254.07h-10a5.37,5.37,0,0,0,1.27,3.64,4.4,4.4,0,0,0,3.34,1.28,6.91,6.91,0,0,0,4.38-1.57v2.12a8.15,8.15,0,0,1-4.92,1.35,6,6,0,0,1-4.7-1.92,7.9,7.9,0,0,1-1.71-5.41,7.76,7.76,0,0,1,1.87-5.37,6,6,0,0,1,4.71-2.06,5.28,5.28,0,0,1,4.28,1.8,7.38,7.38,0,0,1,1.52,5ZM129,252.13a4.52,4.52,0,0,0-.94-3,3.22,3.22,0,0,0-2.59-1.09,3.69,3.69,0,0,0-2.71,1.09,5.21,5.21,0,0,0-1.38,3Z"/><path class="cls-3" d="M143.51,248.73a2.77,2.77,0,0,0-1.71-.45,2.9,2.9,0,0,0-2.42,1.36,6.38,6.38,0,0,0-1,3.73v7.19h-2.26V246.44h2.26v2.91h.06a5.08,5.08,0,0,1,1.47-2.32,3.38,3.38,0,0,1,2.22-.83,3.62,3.62,0,0,1,1.35.19Z"/><path class="cls-3" d="M146.51,260.05v-2.42a6.69,6.69,0,0,0,4.07,1.36c2,0,3-.66,3-2a1.69,1.69,0,0,0-.26-1,2.2,2.2,0,0,0-.69-.7,5.06,5.06,0,0,0-1-.54l-1.26-.51a17.25,17.25,0,0,1-1.64-.75,5.18,5.18,0,0,1-1.19-.85,3.34,3.34,0,0,1-.72-1.09,4,4,0,0,1-.24-1.42,3.37,3.37,0,0,1,.46-1.75,4.15,4.15,0,0,1,1.21-1.29,5.84,5.84,0,0,1,1.73-.77,7.59,7.59,0,0,1,2-.27,8.16,8.16,0,0,1,3.28.64V249a6.41,6.41,0,0,0-3.59-1,3.81,3.81,0,0,0-1.16.15,2.94,2.94,0,0,0-.88.41,1.85,1.85,0,0,0-.56.62,1.76,1.76,0,0,0-.2.81,2,2,0,0,0,.2.93,2.3,2.3,0,0,0,.58.66,5.09,5.09,0,0,0,.94.52l1.26.51c.62.24,1.18.49,1.68.74a5.75,5.75,0,0,1,1.27.85,3.46,3.46,0,0,1,.8,1.1,3.87,3.87,0,0,1-.18,3.29,3.79,3.79,0,0,1-1.23,1.29,5.4,5.4,0,0,1-1.78.75,8.76,8.76,0,0,1-2.11.25A8,8,0,0,1,146.51,260.05Z"/><path class="cls-3" d="M172.44,260.56h-2.26v-8.13c0-2.94-1.1-4.41-3.28-4.41a3.58,3.58,0,0,0-2.79,1.27,4.82,4.82,0,0,0-1.13,3.28v8h-2.26v-20.9H163v9.13H163a5.13,5.13,0,0,1,4.63-2.68q4.77,0,4.77,5.75Z"/><path class="cls-3" d="M179.27,242.86a1.45,1.45,0,0,1-1-.41,1.47,1.47,0,0,1-.42-1,1.49,1.49,0,0,1,1.49-1.48,1.45,1.45,0,0,1,1,.42,1.42,1.42,0,0,1,.44,1.06,1.36,1.36,0,0,1-.44,1A1.42,1.42,0,0,1,179.27,242.86Zm1.1,17.7h-2.26V246.44h2.26Z"/><path class="cls-3" d="M188.68,258.52h-.06v8.54h-2.26V246.44h2.26v2.49h.06a5.34,5.34,0,0,1,4.88-2.82,5.16,5.16,0,0,1,4.26,1.9,7.78,7.78,0,0,1,1.53,5.08,8.69,8.69,0,0,1-1.73,5.67,5.72,5.72,0,0,1-4.71,2.13A4.73,4.73,0,0,1,188.68,258.52Zm-.06-5.69v2a4.22,4.22,0,0,0,1.14,3,4.07,4.07,0,0,0,5.75.06,3.52,3.52,0,0,0,.36-.41,7.21,7.21,0,0,0,1.16-4.37,5.65,5.65,0,0,0-1.09-3.7,3.6,3.6,0,0,0-3-1.33,4,4,0,0,0-3.17,1.37A5.07,5.07,0,0,0,188.62,252.83Z"/><path class="cls-3" d="M231.15,260.88a4.12,4.12,0,0,1-1.39-.21,4.46,4.46,0,0,1-1.11-.61,6.31,6.31,0,0,1-1-1c-.32-.38-.65-.8-1-1.28a9.23,9.23,0,0,1-1.28,1.14,8.77,8.77,0,0,1-1.6,1,9.56,9.56,0,0,1-4.21.94,9.37,9.37,0,0,1-2.73-.37,6.13,6.13,0,0,1-2.12-1.1,5.1,5.1,0,0,1-1.37-1.78,5.9,5.9,0,0,1-.49-2.45,5.64,5.64,0,0,1,1.2-3.6,8.76,8.76,0,0,1,3.46-2.43,8,8,0,0,1-.83-.71,6.62,6.62,0,0,1-.74-.92,6,6,0,0,1-.52-1.15,4.92,4.92,0,0,1,.19-3.3,4.22,4.22,0,0,1,1.09-1.42,4.8,4.8,0,0,1,1.62-.87,6.83,6.83,0,0,1,2-.3,6.14,6.14,0,0,1,2,.3,4.34,4.34,0,0,1,1.53.85,3.7,3.7,0,0,1,1,1.32,4.41,4.41,0,0,1-.58,4.47,7.16,7.16,0,0,1-2.84,1.87,7.71,7.71,0,0,1,1.73.91,10.24,10.24,0,0,1,1.42,1.2,11.73,11.73,0,0,1,1.22,1.42c.38.51.75,1,1.12,1.57a11.29,11.29,0,0,0,1.68-3.43,13.07,13.07,0,0,0,.57-3.93,5.6,5.6,0,0,0-.06-1,3.67,3.67,0,0,0-.18-.91h2.2a5,5,0,0,1,.13.86,7.7,7.7,0,0,0,.05,1,11.86,11.86,0,0,1-.27,2.52,16.18,16.18,0,0,1-.7,2.47,15.69,15.69,0,0,1-1,2.26,16.52,16.52,0,0,1-1.23,2c.32.44.61.83.88,1.15a7.07,7.07,0,0,0,.81.83,3,3,0,0,0,2.66.53,6.55,6.55,0,0,0,.89-.27v2.09a4.79,4.79,0,0,1-1,.29A5.31,5.31,0,0,1,231.15,260.88Zm-11.57-2a7.34,7.34,0,0,0,1.93-.23,7.77,7.77,0,0,0,1.63-.6,7.69,7.69,0,0,0,1.35-.89,8.42,8.42,0,0,0,1.1-1.05c-.56-.87-1.08-1.62-1.55-2.24a12.11,12.11,0,0,0-1.43-1.61,8.77,8.77,0,0,0-1.55-1.15,12.6,12.6,0,0,0-1.89-.9,11.19,11.19,0,0,0-1.6.77,5.5,5.5,0,0,0-1.26,1,4.29,4.29,0,0,0-.84,1.33,4.9,4.9,0,0,0-.3,1.78,3.9,3.9,0,0,0,.34,1.65,3.34,3.34,0,0,0,1,1.19,4.24,4.24,0,0,0,1.4.72,6.3,6.3,0,0,0,1.72.27ZM223,244.81a2.39,2.39,0,0,0-.91-2,2.51,2.51,0,0,0-.87-.46,3.72,3.72,0,0,0-1-.14,3.12,3.12,0,0,0-2.16.73,2.6,2.6,0,0,0-.82,2,3.57,3.57,0,0,0,.17,1.07,4,4,0,0,0,1.21,1.68,4.84,4.84,0,0,0,.88.56,6.89,6.89,0,0,0,2.59-1.41,2.63,2.63,0,0,0,.91-2Z"/><path class="cls-3" d="M61.08,292a11.61,11.61,0,0,1-5.45,1.13,8.79,8.79,0,0,1-6.76-2.72,10.07,10.07,0,0,1-2.54-7.12,10.51,10.51,0,0,1,2.86-7.67,9.64,9.64,0,0,1,7.23-2.92,11.58,11.58,0,0,1,4.66.81V276a9.32,9.32,0,0,0-4.68-1.19,7.2,7.2,0,0,0-5.52,2.34,8.65,8.65,0,0,0-2.12,6.08,8.17,8.17,0,0,0,2,5.75,6.76,6.76,0,0,0,5.17,2.17,9.68,9.68,0,0,0,5.15-1.32Z"/><path class="cls-3" d="M72.12,293.13a6.58,6.58,0,0,1-5-2,7.41,7.41,0,0,1-1.87-5.24,7.68,7.68,0,0,1,2-5.56,7,7,0,0,1,5.25-2,6.33,6.33,0,0,1,4.93,1.95,7.66,7.66,0,0,1,1.77,5.39,7.57,7.57,0,0,1-2,5.46A6.67,6.67,0,0,1,72.12,293.13Zm.16-12.88a4.28,4.28,0,0,0-3.44,1.49,6.06,6.06,0,0,0-1.27,4.08,5.8,5.8,0,0,0,1.28,4,4.35,4.35,0,0,0,3.43,1.45,4.17,4.17,0,0,0,3.38-1.42,7.56,7.56,0,0,0,0-8.08,4.13,4.13,0,0,0-3.38-1.49Z"/><path class="cls-3" d="M86.43,292.83H84.17v-20.9h2.26Z"/><path class="cls-3" d="M94.68,292.83H92.42v-20.9h2.26Z"/><path class="cls-3" d="M110.78,292.83h-2.27v-2.21h0a4.71,4.71,0,0,1-4.34,2.54,4.65,4.65,0,0,1-3.3-1.12,3.88,3.88,0,0,1-1.19-3c0-2.64,1.55-4.17,4.66-4.61l4.23-.59q0-3.6-2.91-3.6a7,7,0,0,0-4.61,1.74v-2.32a8.84,8.84,0,0,1,4.8-1.32c3.34,0,5,1.76,5,5.27Zm-2.27-7.14-3.41.47a5.41,5.41,0,0,0-2.37.78,2.25,2.25,0,0,0-.8,2,2.2,2.2,0,0,0,.74,1.69,2.82,2.82,0,0,0,2,.66,3.61,3.61,0,0,0,2.78-1.18,4.2,4.2,0,0,0,1.1-3Z"/><path class="cls-3" d="M118.77,290.79h-.06v2h-2.26V271.93h2.26v9.26h.06a5.35,5.35,0,0,1,4.88-2.81,5.15,5.15,0,0,1,4.25,1.9,7.79,7.79,0,0,1,1.54,5.08,8.69,8.69,0,0,1-1.73,5.67,5.72,5.72,0,0,1-4.71,2.13A4.65,4.65,0,0,1,118.77,290.79Zm-.06-5.66v2a4.22,4.22,0,0,0,1.14,3,4.07,4.07,0,0,0,5.75.06,3.52,3.52,0,0,0,.36-.41,7.21,7.21,0,0,0,1.16-4.37,5.59,5.59,0,0,0-1.09-3.7,3.61,3.61,0,0,0-3-1.34,4,4,0,0,0-3.17,1.38A5.07,5.07,0,0,0,118.71,285.13Z"/><path class="cls-3" d="M140.36,293.13a6.58,6.58,0,0,1-5-2,7.37,7.37,0,0,1-1.86-5.24,7.66,7.66,0,0,1,1.94-5.56,7,7,0,0,1,5.25-2,6.33,6.33,0,0,1,4.93,1.95,7.66,7.66,0,0,1,1.77,5.39,7.53,7.53,0,0,1-1.88,5.46A6.65,6.65,0,0,1,140.36,293.13Zm.17-12.88a4.3,4.3,0,0,0-3.45,1.49,6.06,6.06,0,0,0-1.27,4.08,5.8,5.8,0,0,0,1.28,4,4.39,4.39,0,0,0,3.44,1.45,4.15,4.15,0,0,0,3.37-1.42,7.51,7.51,0,0,0,0-8.08,4.08,4.08,0,0,0-3.39-1.49Z"/><path class="cls-3" d="M159.78,281a2.77,2.77,0,0,0-1.71-.45,2.9,2.9,0,0,0-2.42,1.36,6.35,6.35,0,0,0-1,3.72v7.2h-2.24V278.71h2.27v2.91h0a4.89,4.89,0,0,1,1.48-2.32,3.39,3.39,0,0,1,2.22-.84,3.63,3.63,0,0,1,1.35.2Z"/><path class="cls-3" d="M173.75,292.83h-2.24v-2.21h-.06a4.71,4.71,0,0,1-4.34,2.54,4.65,4.65,0,0,1-3.3-1.12,3.84,3.84,0,0,1-1.2-3c0-2.64,1.56-4.17,4.66-4.61l4.24-.59q0-3.6-2.91-3.6A7,7,0,0,0,164,282v-2.32a8.84,8.84,0,0,1,4.8-1.32c3.34,0,5,1.76,5,5.27Zm-2.24-7.14-3.41.47a5.41,5.41,0,0,0-2.37.78,2.25,2.25,0,0,0-.8,2,2.2,2.2,0,0,0,.74,1.69,2.82,2.82,0,0,0,2,.66,3.61,3.61,0,0,0,2.78-1.18,4.2,4.2,0,0,0,1.1-3Z"/><path class="cls-3" d="M186,292.69a4.38,4.38,0,0,1-2.11.44q-3.71,0-3.71-4.13v-8.36h-2.43v-1.93h2.43v-3.44l2.26-.74v4.18H186v1.93h-3.56v8a3.42,3.42,0,0,0,.48,2,1.94,1.94,0,0,0,1.6.61,2.36,2.36,0,0,0,1.48-.47Z"/><path class="cls-3" d="M191.56,275.13a1.43,1.43,0,0,1-1.42-1.42,1.45,1.45,0,0,1,1.4-1.48h.06a1.47,1.47,0,0,1,1,.42,1.34,1.34,0,0,1,.44,1.06,1.36,1.36,0,0,1-.44,1A1.39,1.39,0,0,1,191.56,275.13Zm1.1,17.7H190.4V278.71h2.26Z"/><path class="cls-3" d="M204.51,293.13a6.58,6.58,0,0,1-5-2,7.41,7.41,0,0,1-1.87-5.24,7.68,7.68,0,0,1,2-5.56,7,7,0,0,1,5.25-2,6.33,6.33,0,0,1,4.93,1.95,7.66,7.66,0,0,1,1.77,5.39,7.57,7.57,0,0,1-1.91,5.41A6.68,6.68,0,0,1,204.51,293.13Zm.16-12.88a4.28,4.28,0,0,0-3.44,1.49,6.06,6.06,0,0,0-1.27,4.08,5.8,5.8,0,0,0,1.28,4,4.35,4.35,0,0,0,3.43,1.45,4.12,4.12,0,0,0,3.37-1.42,6.11,6.11,0,0,0,1.18-4,6.2,6.2,0,0,0-1.18-4.08,4.09,4.09,0,0,0-3.33-1.49Z"/><path class="cls-3" d="M228.32,292.83h-2.26v-8.05q0-4.5-3.28-4.5a3.59,3.59,0,0,0-2.81,1.28,4.84,4.84,0,0,0-1.11,3.22v8.05H216.6V278.71h2.26v2.35h.06a5.09,5.09,0,0,1,4.63-2.68,4.26,4.26,0,0,1,3.54,1.5,6.54,6.54,0,0,1,1.23,4.32Z"/></g><polyline class="cls-8" points="45.05 306.16 260.82 306.16 288.95 334.29"/><polyline class="cls-9" points="31.64 600.26 247.41 600.26 275.56 572.12"/><g class="cls-2"><path class="cls-3" d="M1050.09,685.74h-5.71v17.68h-2.31V685.74h-5.69v-2.09h13.72Z"/><path class="cls-3" d="M1060.2,703.75a6.58,6.58,0,0,1-5-2,7.43,7.43,0,0,1-1.87-5.25,7.67,7.67,0,0,1,2-5.55,7,7,0,0,1,5.25-2,6.37,6.37,0,0,1,4.93,1.94,7.66,7.66,0,0,1,1.77,5.39,7.55,7.55,0,0,1-1.91,5.42A6.68,6.68,0,0,1,1060.2,703.75Zm.17-12.88a4.34,4.34,0,0,0-3.45,1.48,6.14,6.14,0,0,0-1.27,4.09,5.85,5.85,0,0,0,1.28,4,4.42,4.42,0,0,0,3.44,1.45,4.15,4.15,0,0,0,3.37-1.42,7.56,7.56,0,0,0,0-8.08A4.08,4.08,0,0,0,1060.37,690.87Z"/><path class="cls-3" d="M1084,703.42h-3.17l-6.23-6.79h-.06v6.79h-2.26v-20.9h2.26v13.25h.07l5.93-6.47h3l-6.6,6.83Z"/><path class="cls-3" d="M1099.05,696.93h-10a5.25,5.25,0,0,0,1.28,3.63,4.3,4.3,0,0,0,3.32,1.29,7,7,0,0,0,4.39-1.58v2.13a8.15,8.15,0,0,1-4.92,1.35,6,6,0,0,1-4.71-1.92,7.86,7.86,0,0,1-1.7-5.42,7.76,7.76,0,0,1,1.87-5.37,6,6,0,0,1,4.64-2.07,5.35,5.35,0,0,1,4.29,1.79,7.59,7.59,0,0,1,1.52,5Zm-2.31-1.92a4.68,4.68,0,0,0-.94-3,3.28,3.28,0,0,0-2.59-1.09,3.63,3.63,0,0,0-2.72,1.15,5.08,5.08,0,0,0-1.37,3Z"/><path class="cls-3" d="M1115.59,703.42h-2.26v-8q0-4.5-3.28-4.5a3.58,3.58,0,0,0-2.8,1.28,4.79,4.79,0,0,0-1.11,3.22v8h-2.27V689.3h2.27v2.34h0a5.12,5.12,0,0,1,4.63-2.67,4.32,4.32,0,0,1,3.55,1.5,6.61,6.61,0,0,1,1.22,4.32Z"/><path class="cls-3" d="M1129.57,702.91v-2.43a6.67,6.67,0,0,0,4.06,1.37c2,0,3-.67,3-2a1.84,1.84,0,0,0-.25-1,2.66,2.66,0,0,0-.69-.69,5.74,5.74,0,0,0-1-.55l-1.26-.5a15.4,15.4,0,0,1-1.65-.75,5.09,5.09,0,0,1-1.19-.86,3.22,3.22,0,0,1-.71-1.08,3.64,3.64,0,0,1-.25-1.42,3.38,3.38,0,0,1,.46-1.76,3.9,3.9,0,0,1,1.21-1.28,6,6,0,0,1,1.73-.78,7.89,7.89,0,0,1,2-.26,8.22,8.22,0,0,1,3.28.63v2.29a6.4,6.4,0,0,0-3.58-1,4,4,0,0,0-1.15.15,2.66,2.66,0,0,0-.87.4,1.72,1.72,0,0,0-.57.63,1.55,1.55,0,0,0-.2.81,2,2,0,0,0,.2.92,1.87,1.87,0,0,0,.59.66,4.24,4.24,0,0,0,.93.53l1.26.51c.62.24,1.18.48,1.68.73a6.31,6.31,0,0,1,1.27.86,3.53,3.53,0,0,1,.81,1.1,3.92,3.92,0,0,1,.28,1.47,3.6,3.6,0,0,1-.46,1.82,3.89,3.89,0,0,1-1.24,1.28,5.39,5.39,0,0,1-1.78.76,8.82,8.82,0,0,1-2.11.25A7.92,7.92,0,0,1,1129.57,702.91Z"/><path class="cls-3" d="M1153.91,703.42h-2.26v-2.21h-.06a4.71,4.71,0,0,1-4.34,2.54,4.65,4.65,0,0,1-3.3-1.12,3.88,3.88,0,0,1-1.19-3c0-2.64,1.56-4.17,4.66-4.61l4.23-.59q0-3.6-2.91-3.6a7,7,0,0,0-4.61,1.74v-2.32a8.84,8.84,0,0,1,4.8-1.32c3.34,0,5,1.76,5,5.27Zm-2.26-7.14-3.41.47a5.62,5.62,0,0,0-2.37.77,2.3,2.3,0,0,0-.8,2,2.16,2.16,0,0,0,.74,1.69,2.82,2.82,0,0,0,2,.66,3.61,3.61,0,0,0,2.78-1.18,4.2,4.2,0,0,0,1.1-3Z"/><path class="cls-3" d="M1161.84,703.42h-2.26v-20.9h2.26Z"/><path class="cls-3" d="M1179.18,696.93h-10a5.25,5.25,0,0,0,1.28,3.63,4.3,4.3,0,0,0,3.32,1.29,6.87,6.87,0,0,0,4.39-1.58v2.13a8.15,8.15,0,0,1-4.92,1.35,6,6,0,0,1-4.7-1.92,7.86,7.86,0,0,1-1.7-5.42,7.7,7.7,0,0,1,1.86-5.37,6,6,0,0,1,4.64-2.07,5.35,5.35,0,0,1,4.29,1.79,7.59,7.59,0,0,1,1.52,5Zm-2.31-1.92a4.68,4.68,0,0,0-.94-3,3.25,3.25,0,0,0-2.59-1.09,3.59,3.59,0,0,0-2.71,1.15,5.09,5.09,0,0,0-1.38,3Z"/></g><polyline class="cls-10" points="1178.15 665.3 882.33 665.3 854.18 637.16"/><polyline class="cls-11" points="736.59 121.64 560.83 121.64 532.7 149.78"/></svg>