<svg id="Layer_1" data-name="Layer 1" xmlns="http://www.w3.org/2000/svg" xmlns:xlink="http://www.w3.org/1999/xlink" viewBox="0 0 150 141.76"><defs><style>.cls-1{fill:none;}.cls-2{clip-path:url(#clip-path);}.cls-3{fill:url(#New_Gradient_Swatch_1);}</style><clipPath id="clip-path"><path id="SVGID" class="cls-1" d="M3.49,90.32a3.5,3.5,0,0,1,0-7H9.33A71.79,71.79,0,0,1,8.92,61H3.49a3.5,3.5,0,0,1,0-7h6.77a70.82,70.82,0,1,1,.68,36.3ZM50,20.38a2.11,2.11,0,1,1-.77,2.89A2.11,2.11,0,0,1,50,20.38ZM20.81,70.88A2.12,2.12,0,1,1,22.92,73a2.11,2.11,0,0,1-2.11-2.12ZM50,121.38a2.11,2.11,0,1,1,2.89-.77,2.11,2.11,0,0,1-2.89.77Zm58.32,0a2.11,2.11,0,1,1,.77-2.89,2.11,2.11,0,0,1-.77,2.89Zm29.16-50.5a2.12,2.12,0,1,1-2.12-2.12,2.12,2.12,0,0,1,2.12,2.12Zm-29.16-50.5a2.11,2.11,0,1,1-2.89.77,2.11,2.11,0,0,1,2.89-.77ZM82.35,44.19a26.75,26.75,0,0,1,15.78,7.68,27.34,27.34,0,0,1,2.5,2.87L115,46.43A3.22,3.22,0,1,1,118.25,52l-14.4,8.31a26.89,26.89,0,0,1,0,21.12l14.4,8.31A3.22,3.22,0,1,1,115,95.33L100.63,87a28.39,28.39,0,0,1-2.5,2.87,26.75,26.75,0,0,1-15.78,7.68V114.2a3.23,3.23,0,0,1-6.46,0V97.57a26.78,26.78,0,0,1-15.78-7.68A27.09,27.09,0,0,1,57.62,87l-14.4,8.31A3.22,3.22,0,1,1,40,89.75l14.4-8.31a26.89,26.89,0,0,1,0-21.12L40,52a3.22,3.22,0,1,1,3.23-5.58l14.4,8.31a26.13,26.13,0,0,1,2.49-2.87,26.78,26.78,0,0,1,15.78-7.68V27.56a3.23,3.23,0,1,1,6.46,0V44.19Zm6.34,16.19a2.34,2.34,0,0,0-2.34,2.34A2.3,2.3,0,0,0,87,64.28l-4.69,7.53a2.34,2.34,0,0,0-2.37.49l-3.05-2a2.07,2.07,0,0,0,.06-.5,2.34,2.34,0,1,0-4,1.65l-2.77,5.24a2.48,2.48,0,0,0-.54-.06,2.36,2.36,0,1,0,1.67.71l2.79-5.26a2,2,0,0,0,.49.06,2.29,2.29,0,0,0,1.64-.69l3,1.94a2.33,2.33,0,1,0,4.59.61,2.28,2.28,0,0,0-.49-1.44L88.08,65a2.1,2.1,0,0,0,.61.09,2.34,2.34,0,0,0,0-4.68m4.87-3.94a20.42,20.42,0,1,0,6,14.44,20.33,20.33,0,0,0-6-14.44ZM16.44,83.33h5.84a3.5,3.5,0,0,1,0,7h-4A63.88,63.88,0,1,0,17.48,54h4.8a3.5,3.5,0,0,1,0,7H16a64.57,64.57,0,0,0,.45,22.32Z"/></clipPath><linearGradient id="New_Gradient_Swatch_1" x1="150.01" y1="-1.59" x2="0.1" y2="143.6" gradientUnits="userSpaceOnUse"><stop offset="0" stop-color="#9f2e95"/><stop offset="0.33" stop-color="#8b2cc7"/><stop offset="0.66" stop-color="#5951f1"/><stop offset="1" stop-color="#1daef4"/></linearGradient></defs><g class="cls-2"><rect class="cls-3" x="-0.91" y="-1.17" width="152.03" height="144.25"/></g></svg>