<?xml version="1.0" encoding="utf-8"?>
<!-- Generator: Adobe Illustrator 25.2.0, SVG Export Plug-In . SVG Version: 6.00 Build 0)  -->
<svg version="1.1" id="Layer_1" xmlns="http://www.w3.org/2000/svg" xmlns:xlink="http://www.w3.org/1999/xlink" x="0px" y="0px"
	 viewBox="0 0 1926 508" style="enable-background:new 0 0 1926 508;" xml:space="preserve">
<style type="text/css">
	.st0{fill:#030347;}
	.st1{fill:url(#SVGID_1_);}
	.st2{clip-path:url(#SVGID_3_);}
	.st3{fill:url(#SVGID_4_);}
	.st4{fill:#FFFFFF;}
	.st5{opacity:0.7;}
	.st6{fill:url(#SVGID_5_);}
	.st7{fill:url(#SVGID_6_);}
	.st8{fill:url(#SVGID_7_);}
	.st9{fill:url(#SVGID_8_);}
	.st10{fill:url(#SVGID_9_);}
	.st11{fill:none;}
	.st12{fill:url(#SVGID_10_);}
	.st13{clip-path:url(#SVGID_12_);fill:url(#SVGID_13_);}
	.st14{font-family:'SegoeUI-Bold';}
	.st15{font-size:40px;}
	.st16{fill:url(#SVGID_14_);}
	.st17{fill:url(#SVGID_15_);}
	.st18{fill:url(#SVGID_16_);}
	.st19{fill:url(#SVGID_17_);}
	.st20{fill:url(#SVGID_18_);}
</style>
<g>
	<image style="overflow:visible;" width="1926" height="508" xlink:href="5079106D.png" >
	</image>
	<g>
		<path class="st0" d="M1877.6,443.2H79.5c-8.3,0-15-6.7-15-15V46.8c0-8.3,6.7-15,15-15h1798.1c8.3,0,15,6.7,15,15v381.3
			C1892.6,436.4,1885.9,443.2,1877.6,443.2z"/>
	</g>
</g>
<linearGradient id="SVGID_1_" gradientUnits="userSpaceOnUse" x1="115.2582" y1="203.8281" x2="1841.8207" y2="203.8281">
	<stop  offset="0" style="stop-color:#9F2E95"/>
	<stop  offset="0.33" style="stop-color:#8B2CC7"/>
	<stop  offset="0.66" style="stop-color:#5951F1"/>
	<stop  offset="1" style="stop-color:#1DAEF4"/>
</linearGradient>
<rect x="115.3" y="203.1" class="st1" width="1726.6" height="1.4"/>
<g>
	<g>
		<defs>
			<path id="SVGID_11_" d="M117.4,134.7c-1.1,0-2-0.9-2-2c0-1.1,0.9-2,2-2h3.3c-0.4-2.3-0.6-4.6-0.6-7c0-1.9,0.1-3.7,0.4-5.6h-3.1
				c-1.1,0-2-0.9-2-2c0-1.1,0.9-2,2-2h3.8c1.8-7.2,5.5-13.7,10.6-18.8c7.2-7.2,17.2-11.7,28.3-11.7c11,0,21,4.5,28.3,11.7
				c7.2,7.2,11.7,17.2,11.7,28.3c0,11-4.5,21-11.7,28.3c-7.2,7.2-17.2,11.7-28.3,11.7c-11,0-21-4.5-28.3-11.7
				c-4.7-4.7-8.3-10.7-10.2-17.3H117.4L117.4,134.7z M143.6,95.2c0.6-0.3,1.3-0.1,1.6,0.4c0.3,0.6,0.1,1.3-0.4,1.6
				c-0.6,0.3-1.3,0.1-1.6-0.4C142.9,96.3,143.1,95.5,143.6,95.2L143.6,95.2z M127.2,123.7c0-0.7,0.5-1.2,1.2-1.2
				c0.7,0,1.2,0.5,1.2,1.2c0,0.7-0.5,1.2-1.2,1.2C127.7,124.9,127.2,124.4,127.2,123.7L127.2,123.7z M143.6,152.2
				c-0.6-0.3-0.8-1.1-0.4-1.6c0.3-0.6,1.1-0.8,1.6-0.4c0.6,0.3,0.8,1.1,0.4,1.6C145,152.3,144.2,152.5,143.6,152.2L143.6,152.2z
				 M176.6,152.2c-0.6,0.3-1.3,0.1-1.6-0.4c-0.3-0.6-0.1-1.3,0.4-1.6c0.6-0.3,1.3-0.1,1.6,0.4C177.3,151.1,177.1,151.9,176.6,152.2
				L176.6,152.2z M193,123.7c0,0.7-0.5,1.2-1.2,1.2c-0.7,0-1.2-0.5-1.2-1.2c0-0.7,0.5-1.2,1.2-1.2C192.5,122.5,193,123,193,123.7
				L193,123.7z M176.6,95.2c0.6,0.3,0.8,1.1,0.4,1.6c-0.3,0.6-1.1,0.8-1.6,0.4c-0.6-0.3-0.8-1.1-0.4-1.6
				C175.3,95.1,176,94.9,176.6,95.2L176.6,95.2z M161.9,108.6c3.5,0.4,6.6,2,8.9,4.3c0.5,0.5,1,1,1.4,1.6l8.1-4.7
				c0.9-0.5,2-0.2,2.5,0.7c0.5,0.9,0.2,2-0.7,2.5l-8.1,4.7c0.8,1.8,1.2,3.8,1.2,6c0,2.1-0.4,4.1-1.2,6l8.1,4.7
				c0.9,0.5,1.2,1.6,0.7,2.5c-0.5,0.9-1.6,1.2-2.5,0.7l-8.1-4.7c-0.4,0.6-0.9,1.1-1.4,1.6c-2.3,2.3-5.4,3.9-8.9,4.3v9.4
				c0,1-0.8,1.8-1.8,1.8s-1.8-0.8-1.8-1.8v-9.4c-3.5-0.4-6.6-2-8.9-4.3c-0.5-0.5-1-1-1.4-1.6l-8.1,4.7c-0.9,0.5-2,0.2-2.5-0.7
				c-0.5-0.9-0.2-2,0.7-2.5l8.1-4.7c-0.8-1.8-1.2-3.8-1.2-6c0-2.1,0.4-4.1,1.2-6L138,113c-0.9-0.5-1.2-1.6-0.7-2.5
				c0.5-0.9,1.6-1.2,2.5-0.7l8.1,4.7c0.4-0.6,0.9-1.1,1.4-1.6c2.3-2.3,5.4-3.9,8.9-4.3v-9.4c0-1,0.8-1.8,1.8-1.8s1.8,0.8,1.8,1.8
				V108.6L161.9,108.6z M165.5,117.8c-0.7,0-1.3,0.6-1.3,1.3c0,0.3,0.1,0.6,0.3,0.9l-2.6,4.2c-0.5-0.2-1-0.1-1.3,0.3l-1.7-1.1
				c0-0.1,0-0.2,0-0.3c0-0.7-0.6-1.3-1.3-1.3c-0.7,0-1.3,0.6-1.3,1.3c0,0.4,0.1,0.7,0.4,0.9l-1.6,3c-0.1,0-0.2,0-0.3,0
				c-0.7,0-1.3,0.6-1.3,1.3c0,0.7,0.6,1.3,1.3,1.3s1.3-0.6,1.3-1.3c0-0.4-0.1-0.7-0.4-0.9l1.6-3c0.1,0,0.2,0,0.3,0
				c0.3,0,0.7-0.1,0.9-0.4l1.7,1.1c0,0.1,0,0.2,0,0.3c0,0.7,0.6,1.3,1.3,1.3c0.7,0,1.3-0.6,1.3-1.3c0-0.3-0.1-0.6-0.3-0.8l2.7-4.3
				c0.1,0,0.2,0,0.3,0c0.7,0,1.3-0.6,1.3-1.3C166.8,118.4,166.2,117.8,165.5,117.8 M168.2,115.5c-2.1-2.1-5-3.4-8.1-3.4
				c-3.2,0-6.1,1.3-8.1,3.4c-2.1,2.1-3.4,5-3.4,8.1c0,3.2,1.3,6.1,3.4,8.1c2.1,2.1,5,3.4,8.1,3.4c3.2,0,6.1-1.3,8.1-3.4
				c2.1-2.1,3.4-5,3.4-8.1C171.6,120.5,170.3,117.6,168.2,115.5L168.2,115.5z M124.7,130.7h3.3c1.1,0,2,0.9,2,2c0,1.1-0.9,2-2,2
				h-2.3c1.8,5.5,4.8,10.5,8.9,14.5c6.5,6.5,15.5,10.6,25.5,10.6c10,0,19-4,25.5-10.6c6.5-6.5,10.6-15.5,10.6-25.5
				c0-10-4-19-10.6-25.5c-6.5-6.5-15.5-10.6-25.5-10.6c-10,0-19,4-25.5,10.6c-4.4,4.4-7.6,9.8-9.3,16h2.7c1.1,0,2,0.9,2,2
				c0,1.1-0.9,2-2,2h-3.5c-0.3,1.8-0.4,3.7-0.4,5.6C124.1,126.1,124.3,128.4,124.7,130.7L124.7,130.7z"/>
		</defs>
		<clipPath id="SVGID_3_">
			<use xlink:href="#SVGID_11_"  style="overflow:visible;"/>
		</clipPath>
		<linearGradient id="SVGID_4_" gradientUnits="userSpaceOnUse" x1="200.1012" y1="82.8073" x2="115.5129" y2="164.7288">
			<stop  offset="0" style="stop-color:#9F2E95"/>
			<stop  offset="0.33" style="stop-color:#8B2CC7"/>
			<stop  offset="0.66" style="stop-color:#5951F1"/>
			<stop  offset="1" style="stop-color:#1DAEF4"/>
		</linearGradient>
		<rect x="114.9" y="83" style="clip-path:url(#SVGID_3_);fill:url(#SVGID_4_);" width="85.8" height="81.4"/>
	</g>
</g>
<rect x="225.8" y="106.2" class="st11" width="657" height="35.1"/>
<text transform="matrix(1 0 0 1 225.8055 138.4991)" class="st4 st14 st15">Token info</text>
<g>
	<g class="st5">
		<g>
			<path class="st4" d="M264.5,348.7v-14h4c1.2,0,2.2,0.3,2.9,0.9c0.7,0.6,1.1,1.4,1.1,2.3c0,0.8-0.2,1.5-0.6,2.1s-1,1-1.8,1.2v0
				c0.9,0.1,1.7,0.5,2.3,1.1s0.8,1.4,0.8,2.3c0,1.2-0.4,2.2-1.3,2.9s-1.9,1.1-3.3,1.1H264.5z M266.2,336.2v4.5h1.7
				c0.9,0,1.6-0.2,2.1-0.6c0.5-0.4,0.8-1,0.8-1.8c0-1.4-0.9-2-2.7-2H266.2z M266.2,342.2v5h2.2c1,0,1.7-0.2,2.2-0.7
				c0.5-0.5,0.8-1.1,0.8-1.9c0-1.7-1.1-2.5-3.4-2.5H266.2z"/>
			<path class="st4" d="M284.4,348.7H277v-14h7.1v1.5h-5.5v4.7h5.1v1.5h-5.1v4.9h5.8V348.7z"/>
			<path class="st4" d="M289.8,343.5v5.3h-1.6v-14h3.8c1.5,0,2.7,0.4,3.5,1.1c0.8,0.7,1.2,1.8,1.2,3.1s-0.5,2.4-1.4,3.3
				c-0.9,0.8-2.1,1.3-3.7,1.3H289.8z M289.8,336.2v5.7h1.7c1.1,0,2-0.3,2.6-0.8s0.9-1.2,0.9-2.2c0-1.8-1.1-2.8-3.3-2.8H289.8z"/>
			<path class="st4" d="M305.2,343.8h-5.3v-1.3h5.3V343.8z"/>
			<path class="st4" d="M315,338.4c0-0.4-0.1-0.8-0.2-1.1c-0.1-0.3-0.3-0.6-0.5-0.8c-0.2-0.2-0.5-0.4-0.8-0.5s-0.7-0.2-1-0.2
				c-0.3,0-0.6,0-0.9,0.1c-0.3,0.1-0.6,0.2-0.9,0.4s-0.6,0.3-0.8,0.5s-0.5,0.4-0.7,0.7v-1.7c0.4-0.4,1-0.8,1.5-1s1.2-0.3,2-0.3
				c0.6,0,1.1,0.1,1.6,0.2s0.9,0.4,1.3,0.7c0.4,0.3,0.6,0.7,0.8,1.2s0.3,1,0.3,1.6c0,0.6-0.1,1.1-0.2,1.5s-0.3,0.9-0.6,1.3
				c-0.3,0.4-0.6,0.8-1,1.1s-0.8,0.7-1.4,1.1c-0.7,0.5-1.2,0.9-1.6,1.2c-0.4,0.3-0.8,0.6-1,0.9c-0.2,0.3-0.4,0.6-0.5,0.9
				c-0.1,0.3-0.2,0.6-0.2,1h7v1.4h-8.6v-0.7c0-0.6,0.1-1.1,0.2-1.6c0.1-0.5,0.3-0.9,0.6-1.3c0.3-0.4,0.7-0.8,1.2-1.2
				c0.5-0.4,1.1-0.9,1.8-1.4c0.5-0.4,0.9-0.7,1.3-1s0.6-0.7,0.8-1c0.2-0.3,0.4-0.7,0.4-1S315,338.8,315,338.4z"/>
			<path class="st4" d="M329.2,341.7c0,1.2-0.1,2.2-0.3,3.1c-0.2,0.9-0.5,1.7-0.9,2.3s-0.9,1.1-1.5,1.4c-0.6,0.3-1.2,0.5-2,0.5
				c-0.7,0-1.3-0.2-1.9-0.5c-0.5-0.3-1-0.8-1.4-1.4c-0.4-0.6-0.7-1.3-0.9-2.2s-0.3-1.9-0.3-3c0-1.2,0.1-2.3,0.3-3.2s0.5-1.7,0.9-2.4
				c0.4-0.6,0.9-1.1,1.5-1.4c0.6-0.3,1.3-0.5,2-0.5C327.8,334.5,329.2,336.9,329.2,341.7z M327.6,341.8c0-4-0.9-6-2.8-6
				c-2,0-3,2-3,6.1c0,3.8,1,5.7,2.9,5.7C326.6,347.6,327.6,345.7,327.6,341.8z"/>
		</g>
	</g>
	<g>
		<path class="st4" d="M250.2,303.4h-4.8v13.7h-3.8v-13.7h-4.8v-3.1h13.4V303.4z"/>
		<path class="st4" d="M255.7,317.4c-2,0-3.6-0.6-4.7-1.7s-1.7-2.6-1.7-4.6c0-2,0.6-3.5,1.8-4.7s2.8-1.7,4.8-1.7
			c2,0,3.6,0.6,4.7,1.7s1.7,2.6,1.7,4.4c0,2-0.6,3.6-1.8,4.7S257.7,317.4,255.7,317.4z M255.8,307.6c-0.9,0-1.6,0.3-2,0.9
			s-0.7,1.5-0.7,2.6c0,2.3,0.9,3.5,2.8,3.5c1.8,0,2.7-1.2,2.7-3.6C258.4,308.8,257.6,307.6,255.8,307.6z"/>
		<path class="st4" d="M276.6,317.1h-4.4l-3.8-6h0v6h-3.7v-17.8h3.7v11.3h0l3.6-5.5h4.4l-4.3,5.6L276.6,317.1z"/>
		<path class="st4" d="M288.5,312.1h-7.8c0.1,1.7,1.2,2.6,3.3,2.6c1.3,0,2.5-0.3,3.5-0.9v2.7c-1.1,0.6-2.6,0.9-4.3,0.9
			c-1.9,0-3.4-0.5-4.5-1.6s-1.6-2.6-1.6-4.5c0-2,0.6-3.6,1.7-4.7s2.6-1.7,4.3-1.7c1.8,0,3.1,0.5,4.1,1.6s1.4,2.4,1.4,4.2V312.1z
			 M285,309.9c0-1.7-0.7-2.6-2.1-2.6c-0.6,0-1.1,0.2-1.5,0.7s-0.7,1.1-0.8,1.8H285z"/>
		<path class="st4" d="M302.3,317.1h-3.7v-6.7c0-1.9-0.7-2.8-2-2.8c-0.6,0-1.2,0.2-1.6,0.7s-0.6,1.1-0.6,1.9v6.8h-3.7v-12h3.7v1.9h0
			c0.9-1.5,2.2-2.2,3.9-2.2c2.7,0,4,1.6,4,4.9V317.1z"/>
		<path class="st4" d="M316,317.1h-3.8v-16.8h3.8V317.1z"/>
		<path class="st4" d="M331,317.1h-3.7v-6.7c0-1.9-0.7-2.8-2-2.8c-0.6,0-1.2,0.2-1.6,0.7s-0.6,1.1-0.6,1.9v6.8h-3.7v-12h3.7v1.9h0
			c0.9-1.5,2.2-2.2,3.9-2.2c2.7,0,4,1.6,4,4.9V317.1z"/>
		<path class="st4" d="M341.8,302.2c-0.5-0.2-0.9-0.3-1.4-0.3c-1.2,0-1.8,0.6-1.8,1.9v1.3h2.7v2.7h-2.7v9.3h-3.7v-9.3h-2v-2.7h2
			v-1.5c0-1.4,0.4-2.5,1.3-3.3s2.1-1.3,3.6-1.3c0.8,0,1.4,0.1,1.9,0.2V302.2z"/>
		<path class="st4" d="M348.9,317.4c-2,0-3.6-0.6-4.7-1.7s-1.7-2.6-1.7-4.6c0-2,0.6-3.5,1.8-4.7s2.8-1.7,4.8-1.7
			c2,0,3.6,0.6,4.7,1.7s1.7,2.6,1.7,4.4c0,2-0.6,3.6-1.8,4.7S350.9,317.4,348.9,317.4z M349,307.6c-0.9,0-1.6,0.3-2,0.9
			s-0.7,1.5-0.7,2.6c0,2.3,0.9,3.5,2.8,3.5c1.8,0,2.7-1.2,2.7-3.6C351.6,308.8,350.8,307.6,349,307.6z"/>
	</g>
</g>
<g>
	
		<linearGradient id="SVGID_5_" gradientUnits="userSpaceOnUse" x1="-42.2525" y1="1403.802" x2="83.3021" y2="1403.802" gradientTransform="matrix(0 -1 1 0 91.8556 348.4593)">
		<stop  offset="0" style="stop-color:#9F2E95"/>
		<stop  offset="0.33" style="stop-color:#8B2CC7"/>
		<stop  offset="0.66" style="stop-color:#5951F1"/>
		<stop  offset="1" style="stop-color:#1DAEF4"/>
	</linearGradient>
	<polygon class="st6" points="1496.4,265.2 1496.4,390.7 1495,390.7 1495,265.2 	"/>
	
		<linearGradient id="SVGID_6_" gradientUnits="userSpaceOnUse" x1="-42.2524" y1="1059.0565" x2="83.3023" y2="1059.0565" gradientTransform="matrix(0 -1 1 0 91.8556 348.4593)">
		<stop  offset="0" style="stop-color:#9F2E95"/>
		<stop  offset="0.33" style="stop-color:#8B2CC7"/>
		<stop  offset="0.66" style="stop-color:#5951F1"/>
		<stop  offset="1" style="stop-color:#1DAEF4"/>
	</linearGradient>
	<polygon class="st7" points="1151.6,265.2 1151.6,390.7 1150.2,390.7 1150.2,265.2 	"/>
	
		<linearGradient id="SVGID_7_" gradientUnits="userSpaceOnUse" x1="-42.2523" y1="714.3111" x2="83.3024" y2="714.3111" gradientTransform="matrix(0 -1 1 0 91.8556 348.4593)">
		<stop  offset="0" style="stop-color:#9F2E95"/>
		<stop  offset="0.33" style="stop-color:#8B2CC7"/>
		<stop  offset="0.66" style="stop-color:#5951F1"/>
		<stop  offset="1" style="stop-color:#1DAEF4"/>
	</linearGradient>
	<polygon class="st8" points="806.9,265.2 806.9,390.7 805.5,390.7 805.5,265.2 	"/>
	
		<linearGradient id="SVGID_8_" gradientUnits="userSpaceOnUse" x1="-42.2521" y1="369.5656" x2="83.3025" y2="369.5656" gradientTransform="matrix(0 -1 1 0 91.8556 348.4593)">
		<stop  offset="0" style="stop-color:#9F2E95"/>
		<stop  offset="0.33" style="stop-color:#8B2CC7"/>
		<stop  offset="0.66" style="stop-color:#5951F1"/>
		<stop  offset="1" style="stop-color:#1DAEF4"/>
	</linearGradient>
	<polygon class="st9" points="462.1,265.2 462.1,390.7 460.7,390.7 460.7,265.2 	"/>
</g>
<g>
	<g class="st5">
		<g>
			<path class="st4" d="M632.5,334.7l-5.2,14h-1.8l-5.1-14h1.8l3.9,11.1c0.1,0.4,0.2,0.8,0.3,1.2h0c0.1-0.4,0.2-0.8,0.3-1.3l4-11.1
				H632.5z"/>
			<path class="st4" d="M642.8,348.7h-7.3v-14h1.6v12.5h5.6V348.7z"/>
			<path class="st4" d="M654.3,336.2h-4v12.5h-1.6v-12.5h-4v-1.5h9.7V336.2z"/>
		</g>
	</g>
	<g>
		<path class="st4" d="M617.3,303.4h-4.8v13.7h-3.8v-13.7h-4.8v-3.1h13.4V303.4z"/>
		<path class="st4" d="M621,303.2c-0.6,0-1.1-0.2-1.5-0.6s-0.6-0.8-0.6-1.4c0-0.6,0.2-1,0.6-1.4s0.9-0.5,1.5-0.5
			c0.6,0,1.1,0.2,1.5,0.5s0.6,0.8,0.6,1.4c0,0.6-0.2,1-0.6,1.4S621.7,303.2,621,303.2z M622.9,317.1h-3.7v-12h3.7V317.1z"/>
		<path class="st4" d="M635.1,316.7c-0.8,0.5-2,0.7-3.6,0.7c-1.8,0-3.3-0.6-4.5-1.7s-1.7-2.6-1.7-4.3c0-2,0.6-3.6,1.8-4.8
			s2.9-1.8,4.9-1.8c1.4,0,2.4,0.2,3.1,0.6v3.1c-0.8-0.6-1.6-0.9-2.6-0.9c-1.1,0-1.9,0.3-2.5,0.9s-0.9,1.5-0.9,2.6
			c0,1.1,0.3,1.9,0.9,2.5s1.4,0.9,2.4,0.9c0.9,0,1.8-0.3,2.7-0.9V316.7z"/>
		<path class="st4" d="M649.5,317.1h-4.4l-3.8-6h0v6h-3.7v-17.8h3.7v11.3h0l3.6-5.5h4.4l-4.3,5.6L649.5,317.1z"/>
		<path class="st4" d="M661.4,312.1h-7.8c0.1,1.7,1.2,2.6,3.3,2.6c1.3,0,2.5-0.3,3.5-0.9v2.7c-1.1,0.6-2.6,0.9-4.3,0.9
			c-1.9,0-3.4-0.5-4.5-1.6s-1.6-2.6-1.6-4.5c0-2,0.6-3.6,1.7-4.7s2.6-1.7,4.3-1.7c1.8,0,3.1,0.5,4.1,1.6s1.4,2.4,1.4,4.2V312.1z
			 M657.9,309.9c0-1.7-0.7-2.6-2.1-2.6c-0.6,0-1.1,0.2-1.5,0.7s-0.7,1.1-0.8,1.8H657.9z"/>
		<path class="st4" d="M670.8,317c-0.5,0.3-1.4,0.4-2.5,0.4c-2.6,0-3.9-1.4-3.9-4.1v-5.5h-1.9v-2.7h1.9v-2.6l3.7-1.1v3.6h2.7v2.7
			h-2.7v4.9c0,1.2,0.5,1.9,1.5,1.9c0.4,0,0.8-0.1,1.2-0.3V317z"/>
	</g>
</g>
<g>
	<g>
		<path class="st4" d="M929.8,317.1v-16.8h6c6,0,9,2.7,9,8.2c0,2.6-0.8,4.7-2.4,6.3s-3.8,2.3-6.5,2.3H929.8z M933.6,303.4V314h1.9
			c1.6,0,2.9-0.5,3.9-1.5s1.4-2.3,1.4-4c0-1.6-0.5-2.9-1.4-3.8s-2.2-1.4-3.9-1.4H933.6z"/>
		<path class="st4" d="M957.9,312.1h-7.8c0.1,1.7,1.2,2.6,3.3,2.6c1.3,0,2.5-0.3,3.5-0.9v2.7c-1.1,0.6-2.6,0.9-4.3,0.9
			c-1.9,0-3.4-0.5-4.5-1.6s-1.6-2.6-1.6-4.5c0-2,0.6-3.6,1.7-4.7s2.6-1.7,4.3-1.7c1.8,0,3.1,0.5,4.1,1.6s1.4,2.4,1.4,4.2V312.1z
			 M954.5,309.9c0-1.7-0.7-2.6-2.1-2.6c-0.6,0-1.1,0.2-1.5,0.7s-0.7,1.1-0.8,1.8H954.5z"/>
		<path class="st4" d="M969.2,316.7c-0.8,0.5-2,0.7-3.6,0.7c-1.8,0-3.3-0.6-4.5-1.7s-1.7-2.6-1.7-4.3c0-2,0.6-3.6,1.8-4.8
			s2.9-1.8,4.9-1.8c1.4,0,2.4,0.2,3.1,0.6v3.1c-0.8-0.6-1.6-0.9-2.6-0.9c-1.1,0-1.9,0.3-2.5,0.9s-0.9,1.5-0.9,2.6
			c0,1.1,0.3,1.9,0.9,2.5s1.4,0.9,2.4,0.9c0.9,0,1.8-0.3,2.7-0.9V316.7z"/>
		<path class="st4" d="M973.5,303.2c-0.6,0-1.1-0.2-1.5-0.6s-0.6-0.8-0.6-1.4c0-0.6,0.2-1,0.6-1.4s0.9-0.5,1.5-0.5
			c0.6,0,1.1,0.2,1.5,0.5s0.6,0.8,0.6,1.4c0,0.6-0.2,1-0.6,1.4S974.2,303.2,973.5,303.2z M975.4,317.1h-3.7v-12h3.7V317.1z"/>
		<path class="st4" d="M997.5,317.1h-3.7v-6.8c0-1.7-0.6-2.6-1.9-2.6c-0.6,0-1.1,0.3-1.5,0.8s-0.6,1.2-0.6,2v6.7h-3.7v-6.9
			c0-1.7-0.6-2.5-1.9-2.5c-0.6,0-1.1,0.2-1.5,0.8s-0.6,1.2-0.6,2v6.7h-3.7v-12h3.7v1.9h0c0.4-0.6,0.9-1.2,1.6-1.6s1.4-0.6,2.3-0.6
			c1.7,0,2.9,0.7,3.5,2.2c0.9-1.5,2.3-2.2,4-2.2c2.6,0,3.9,1.6,3.9,4.8V317.1z"/>
		<path class="st4" d="M1010.4,317.1h-3.5v-1.7h0c-0.8,1.3-2,2-3.6,2c-1.2,0-2.1-0.3-2.7-1s-1-1.5-1-2.6c0-2.3,1.4-3.7,4.1-4
			l3.3-0.4c0-1.3-0.7-2-2.1-2c-1.4,0-2.8,0.4-4.1,1.3v-2.8c0.5-0.3,1.2-0.5,2.1-0.7s1.7-0.3,2.4-0.3c3.4,0,5.1,1.7,5.1,5.1V317.1z
			 M1007,312.2v-0.8l-2.2,0.3c-1.2,0.2-1.8,0.7-1.8,1.6c0,0.4,0.1,0.8,0.4,1s0.7,0.4,1.2,0.4c0.7,0,1.3-0.2,1.7-0.7
			S1007,313,1007,312.2z"/>
		<path class="st4" d="M1017.1,317.1h-3.7v-17.8h3.7V317.1z"/>
		<path class="st4" d="M1019.4,316.8v-3c0.6,0.4,1.2,0.6,1.8,0.8s1.2,0.3,1.7,0.3c0.7,0,1.2-0.1,1.6-0.3s0.6-0.5,0.6-0.8
			c0-0.2-0.1-0.4-0.3-0.6s-0.4-0.3-0.7-0.4s-0.6-0.2-0.9-0.3s-0.6-0.2-0.9-0.3c-0.5-0.2-0.9-0.4-1.3-0.6s-0.7-0.4-0.9-0.7
			s-0.4-0.6-0.6-0.9s-0.2-0.8-0.2-1.3c0-0.7,0.1-1.2,0.4-1.7s0.7-0.9,1.2-1.2s1-0.5,1.7-0.7s1.3-0.2,2-0.2c0.5,0,1.1,0,1.6,0.1
			s1.1,0.2,1.6,0.4v2.9c-0.5-0.3-1-0.5-1.5-0.6s-1.1-0.2-1.6-0.2c-0.2,0-0.5,0-0.7,0.1s-0.4,0.1-0.6,0.2s-0.3,0.2-0.4,0.3
			s-0.1,0.3-0.1,0.4c0,0.2,0.1,0.4,0.2,0.6s0.3,0.3,0.6,0.4s0.5,0.2,0.8,0.3s0.6,0.2,0.8,0.3c0.5,0.2,0.9,0.4,1.3,0.6s0.7,0.4,1,0.7
			s0.5,0.6,0.7,1s0.2,0.8,0.2,1.3c0,0.7-0.2,1.3-0.5,1.8s-0.7,0.9-1.2,1.2s-1.1,0.5-1.8,0.7s-1.4,0.2-2.1,0.2
			C1021.8,317.4,1020.5,317.2,1019.4,316.8z"/>
	</g>
</g>
<g>
	<g class="st5">
		<g>
			<path class="st4" d="M1303.9,341.7c0,1.2-0.1,2.2-0.3,3.1s-0.5,1.7-0.9,2.3s-0.9,1.1-1.5,1.4s-1.2,0.5-2,0.5
				c-0.7,0-1.3-0.2-1.9-0.5s-1-0.8-1.4-1.4s-0.7-1.3-0.9-2.2s-0.3-1.9-0.3-3c0-1.2,0.1-2.3,0.3-3.2s0.5-1.7,0.9-2.4s0.9-1.1,1.5-1.4
				s1.3-0.5,2-0.5C1302.4,334.5,1303.9,336.9,1303.9,341.7z M1302.2,341.8c0-4-0.9-6-2.8-6c-2,0-3,2-3,6.1c0,3.8,1,5.7,2.9,5.7
				C1301.2,347.6,1302.2,345.7,1302.2,341.8z"/>
			<path class="st4" d="M1307.9,349c-0.3,0-0.6-0.1-0.8-0.3s-0.3-0.5-0.3-0.8s0.1-0.6,0.3-0.8s0.5-0.3,0.8-0.3
				c0.3,0,0.6,0.1,0.8,0.3s0.3,0.5,0.3,0.8s-0.1,0.6-0.3,0.8S1308.2,349,1307.9,349z"/>
			<path class="st4" d="M1318.5,338.4c0-0.4-0.1-0.8-0.2-1.1s-0.3-0.6-0.5-0.8s-0.5-0.4-0.8-0.5s-0.7-0.2-1-0.2
				c-0.3,0-0.6,0-0.9,0.1s-0.6,0.2-0.9,0.4s-0.6,0.3-0.8,0.5s-0.5,0.4-0.7,0.7v-1.7c0.4-0.4,1-0.8,1.5-1s1.2-0.3,2-0.3
				c0.6,0,1.1,0.1,1.6,0.2s0.9,0.4,1.3,0.7s0.6,0.7,0.8,1.2s0.3,1,0.3,1.6c0,0.6-0.1,1.1-0.2,1.5s-0.3,0.9-0.6,1.3s-0.6,0.8-1,1.1
				s-0.8,0.7-1.4,1.1c-0.7,0.5-1.2,0.9-1.6,1.2s-0.8,0.6-1,0.9s-0.4,0.6-0.5,0.9s-0.2,0.6-0.2,1h7v1.4h-8.6v-0.7
				c0-0.6,0.1-1.1,0.2-1.6s0.3-0.9,0.6-1.3s0.7-0.8,1.2-1.2s1.1-0.9,1.8-1.4c0.5-0.4,0.9-0.7,1.3-1s0.6-0.7,0.8-1s0.4-0.7,0.4-1
				S1318.5,338.8,1318.5,338.4z"/>
			<path class="st4" d="M1332.3,344.5c0,0.7-0.1,1.3-0.4,1.9s-0.6,1-1,1.4s-1,0.7-1.6,0.9s-1.3,0.3-2,0.3c-1.3,0-2.3-0.2-2.9-0.6
				v-1.7c1,0.6,1.9,0.9,2.9,0.9c0.5,0,1-0.1,1.4-0.2s0.8-0.4,1-0.6s0.5-0.6,0.7-1s0.2-0.8,0.2-1.2c0-0.9-0.3-1.6-0.9-2.1
				s-1.5-0.8-2.7-0.8c-0.2,0-0.4,0-0.6,0s-0.4,0-0.6,0s-0.4,0-0.6,0s-0.4,0-0.5,0l0.5-7h6.5v1.4h-5.1l-0.3,4.1c0.2,0,0.4,0,0.7,0
				s0.4,0,0.6,0c0.7,0,1.4,0.1,2,0.3s1.1,0.5,1.5,0.8s0.7,0.8,0.9,1.3S1332.3,343.8,1332.3,344.5z"/>
			<path class="st4" d="M1340.6,348.7v2.1h-1v-2c-1.4,0-2.5-0.3-3.4-0.8v-1.7c0.4,0.3,0.9,0.6,1.5,0.8s1.3,0.3,1.8,0.3v-5
				c-1.4-0.7-2.4-1.3-2.8-1.9s-0.6-1.3-0.6-2.1c0-0.9,0.3-1.8,1-2.4s1.5-1.1,2.5-1.2V333h1v1.7c1.3,0,2.2,0.2,2.6,0.5v1.7
				c-0.7-0.5-1.5-0.8-2.6-0.8v5.2c1.4,0.6,2.3,1.3,2.8,1.9s0.7,1.3,0.7,2.1c0,0.9-0.3,1.7-0.9,2.3S1341.7,348.5,1340.6,348.7z
				 M1339.6,340.7v-4.6c-0.5,0.1-1,0.4-1.3,0.7s-0.5,0.8-0.5,1.4c0,0.6,0.1,1,0.4,1.4S1338.9,340.3,1339.6,340.7z M1340.6,342.9v4.4
				c1.3-0.3,1.9-1,1.9-2C1342.5,344.4,1341.8,343.6,1340.6,342.9z"/>
		</g>
	</g>
	<g>
		<path class="st4" d="M1259.8,316.5c-1.2,0.6-2.8,0.9-4.8,0.9c-2.6,0-4.6-0.8-6.1-2.3s-2.2-3.5-2.2-6.1c0-2.7,0.8-4.9,2.5-6.5
			s3.8-2.5,6.5-2.5c1.6,0,3,0.2,4.1,0.6v3.6c-1.1-0.7-2.4-1-3.8-1c-1.6,0-2.9,0.5-3.8,1.5s-1.5,2.3-1.5,4c0,1.6,0.5,2.9,1.4,3.9
			s2.1,1.4,3.7,1.4c1.5,0,2.8-0.4,4.1-1.1V316.5z"/>
		<path class="st4" d="M1273.7,317.1h-3.7v-1.8h-0.1c-0.9,1.4-2.1,2.1-3.7,2.1c-2.8,0-4.2-1.7-4.2-5.1v-7.2h3.7v6.9
			c0,1.7,0.7,2.5,2,2.5c0.7,0,1.2-0.2,1.6-0.7s0.6-1.1,0.6-1.9v-6.9h3.7V317.1z"/>
		<path class="st4" d="M1284.7,308.4c-0.4-0.2-1-0.4-1.6-0.4c-0.8,0-1.4,0.3-1.9,0.9s-0.7,1.4-0.7,2.4v5.7h-3.7v-12h3.7v2.2h0
			c0.6-1.6,1.6-2.4,3.2-2.4c0.4,0,0.7,0,0.9,0.1V308.4z"/>
		<path class="st4" d="M1294.2,308.4c-0.4-0.2-1-0.4-1.6-0.4c-0.8,0-1.4,0.3-1.9,0.9s-0.7,1.4-0.7,2.4v5.7h-3.7v-12h3.7v2.2h0
			c0.6-1.6,1.6-2.4,3.2-2.4c0.4,0,0.7,0,0.9,0.1V308.4z"/>
		<path class="st4" d="M1306.6,312.1h-7.8c0.1,1.7,1.2,2.6,3.3,2.6c1.3,0,2.5-0.3,3.5-0.9v2.7c-1.1,0.6-2.6,0.9-4.3,0.9
			c-1.9,0-3.4-0.5-4.5-1.6s-1.6-2.6-1.6-4.5c0-2,0.6-3.6,1.7-4.7s2.6-1.7,4.3-1.7c1.8,0,3.1,0.5,4.1,1.6s1.4,2.4,1.4,4.2V312.1z
			 M1303.2,309.9c0-1.7-0.7-2.6-2.1-2.6c-0.6,0-1.1,0.2-1.5,0.7s-0.7,1.1-0.8,1.8H1303.2z"/>
		<path class="st4" d="M1320.4,317.1h-3.7v-6.7c0-1.9-0.7-2.8-2-2.8c-0.6,0-1.2,0.2-1.6,0.7s-0.6,1.1-0.6,1.9v6.8h-3.7v-12h3.7v1.9
			h0c0.9-1.5,2.2-2.2,3.9-2.2c2.7,0,4,1.6,4,4.9V317.1z"/>
		<path class="st4" d="M1330.6,317c-0.5,0.3-1.4,0.4-2.5,0.4c-2.6,0-3.9-1.4-3.9-4.1v-5.5h-1.9v-2.7h1.9v-2.6l3.7-1.1v3.6h2.7v2.7
			h-2.7v4.9c0,1.2,0.5,1.9,1.5,1.9c0.4,0,0.8-0.1,1.2-0.3V317z"/>
		<path class="st4" d="M1343.5,311.3v5.8h-3.8v-16.8h5.9c4.2,0,6.4,1.8,6.4,5.4c0,1.7-0.6,3.1-1.8,4.1s-2.8,1.6-4.9,1.6H1343.5z
			 M1343.5,303.2v5.2h1.5c2,0,3-0.9,3-2.6c0-1.7-1-2.6-3-2.6H1343.5z"/>
		<path class="st4" d="M1361.9,308.4c-0.4-0.2-1-0.4-1.6-0.4c-0.8,0-1.4,0.3-1.9,0.9s-0.7,1.4-0.7,2.4v5.7h-3.7v-12h3.7v2.2h0
			c0.6-1.6,1.6-2.4,3.2-2.4c0.4,0,0.7,0,0.9,0.1V308.4z"/>
		<path class="st4" d="M1365.6,303.2c-0.6,0-1.1-0.2-1.5-0.6s-0.6-0.8-0.6-1.4c0-0.6,0.2-1,0.6-1.4s0.9-0.5,1.5-0.5
			c0.6,0,1.1,0.2,1.5,0.5s0.6,0.8,0.6,1.4c0,0.6-0.2,1-0.6,1.4S1366.2,303.2,1365.6,303.2z M1367.4,317.1h-3.7v-12h3.7V317.1z"/>
		<path class="st4" d="M1379.6,316.7c-0.8,0.5-2,0.7-3.6,0.7c-1.8,0-3.3-0.6-4.5-1.7s-1.7-2.6-1.7-4.3c0-2,0.6-3.6,1.8-4.8
			s2.9-1.8,4.9-1.8c1.4,0,2.4,0.2,3.1,0.6v3.1c-0.8-0.6-1.6-0.9-2.6-0.9c-1.1,0-1.9,0.3-2.5,0.9s-0.9,1.5-0.9,2.6
			c0,1.1,0.3,1.9,0.9,2.5s1.4,0.9,2.4,0.9c0.9,0,1.8-0.3,2.7-0.9V316.7z"/>
		<path class="st4" d="M1392.8,312.1h-7.8c0.1,1.7,1.2,2.6,3.3,2.6c1.3,0,2.5-0.3,3.5-0.9v2.7c-1.1,0.6-2.6,0.9-4.3,0.9
			c-1.9,0-3.4-0.5-4.5-1.6s-1.6-2.6-1.6-4.5c0-2,0.6-3.6,1.7-4.7s2.6-1.7,4.3-1.7c1.8,0,3.1,0.5,4.1,1.6s1.4,2.4,1.4,4.2V312.1z
			 M1389.4,309.9c0-1.7-0.7-2.6-2.1-2.6c-0.6,0-1.1,0.2-1.5,0.7s-0.7,1.1-0.8,1.8H1389.4z"/>
	</g>
</g>
<g>
	<g class="st5">
		<g>
			<path class="st4" d="M980.5,344.4c0,1.3-0.1,2.4-0.4,3.4s-0.6,1.8-1.1,2.5s-1.1,1.2-1.8,1.6s-1.5,0.5-2.4,0.5
				c-0.9,0-1.7-0.2-2.4-0.5v-1.5c0.8,0.4,1.6,0.7,2.5,0.7c0.6,0,1.2-0.1,1.7-0.4s0.9-0.6,1.3-1.1c0.3-0.5,0.6-1.1,0.8-1.8
				c0.2-0.7,0.3-1.6,0.3-2.5h0c-0.6,1.2-1.6,1.8-3.1,1.8c-0.6,0-1.1-0.1-1.7-0.3c-0.5-0.2-0.9-0.5-1.3-0.9c-0.4-0.4-0.6-0.8-0.8-1.4
				c-0.2-0.5-0.3-1.1-0.3-1.8c0-0.7,0.1-1.3,0.3-1.9s0.5-1.1,0.9-1.5s0.9-0.7,1.4-1c0.5-0.2,1.2-0.3,1.8-0.3c0.7,0,1.3,0.1,1.9,0.4
				c0.5,0.3,1,0.7,1.4,1.2s0.7,1.2,0.8,2S980.5,343.4,980.5,344.4z M978.8,343c0-0.5-0.1-1-0.2-1.5c-0.1-0.4-0.3-0.8-0.6-1.1
				c-0.2-0.3-0.5-0.6-0.9-0.7s-0.7-0.3-1.1-0.3c-0.4,0-0.7,0.1-1.1,0.2s-0.6,0.4-0.9,0.6s-0.4,0.6-0.6,1c-0.1,0.4-0.2,0.8-0.2,1.2
				c0,0.5,0.1,0.9,0.2,1.3c0.1,0.4,0.3,0.7,0.6,1c0.2,0.3,0.5,0.5,0.9,0.6c0.3,0.1,0.7,0.2,1.2,0.2c0.4,0,0.7-0.1,1.1-0.2
				c0.3-0.1,0.6-0.3,0.9-0.6s0.4-0.5,0.6-0.8C978.7,343.7,978.8,343.4,978.8,343z"/>
		</g>
	</g>
	<g>
		<path class="st4" d="M1615.2,317.1h-3.7V307c0-1.1,0-2.3,0.1-3.6h-0.1c-0.2,1-0.4,1.8-0.5,2.2l-3.9,11.4h-3.1l-4-11.3
			c-0.1-0.3-0.3-1.1-0.5-2.3h-0.1c0.1,1.7,0.2,3.1,0.2,4.4v9.3h-3.4v-16.8h5.5l3.4,10c0.3,0.8,0.5,1.6,0.6,2.4h0.1
			c0.2-0.9,0.4-1.7,0.7-2.4l3.4-9.9h5.4V317.1z"/>
		<path class="st4" d="M1628.6,317.1h-3.5v-1.7h0c-0.8,1.3-2,2-3.6,2c-1.2,0-2.1-0.3-2.7-1s-1-1.5-1-2.6c0-2.3,1.4-3.7,4.1-4
			l3.3-0.4c0-1.3-0.7-2-2.1-2c-1.4,0-2.8,0.4-4.1,1.3v-2.8c0.5-0.3,1.2-0.5,2.1-0.7s1.7-0.3,2.4-0.3c3.4,0,5.1,1.7,5.1,5.1V317.1z
			 M1625.1,312.2v-0.8l-2.2,0.3c-1.2,0.2-1.8,0.7-1.8,1.6c0,0.4,0.1,0.8,0.4,1s0.7,0.4,1.2,0.4c0.7,0,1.3-0.2,1.7-0.7
			S1625.1,313,1625.1,312.2z"/>
		<path class="st4" d="M1643.1,305.1l-4,5.8l3.9,6.2h-4.3l-1.7-3.2c-0.1-0.3-0.3-0.6-0.5-1.1h0c-0.1,0.3-0.3,0.7-0.5,1.1l-1.7,3.3
			h-4.3l4.1-6l-3.8-6h4.3l1.7,3.4c0.2,0.4,0.4,0.8,0.5,1.1h0c0.1-0.4,0.3-0.8,0.5-1.1l1.7-3.3H1643.1z"/>
		<path class="st4" d="M1651,316.4v-3.8c0.7,0.6,1.4,1,2.2,1.3s1.6,0.4,2.4,0.4c0.5,0,0.9,0,1.2-0.1s0.7-0.2,0.9-0.4
			s0.4-0.3,0.5-0.5s0.2-0.4,0.2-0.7c0-0.3-0.1-0.6-0.3-0.9s-0.4-0.5-0.8-0.7s-0.7-0.4-1.2-0.6s-0.9-0.4-1.4-0.6
			c-1.3-0.5-2.3-1.2-2.9-2s-1-1.7-1-2.9c0-0.9,0.2-1.6,0.5-2.3s0.8-1.1,1.4-1.6s1.3-0.7,2.1-0.9s1.6-0.3,2.5-0.3
			c0.9,0,1.7,0.1,2.3,0.2s1.3,0.3,1.9,0.5v3.5c-0.3-0.2-0.6-0.4-0.9-0.5s-0.7-0.3-1-0.4s-0.7-0.2-1-0.2s-0.7-0.1-1-0.1
			c-0.4,0-0.8,0-1.2,0.1s-0.6,0.2-0.9,0.3s-0.4,0.3-0.6,0.5s-0.2,0.4-0.2,0.7c0,0.3,0.1,0.5,0.2,0.8s0.4,0.4,0.6,0.6s0.6,0.4,1,0.6
			s0.8,0.4,1.3,0.6c0.7,0.3,1.3,0.6,1.8,0.9s1,0.7,1.4,1.1s0.7,0.9,0.9,1.4s0.3,1.1,0.3,1.8c0,0.9-0.2,1.7-0.5,2.4s-0.8,1.2-1.4,1.5
			s-1.3,0.7-2.1,0.8s-1.7,0.3-2.6,0.3c-0.9,0-1.8-0.1-2.6-0.2S1651.6,316.8,1651,316.4z"/>
		<path class="st4" d="M1676.3,317.1h-3.7v-1.8h-0.1c-0.9,1.4-2.1,2.1-3.7,2.1c-2.8,0-4.2-1.7-4.2-5.1v-7.2h3.7v6.9
			c0,1.7,0.7,2.5,2,2.5c0.7,0,1.2-0.2,1.6-0.7s0.6-1.1,0.6-1.9v-6.9h3.7V317.1z"/>
		<path class="st4" d="M1683.1,315.7L1683.1,315.7l0,6.9h-3.7v-17.5h3.7v1.8h0c0.9-1.4,2.2-2.1,3.9-2.1c1.6,0,2.8,0.5,3.6,1.6
			s1.3,2.5,1.3,4.4c0,2-0.5,3.6-1.5,4.8s-2.3,1.8-3.9,1.8C1685,317.4,1683.9,316.8,1683.1,315.7z M1683,310.8v1c0,0.8,0.2,1.5,0.7,2
			s1,0.8,1.7,0.8c0.8,0,1.5-0.3,2-1s0.7-1.6,0.7-2.8c0-2.1-0.8-3.2-2.5-3.2c-0.8,0-1.4,0.3-1.9,0.9S1683,309.8,1683,310.8z"/>
		<path class="st4" d="M1698,315.7L1698,315.7l0,6.9h-3.7v-17.5h3.7v1.8h0c0.9-1.4,2.2-2.1,3.9-2.1c1.6,0,2.8,0.5,3.6,1.6
			s1.3,2.5,1.3,4.4c0,2-0.5,3.6-1.5,4.8s-2.3,1.8-3.9,1.8C1699.9,317.4,1698.8,316.8,1698,315.7z M1697.9,310.8v1
			c0,0.8,0.2,1.5,0.7,2s1,0.8,1.7,0.8c0.8,0,1.5-0.3,2-1s0.7-1.6,0.7-2.8c0-2.1-0.8-3.2-2.5-3.2c-0.8,0-1.4,0.3-1.9,0.9
			S1697.9,309.8,1697.9,310.8z"/>
		<path class="st4" d="M1712.8,317.1h-3.7v-17.8h3.7V317.1z"/>
		<path class="st4" d="M1727.4,305.1l-4.9,13c-1.2,3.1-2.9,4.7-5.3,4.7c-0.9,0-1.6-0.1-2.2-0.3v-3c0.5,0.3,1,0.4,1.6,0.4
			c1,0,1.6-0.4,2-1.3l0.6-1.5l-4.9-12h4.1l2.2,7.3c0.1,0.5,0.2,1,0.3,1.6h0c0.1-0.5,0.2-1,0.4-1.6l2.3-7.3H1727.4z"/>
	</g>
</g>
<linearGradient id="SVGID_9_" gradientUnits="userSpaceOnUse" x1="904.931" y1="125.6963" x2="1052.1478" y2="125.6963">
	<stop  offset="0" style="stop-color:#9F2E95"/>
	<stop  offset="0.33" style="stop-color:#8B2CC7"/>
	<stop  offset="0.66" style="stop-color:#5951F1"/>
	<stop  offset="1" style="stop-color:#1DAEF4"/>
</linearGradient>
<path class="st10" d="M937.8,103.3l-12.1,35h-8.9l-11.9-35h8.5l7.3,24.4c0.4,1.3,0.6,2.5,0.7,3.5h0.1c0.1-1.1,0.4-2.3,0.8-3.6
	l7.3-24.3H937.8z M958.3,138.3H951v-3.6h-0.1c-1.7,2.8-4.2,4.2-7.4,4.2c-2.4,0-4.3-0.7-5.7-2.1c-1.4-1.4-2.1-3.2-2.1-5.5
	c0-4.9,2.9-7.6,8.6-8.4l6.8-0.9c0-2.7-1.5-4.1-4.4-4.1c-3,0-5.8,0.9-8.5,2.7v-5.8c1.1-0.6,2.5-1,4.4-1.5c1.9-0.4,3.6-0.6,5.1-0.6
	c7.1,0,10.7,3.6,10.7,10.7V138.3z M951.1,128.2v-1.7l-4.5,0.6c-2.5,0.3-3.8,1.5-3.8,3.4c0,0.9,0.3,1.6,0.9,2.2
	c0.6,0.6,1.4,0.8,2.5,0.8c1.4,0,2.6-0.5,3.5-1.5C950.6,131,951.1,129.7,951.1,128.2z M988.2,138.3h-7.7v-3.8h-0.1
	c-1.9,2.9-4.5,4.4-7.6,4.4c-5.8,0-8.7-3.5-8.7-10.5v-15.1h7.7v14.4c0,3.5,1.4,5.3,4.2,5.3c1.4,0,2.5-0.5,3.3-1.5
	c0.8-1,1.2-2.3,1.2-3.9v-14.3h7.7V138.3z M1002.4,138.3h-7.7v-37h7.7V138.3z M1024,138c-1.1,0.6-2.9,0.9-5.2,0.9
	c-5.4,0-8.2-2.8-8.2-8.5V119h-4.1v-5.7h4.1v-5.4l7.7-2.2v7.6h5.6v5.7h-5.6v10.1c0,2.6,1,3.9,3.1,3.9c0.8,0,1.7-0.2,2.5-0.7V138z
	 M1052.1,113.3l-10.2,27c-2.4,6.5-6.1,9.7-11,9.7c-1.9,0-3.4-0.2-4.6-0.6v-6.2c1,0.6,2.1,0.9,3.3,0.9c2,0,3.4-0.9,4.2-2.8l1.3-3.1
	l-10.2-25h8.5l4.7,15.2c0.3,0.9,0.5,2.1,0.7,3.3h0.1c0.1-0.9,0.4-2,0.8-3.3l4.7-15.3H1052.1z"/>
<g class="st5">
	<g>
		<path class="st4" d="M1598.6,351.6h-1.6v-12.1c-0.1,0.1-0.3,0.3-0.5,0.4c-0.2,0.2-0.5,0.3-0.8,0.5c-0.3,0.2-0.6,0.3-0.9,0.4
			c-0.3,0.1-0.6,0.2-1,0.3v-1.6c0.4-0.1,0.7-0.2,1.1-0.4c0.4-0.2,0.8-0.4,1.2-0.6s0.7-0.4,1.1-0.6c0.3-0.2,0.6-0.4,0.9-0.7h0.6
			V351.6z"/>
		<path class="st4" d="M1606.4,349.4l-1.6,4.8h-1.1l1.1-4.8H1606.4z"/>
		<path class="st4" d="M1618.6,344.5c0,1.2-0.1,2.2-0.3,3.1c-0.2,0.9-0.5,1.7-0.9,2.3c-0.4,0.6-0.9,1.1-1.5,1.4
			c-0.6,0.3-1.2,0.5-2,0.5c-0.7,0-1.3-0.2-1.9-0.5c-0.5-0.3-1-0.8-1.4-1.4c-0.4-0.6-0.7-1.3-0.9-2.2c-0.2-0.9-0.3-1.9-0.3-3
			c0-1.2,0.1-2.3,0.3-3.2s0.5-1.7,0.9-2.4c0.4-0.6,0.9-1.1,1.5-1.4c0.6-0.3,1.3-0.5,2-0.5C1617.1,337.4,1618.6,339.7,1618.6,344.5z
			 M1617,344.7c0-4-0.9-6-2.8-6c-2,0-3,2-3,6.1c0,3.8,1,5.7,2.9,5.7C1616,350.5,1617,348.5,1617,344.7z"/>
		<path class="st4" d="M1630.4,344.5c0,1.2-0.1,2.2-0.3,3.1c-0.2,0.9-0.5,1.7-0.9,2.3c-0.4,0.6-0.9,1.1-1.5,1.4
			c-0.6,0.3-1.2,0.5-2,0.5c-0.7,0-1.3-0.2-1.9-0.5c-0.5-0.3-1-0.8-1.4-1.4c-0.4-0.6-0.7-1.3-0.9-2.2c-0.2-0.9-0.3-1.9-0.3-3
			c0-1.2,0.1-2.3,0.3-3.2s0.5-1.7,0.9-2.4c0.4-0.6,0.9-1.1,1.5-1.4c0.6-0.3,1.3-0.5,2-0.5C1628.9,337.4,1630.4,339.7,1630.4,344.5z
			 M1628.8,344.7c0-4-0.9-6-2.8-6c-2,0-3,2-3,6.1c0,3.8,1,5.7,2.9,5.7C1627.8,350.5,1628.8,348.5,1628.8,344.7z"/>
		<path class="st4" d="M1642.2,344.5c0,1.2-0.1,2.2-0.3,3.1c-0.2,0.9-0.5,1.7-0.9,2.3c-0.4,0.6-0.9,1.1-1.5,1.4
			c-0.6,0.3-1.2,0.5-2,0.5c-0.7,0-1.3-0.2-1.9-0.5c-0.5-0.3-1-0.8-1.4-1.4c-0.4-0.6-0.7-1.3-0.9-2.2c-0.2-0.9-0.3-1.9-0.3-3
			c0-1.2,0.1-2.3,0.3-3.2s0.5-1.7,0.9-2.4c0.4-0.6,0.9-1.1,1.5-1.4c0.6-0.3,1.3-0.5,2-0.5C1640.7,337.4,1642.2,339.7,1642.2,344.5z
			 M1640.5,344.7c0-4-0.9-6-2.8-6c-2,0-3,2-3,6.1c0,3.8,1,5.7,2.9,5.7C1639.6,350.5,1640.5,348.5,1640.5,344.7z"/>
		<path class="st4" d="M1647.1,349.4l-1.6,4.8h-1.1l1.1-4.8H1647.1z"/>
		<path class="st4" d="M1659.3,344.5c0,1.2-0.1,2.2-0.3,3.1c-0.2,0.9-0.5,1.7-0.9,2.3c-0.4,0.6-0.9,1.1-1.5,1.4
			c-0.6,0.3-1.2,0.5-2,0.5c-0.7,0-1.3-0.2-1.9-0.5c-0.5-0.3-1-0.8-1.4-1.4c-0.4-0.6-0.7-1.3-0.9-2.2c-0.2-0.9-0.3-1.9-0.3-3
			c0-1.2,0.1-2.3,0.3-3.2s0.5-1.7,0.9-2.4c0.4-0.6,0.9-1.1,1.5-1.4c0.6-0.3,1.3-0.5,2-0.5C1657.8,337.4,1659.3,339.7,1659.3,344.5z
			 M1657.7,344.7c0-4-0.9-6-2.8-6c-2,0-3,2-3,6.1c0,3.8,1,5.7,2.9,5.7C1656.7,350.5,1657.7,348.5,1657.7,344.7z"/>
		<path class="st4" d="M1671.1,344.5c0,1.2-0.1,2.2-0.3,3.1c-0.2,0.9-0.5,1.7-0.9,2.3c-0.4,0.6-0.9,1.1-1.5,1.4
			c-0.6,0.3-1.2,0.5-2,0.5c-0.7,0-1.3-0.2-1.9-0.5c-0.5-0.3-1-0.8-1.4-1.4c-0.4-0.6-0.7-1.3-0.9-2.2c-0.2-0.9-0.3-1.9-0.3-3
			c0-1.2,0.1-2.3,0.3-3.2s0.5-1.7,0.9-2.4c0.4-0.6,0.9-1.1,1.5-1.4c0.6-0.3,1.3-0.5,2-0.5C1669.6,337.4,1671.1,339.7,1671.1,344.5z
			 M1669.4,344.7c0-4-0.9-6-2.8-6c-2,0-3,2-3,6.1c0,3.8,1,5.7,2.9,5.7C1668.5,350.5,1669.4,348.5,1669.4,344.7z"/>
		<path class="st4" d="M1682.9,344.5c0,1.2-0.1,2.2-0.3,3.1c-0.2,0.9-0.5,1.7-0.9,2.3c-0.4,0.6-0.9,1.1-1.5,1.4
			c-0.6,0.3-1.2,0.5-2,0.5c-0.7,0-1.3-0.2-1.9-0.5c-0.5-0.3-1-0.8-1.4-1.4c-0.4-0.6-0.7-1.3-0.9-2.2c-0.2-0.9-0.3-1.9-0.3-3
			c0-1.2,0.1-2.3,0.3-3.2s0.5-1.7,0.9-2.4c0.4-0.6,0.9-1.1,1.5-1.4c0.6-0.3,1.3-0.5,2-0.5C1681.4,337.4,1682.9,339.7,1682.9,344.5z
			 M1681.2,344.7c0-4-0.9-6-2.8-6c-2,0-3,2-3,6.1c0,3.8,1,5.7,2.9,5.7C1680.2,350.5,1681.2,348.5,1681.2,344.7z"/>
		<path class="st4" d="M1687.8,349.4l-1.6,4.8h-1.1l1.1-4.8H1687.8z"/>
		<path class="st4" d="M1700,344.5c0,1.2-0.1,2.2-0.3,3.1c-0.2,0.9-0.5,1.7-0.9,2.3c-0.4,0.6-0.9,1.1-1.5,1.4
			c-0.6,0.3-1.2,0.5-2,0.5c-0.7,0-1.3-0.2-1.9-0.5c-0.5-0.3-1-0.8-1.4-1.4c-0.4-0.6-0.7-1.3-0.9-2.2c-0.2-0.9-0.3-1.9-0.3-3
			c0-1.2,0.1-2.3,0.3-3.2s0.5-1.7,0.9-2.4c0.4-0.6,0.9-1.1,1.5-1.4c0.6-0.3,1.3-0.5,2-0.5C1698.5,337.4,1700,339.7,1700,344.5z
			 M1698.3,344.7c0-4-0.9-6-2.8-6c-2,0-3,2-3,6.1c0,3.8,1,5.7,2.9,5.7C1697.4,350.5,1698.3,348.5,1698.3,344.7z"/>
		<path class="st4" d="M1711.8,344.5c0,1.2-0.1,2.2-0.3,3.1c-0.2,0.9-0.5,1.7-0.9,2.3c-0.4,0.6-0.9,1.1-1.5,1.4
			c-0.6,0.3-1.2,0.5-2,0.5c-0.7,0-1.3-0.2-1.9-0.5c-0.5-0.3-1-0.8-1.4-1.4c-0.4-0.6-0.7-1.3-0.9-2.2c-0.2-0.9-0.3-1.9-0.3-3
			c0-1.2,0.1-2.3,0.3-3.2s0.5-1.7,0.9-2.4c0.4-0.6,0.9-1.1,1.5-1.4c0.6-0.3,1.3-0.5,2-0.5C1710.3,337.4,1711.8,339.7,1711.8,344.5z
			 M1710.1,344.7c0-4-0.9-6-2.8-6c-2,0-3,2-3,6.1c0,3.8,1,5.7,2.9,5.7C1709.1,350.5,1710.1,348.5,1710.1,344.7z"/>
		<path class="st4" d="M1723.5,344.5c0,1.2-0.1,2.2-0.3,3.1c-0.2,0.9-0.5,1.7-0.9,2.3c-0.4,0.6-0.9,1.1-1.5,1.4
			c-0.6,0.3-1.2,0.5-2,0.5c-0.7,0-1.3-0.2-1.9-0.5c-0.5-0.3-1-0.8-1.4-1.4c-0.4-0.6-0.7-1.3-0.9-2.2c-0.2-0.9-0.3-1.9-0.3-3
			c0-1.2,0.1-2.3,0.3-3.2s0.5-1.7,0.9-2.4c0.4-0.6,0.9-1.1,1.5-1.4c0.6-0.3,1.3-0.5,2-0.5C1722.1,337.4,1723.5,339.7,1723.5,344.5z
			 M1721.9,344.7c0-4-0.9-6-2.8-6c-2,0-3,2-3,6.1c0,3.8,1,5.7,2.9,5.7C1720.9,350.5,1721.9,348.5,1721.9,344.7z"/>
	</g>
</g>
</svg>
